<?xml version="1.0" encoding="utf-8"?>
<!-- Generator: Adobe Illustrator 23.0.4, SVG Export Plug-In . SVG Version: 6.00 Build 0)  -->
<svg version="1.1" id="Layer_1" xmlns="http://www.w3.org/2000/svg" xmlns:xlink="http://www.w3.org/1999/xlink" x="0px" y="0px"
	 viewBox="0 0 362.6 362.6" style="enable-background:new 0 0 362.6 362.6;" xml:space="preserve">
<style type="text/css">
	.st0{fill:#06A9EB;}
	.st1{fill:#FB9A3D;}
	.st2{fill:#F7993E;}
	.st3{fill:#0B0607;}
	.st4{fill:#FC9A3D;}
	.st5{fill:#09A9E9;}
	.st6{fill:#0A0505;}
	.st7{fill:#1B86A9;}
	.st8{fill:#2581A0;}
	.st9{fill:#9E2A30;}
	.st10{fill:#D6782D;}
	.st11{fill:#1D0609;}
	.st12{fill:#13060B;}
	.st13{fill:#6A5E54;}
	.st14{fill:#229BCE;}
	.st15{fill:#310406;}
	.st16{fill:#090607;}
	.st17{fill:#827F7D;}
	.st18{fill:#DA9D73;}
	.st19{fill:#2BA9E2;}
	.st20{fill:#C1272D;}
	.st21{fill:#F9F7F5;}
	.st22{fill:#0C2235;}
	.st23{fill:#6D320A;}
	.st24{fill:#F9993D;}
	.st25{fill:#E41E27;}
	.st26{fill:#2FA4D8;}
	.st27{fill:#DF1F28;}
	.st28{fill:#FEFEFE;}
	.st29{fill:#5C2E14;}
</style>
<title>Artboard 46</title>
<g>
	<path class="st0" d="M273.4,213.2c-2.1,0-4.3,0-6.7,0c0-2.6,0-4.6,0-6.9c-1.8,0-3.4,0-5,0c-0.4,0.5-1,1-1.1,1.5
		c-0.2,1.3-0.1,2.6-0.1,3.8c-4,2.3-8,1.3-11.8,1.3c-0.7,0-1.7-1.2-1.9-2c-0.3-1.4-0.1-3-0.1-4.6c2.5-0.2,4.5-0.3,6.9-0.4
		c0-4.7,0-9.1,0-13.5l0,0c1.6,0,3.2-0.1,4.8-0.1c1.6,0,2.3-0.6,2-2.2c0-3.8,0-7.6,0-11.6c2.6-0.2,4.7-0.3,7-0.5c0-6.8,0-13.5,0-20.4
		c1.4-0.2,2.8-0.1,3.9-0.6c1-0.5,2.3-1.6,2.4-2.5c0.1-5.8-0.1-11.7-0.2-17.5c1.5,0.4,3,0.9,4.5,1c0.7,0.1,1.5-0.6,2.2-1
		c-0.8-0.4-1.5-0.8-2.3-1.3c0.8-0.4,1.5-0.7,2.3-1.1c0-3.9,0-7.7,0-11.5c0-0.2,0-0.4,0-0.6c2.2-0.4,4.5-0.7,7.1-1.2
		c0-2.1,0-4.1,0-6.2c2.3,0,4.5,0,6.8-0.1c0,1.5-0.1,3.1,0.2,4.6c0.2,0.8,1.1,2.1,1.7,2.1c3.9,0.2,7.8,0.1,11.7,0.1
		c0.1-0.9,0.2-1.6,0.3-2.2c0.5-1.4,1-2.8,1.7-4.9c2,0.4,4.2,0.9,6.4,1.4c0,1.8,0,3.6,0,5.7c2.4,0,4.4,0,6.8,0c0,4.7,0,9.1,0,13.8
		c2.5,0.1,4.6,0.2,7,0.3c0,6.9,0,13.7,0,20.7c2.4,0,4.5,0,6.9,0c0,1.4,0,2.5,0,3.6c0,7.5,0.2,14.9-0.2,22.4c-0.2,3.2,0.9,7-2.1,9.7
		c-1.2,0-2.3,0-3.5,0c-0.7-0.6-1.5-1.2-2.5-2c0-6.4,0-12.9,0-19.6c-4.6,0-9,0-13.1,0c-0.3,2.3-0.5,4.4-0.8,6.6
		c-2.4,0.1-4.4,0.2-6.5,0.3c0,7,0,13.6,0,20.6c1.4,0,2.5,0,3.6,0c2.3-0.1,3.2,0.9,3.2,3.3c0,1.6,0.7,3.2,1.1,4.8c0,2.1,0,4.2,0,6.7
		c-2.3,0.1-4.5,0.3-6.9,0.4c-0.1,2.2-0.2,4.2-0.3,6.5c-1.3,0.1-2.6,0.3-3.8,0.2c-2.3-0.1-3.1,0.9-3,3.1c0.1,3.4,0,6.9,0,10.6
		c-2.7,0-5.2,0-8,0c0-2.1,0-4.2,0-6.5c-2,0-3.7,0-5.8,0c0,2.1,0,4.2,0,6.5c-2.7,0-5.2,0-7.9,0c0-4.7,0-9.5,0-14.6c2.2,0,4.2,0,6.4,0
		c0-4.3,0-8.4,0-13c-1.7,0-3.6,0-5.5,0c0-5.3,0-10.5,0-15.8c0-2.5,1.7-4.4,4.1-4.9c0.6-0.1,1.2-0.7,1.8-1c0.7-1.8,1.4-3.6,2.3-5.9
		c0.4,0,1.6,0.1,2.7-0.1c0.7-0.1,1.2-0.8,1.8-1.2c0-4.2,0-8.4,0-12.6c1.2,0.2,2.4,0.7,3.5,0.4c1.2-0.2,2.3-1.1,3.4-1.7l0,0
		c0.6,0,1.3-0.1,1.6-0.1c0-1.8,0-3.5,0-5.9c-1-2.2-3.8-2.5-6.2-1.9c-4.1,1-1.3,5.2-2.5,7.3c-1.7-0.2-3.3-0.5-4.8-0.7
		c0.1,0.2,0.1,0.4,0.2,0.6c-1.3,0.9-2.6,1.7-4,2.6c0.6,0.3,1.1,0.5,1.4,0.7c0,1.1,0,2,0,2.6c-0.6,0.7-1.2,1.4-1.8,2.1
		c0.1,0.1,0.3,0.3,0.4,0.4c0.6-0.1,1.1-0.2,1.7-0.4c0,1.4,0,2.6,0,3.9c-0.7-0.2-1.3-0.3-1.9-0.5c0.2,0.2,0.3,0.4,0.5,0.6
		c-0.8,1.2-1.6,2.3-2.5,3.5c-0.6,0-1.1,0.1-1.7,0.1c-0.6,1.4-1.2,2.8-2,4.6c-1.3,0.5-4.4-0.9-4.8,2.6c0,7.7,0,15.3-0.1,23
		C274.4,210.2,273.8,211.7,273.4,213.2z M299.5,151.1c-0.1,0-0.3,0-0.4,0c-0.1,0.3-0.3,0.6-0.3,0.9c0,0.3,0.3,0.6,0.5,0.9
		c0.1-0.1,0.3-0.1,0.4-0.2C299.6,152.1,299.6,151.6,299.5,151.1z M289.2,160.5c-0.2-0.1-0.3-0.2-0.5-0.2c-0.1,0-0.2,0.3-0.2,0.4
		c0,0.1,0.3,0.2,0.4,0.2C289.1,160.9,289.1,160.6,289.2,160.5z"/>
	<path class="st1" d="M287.2,115.1c0,2.1,0,4.2,0,6.2c-2.7,0.4-4.9,0.8-7.1,1.2c-1.7,0-3.3,0-5,0.1c-2.6-0.3-5.2-0.6-8-0.9
		c-0.1,2.6-0.3,4.5-0.4,6.3c-2.4,0.3-4.5,0.7-6.9,1c0,2.3,0,4.1,0,6.1c-2.4,0.4-4.4,0.7-6.7,1c-0.1,2.2-0.2,4.3-0.4,6.5
		c-2.4,0.1-4.5,0.2-6.6,0.3c-0.1,2.4-0.2,4.4-0.3,6.8c-4.7,0-9,0-13.7,0c0,2.4,0,4.5,0,6.9c-2.4,0-4.5,0-6.7,0
		c-0.1,2.5-0.3,4.6-0.4,6.9c-2.3,0-4.2,0-6.1,0c-0.3-3.3,0.2-6.6,0-9.9c-0.3-8.7-0.1-17.5,0-26.2c0-1.8,0.7-3.6,1.1-5.4l0,0
		c1.9,0,3.7,0,5.7,0c0.1-2.5,0.2-4.6,0.3-6.9c1.4,0,2.6,0,3.7,0c2.9-0.1,5.9-0.3,8.8-0.4c0.2-2.4,0.4-4.7,0.6-7.1c2.2,0,4.4,0,6.9,0
		c0-2.4,0-4.4,0-6.9c4.8,0,9.2,0,13.9,0c0-2.5,0-4.5,0-6.9c2.4,0,4.4,0,6.8,0c0.1-2.4,0.2-4.4,0.3-6.8c1.9-0.1,3.7-0.2,5.9-0.3
		c0.1-2.1,0.2-4.3,0.4-6.7c2.2,0,4.3,0,6.7,0c0-2.4,0-4.4,0-6.8c2.5-0.1,4.6-0.2,6.8-0.3c1,0.2,1.9,0.6,2.9,0.7
		c3.8,0.1,7.6,0.1,11.3,0.2c0,4.2,0,8.4-0.1,12.6c-3-0.2-0.2,2.6-1.9,3.3c-0.6,0-1.5,0-2.4,0c-0.3-1.1-0.5-2-0.8-3.4
		c-0.7,2.7-1.3,4.8-1.9,7c0,0.2,0,0.3-0.1,0.5c-2.3,0-4.6,0.1-6.9,0.1c0-2.2,0-4.5,0-6.7c-2.6,0-4.6,0-6.7,0c0,2.3,0,4.3,0,6.7
		c2.4,0,4.6,0,6.7,0c0,4.5,0,9.1,0,13.7c2.5,0,4.6,0,6.8,0c0.1-2.1,0.2-3.9,0.3-6.2c2.4,0,4.5,0,6.7,0c0.1,2.1,0.2,4.1,0.3,6.3
		c2.4,0,4.5,0,6.9,0c-0.1-2.4-0.2-4.6-0.3-6.8c-1.2-0.2-2.5-0.6-3.7-0.6c-2.1,0-2.6-1.3-2.6-2.9c0-1.7,0.5-2.9,2.6-2.9
		c1.2,0,2.5-0.4,3.7-0.6c0-2.3-0.1-4.6-0.1-7c0.1-0.1,0.1-0.3,0-0.4c0-4.2,0-8.5,0-12.7c0.4-0.3,0.8-0.6,1.3-0.8c2.2,0,4.3,0,6.9,0
		c0,2.6,0,4.8,0,7c1.8,0.4,3.6,0.7,5.5,1.1c0,6.3,0,12.6,0,18.3c-1.8,1-3,1.7-4.3,2.5c-0.4,0.1-0.8,0.1-1.2,0.2
		c-1.5-0.6-1.1,0.6-1.1,1.3c0,3.6,0,7.2,0,10.8c-2.3,0-4.5,0-6.9,0c0,2.3,0,4,0,5.7c-0.1,0.7-0.2,1.3-0.3,2.2
		c-3.9,0-7.8,0.1-11.7-0.1c-0.6,0-1.6-1.3-1.7-2.1c-0.3-1.5-0.2-3-0.2-4.6c-0.9-1.2-5-1.7-6.6-0.7
		C287.2,114.4,287.3,114.8,287.2,115.1z"/>
	<path class="st2" d="M225.9,66.5c0.1,1.6,0.1,3.3,0.2,4.9c-0.4,1.4-1.1,2.8-1.2,4.2c-0.2,3.4-0.1,6.8-0.1,10.7
		c-1.8,0-3.4,0.1-4.8,0c-1.7-0.1-2.2,0.7-2.1,2.2c-0.1,1.4-0.1,2.8-0.2,4.7c-2.4,0-4.6,0-6.7,0l0-0.1c0-2,0-4.1,0-6.1
		c-2.4,0-4.2,0-6.3,0c0,2.2,0,4.2,0,6.2c-0.2,2.6-0.5,5.1-0.8,8.1c2.8,0,4.8,0,7.1,0c0,6.9,0,13.5,0,20.1c-1.5,0.2-3.1,0.4-4.6,0.6
		c-1.8-0.5-2.1,0.5-2.1,2c0,4,0,8,0,12.1c0,2.2,0,4.3,0,6.8c-4.9,0-9.3,0-14,0c0,1.8,0.1,3.4-0.1,4.8c-0.1,0.8-0.8,1.4-1.2,2.2
		c-1.9,0-3.7,0-5.8,0c0,2.6,0,4.7,0,6.9c-2.3,0-4.6,0-6.9,0c0-2.2,0-4.5,0-7c-2.7,0-4.8,0-7,0c0-2.2,0-4.5,0-6.7
		c-4.9,0-9.2,0-13.8,0c0,2.4,0,4.6,0,6.7c-2.2,0-4.5,0-7,0c0,2.7,0,4.8,0,7c-1.9,0-3.8,0-5.7,0c-0.5-0.7-1.2-1.3-1.3-2
		c-0.2-1.6-0.1-3.2-0.1-5.2c-2.4,0-4.5,0-6.9,0c0-1.8,0.1-3.3,0-4.7c-0.1-0.7-0.6-1.3-0.9-2c-3.8,0-7.7,0-11.5,0
		c-1.7-0.1-1.6-1.3-1.6-2.5c0-5.3,0.1-10.5,0-15.8c0-0.9-0.5-1.7-0.7-2.6c-0.4,0-0.7,0-1.1,0c-1.6-0.2-3.2-0.3-4.8-0.5
		c0-6.9,0-13.6,0-20.6c2.3,0,4.4,0,6.5,0c0-2.6,0-4.8,0-7.1c0-2.2,0-4.5,0-6.7c-7.1-0.8-7.8-0.1-6.4,6c-1.1,0-2.1,0-3.2,0
		c-2.9,0-3.6-0.7-3.7-3.8c0-0.9-0.1-1.9-0.2-3c-2.3-0.1-4.4-0.2-6.7-0.3c0-2.3,0.1-4.3,0-6.3c-0.1-2.4-0.3-4.9-0.5-7.3
		c0-1.9,0-3.8,0-5.8c2,0,3.9,0,6.3,0c0,2.9-0.1,5.4,0,7.9c0.1,1.5,0.4,3.1,0.6,4.6c0.2,0.2,0.5,0.4,0.7,0.7c2,0,4.1,0,6.1,0
		c0-4.6,0-9.2,0-13.9c-2.4,0-4.6,0-6.8,0l0,0.1c0-2.3,0-4.6,0-7c4.7,0,9,0,13.3,0c0,6,0,11.9,0,17.9c0,0.8,0.4,1.6,0.6,2.4
		c0.3,0.2,0.6,0.4,0.9,0.6c2.1,0.2,4.1,0.4,6.6,0.6c0-4.9,0-9.3,0-13.8c2.1,0,3.8,0,5.9,0c0,3.6-0.1,6.9,0.1,10.2c0,1,0.8,2,1.2,3
		c0,2.2,0,4.5,0,6.7c2.2,0,4,0,5.9,0c0.2,0.3,0.3,0.6,0.5,0.8l-0.2,0.2c-0.2,0-0.3,0-0.5,0c0.1,0,0.3,0.1,0.4,0.1
		c0,0.3,0.1,0.5,0.1,0.8c-0.1,1.2-0.2,2.4-0.4,3.5c-0.9,0.3-1.8,0.8-2.7,1c-1.1,0.3-2.3,0.3-3.5,0.5c0,2.4-0.1,4.8-0.1,7.2
		c0,0.2,0.1,0.3,0.1,0.5c-0.2,0.5-0.5,1-0.5,1.6c-0.3,4.5-0.3,4.6-4.6,4.8c-2,0.1-2.4,1-2.4,2.7c0,7.7,0,15.4,0,23.2
		c0,0.6,0.3,1.3,0.5,1.9l0.1,0.2c2,0.1,3.9,0.2,5.9,0.3c0.2,0,0.4,0,0.6,0c7,0,13.9,0,21,0c0.1-2.5,0.2-4.7,0.3-6.7
		c4.7,0,9.1,0,13.6,0c0.1,2.3,0.2,4.4,0.3,6.6c7.1,0,13.9,0,20.7,0c2.2-0.1,4.4-0.2,6.5-0.3c0-6.9,0-13.9,0-20.8
		c0.1-0.1,0.2-0.2,0.2-0.4c0-2.1,0-4.1,0-6.5c-2.2,0.1-4.1,0.2-6.3,0.3c-0.2-2.4-0.4-4.8-0.6-7.2c0-2.3,0-4.6-0.1-6.9
		c-2.1-0.2-4.2-0.5-6.2-0.7c0-2,0-3.9,0-6.1c2.2-0.1,4.2-0.3,6.3-0.4c0-2.3,0-4.3,0-6.2c1.4-1.3,1.8-2.6,0.1-3.9c0-2.7,0-5.5,0-8.2
		c1.9-2.3,3.7-2.2,6.7-0.5c0,3.9,0,7.8,0,11.9c2.6,0,4.8,0,7.3,0c0-6.9,0-13.7,0-20.6c4.8,0,9.3,0,13.9,0c0,2.3,0,4.4,0,6.8
		c-2.4,0-4.6,0-7.1,0c0,4.8,0,9.2,0,13.6c2.2,1.7,4.4,1.1,6.7,0.4c0.2-0.2,0.4-0.4,0.6-0.6c0.2-1,0.5-1.9,0.6-2.9
		c0.1-3.1,0-6.2,0-9.7C221.5,66.5,223.7,66.5,225.9,66.5z"/>
	<path class="st3" d="M125.5,30.8c0.4,0,0.8,0,1.2,0c0.2,0,0.4,0,0.6-0.1l0.1,0c0.3-1.8,0.6-3.7,0.9-5.8c2.2,0,4.3,0.1,6.5,0
		c0.8-0.1,1.5-0.7,2.3-1c1.2-0.1,2.5-0.1,4-0.2c0.1-2.1,0.2-4.2,0.3-6.5c14.2,0,28.4,0,42.9,0c0,2.1,0,4.1,0,6.5c4.7,0,9.1,0,13.8,0
		c0.1,2.4,0.2,4.6,0.3,7c2.2,0,4.3,0,6.7,0c0,4.7,0,9.2,0,13.9c2.4,0.1,4.5,0.2,6.9,0.3c0.1,2.1,0.2,4.2,0.3,6.6
		c2.2,0.1,4.3,0.2,6.8,0.4c0,1.5,0,2.9,0,4.3c-0.6,0.7-1.3,1.5-2,2.3c-3.6,0-7.4,0.1-11.1,0c-2.3-0.1-3,1-3,3.1c0,4.5,0,8.9,0,13.4
		c0,1.7-0.7,3-2.3,3c-1.6,0-2.4-1.4-2.3-3c0.2-3,0.4-5.9,0.6-8.6c-0.8-1.3-1.7-2.6-2.7-4.3c-0.4,0.1-1.2,0.2-1.9,0.6
		c-1.8,1-3.5,2.1-5.3,3.2c-0.4,0-0.8,0-1.2,0c-0.2-1,0.6-2.6-1.3-2.5c-0.4,0-0.7,1.6-1,2.5c-1.5,0-3.1,0-4.6,0c-0.2,0-0.3,0-0.5,0
		c-1,0-1.9,0-2.9,0c0.4-1.3,0.8-2.5,1.1-3.8l0,0c2.3,0.6,2.2-1.4,2.8-3c1.8,0.2,3.6,0.5,5.4,0.6c1.8,0.2,4,0.6,4.4-1.9
		c0.6-3.8,1-7.6,1.2-11.5c0.2-2.7,0-5.4,0-8.3c-1-0.1-1.7-0.1-2.3-0.1c-18.5,0-37.1,0-55.6,0c-1.5,0.6-2.2,1.7-2.1,3.3
		c0.4,5.7,0.8,11.5,1.2,17.2c0.1,1.4,0.7,1.7,1.8,0.6c0.6,0,1.1,0,1.7,0c0.5,0.6,1,1.8,1.5,1.8c2.9,0.2,5.8,0.1,8.8,0.1
		c0.3,1.4-0.2,2.8-2.4,2.9c-6,0.2-12.1,0.4-18.6,0.7c-0.5,4.7,1.7,10.1-1.6,15c-0.9-0.1-1.8-0.2-2.8-0.3c0-5-0.5-9.8,0.2-14.3
		c0.5-2.9,0.9-4.8-2.1-6.1l-0.2,0c-4.2,0-8.4,0-13.2,0c0.4-2.1,0.3-4.6,1.1-4.9c1.6-0.7,3.6-0.2,6.1-0.2c0.5-2.3,1.1-4.8,1.7-7.8
		c1.2,0.2,2.5,0.5,3.9,0.8c1.2-1.6,2.8-3.3,2.3-5.9c-0.5-2.7-0.9-5.5-1.3-8.1C122.6,31.7,124,31.3,125.5,30.8z"/>
	<path class="st4" d="M57.9,240.8c0-11.6,0-23.2,0-35.1c1.3-0.1,2.4-0.2,3.5-0.2c3.3,0,3.3,0,3.3-3.4c0-3.3,0-6.7,0-10.4
		c2.4-0.3,4.5-0.5,7-0.8c0-4.4,0-8.8,0-13.5c2.4,0,4.4,0,6.8,0c0-2.4,0-4.5,0-6.9c2.4-0.1,4.4-0.2,7.1-0.3c0-2.3,0-4.5,0-6.8
		c2.3,0,4.6-0.1,6.9-0.1c2.9-1.3-0.2-3.9,1.5-5.8c1.7,0,3.7,0,6.1,0c0-2.8,0-5.4,0-7.9l0-0.2c2.3,0.1,4.5,0.2,6.8,0.4
		c-0.1,1.9-0.3,3.8-0.4,5.7c-0.2,1-0.5,2-0.5,3c-0.1,8.6-0.1,17.2-0.1,25.8c-2,0-4,0-6.1,0c-0.1,2.5-0.3,4.6-0.4,6.8
		c-2.4,0.1-4.5,0.2-6.8,0.3c0,4.8,0,9.4,0,14.3c-4.7,0-9.1,0-13.5,0c0,2.5,0,4.6,0,6.9c3.8,0,7.4-0.1,10.9,0c1.3,0,2.6,0.4,3.8,0.6
		c-0.1,0.4-0.1,0.7-0.2,1.1c-0.4,3.9-0.9,7.9-1.4,12.1c-2,0-4,0-6,0c-3.1-0.7-6.2-1.5-8.7,0.6c0.3,2.6,0.6,4.7,0.9,7
		c2.3,0,4.4,0,6.5,0c0.2,2.3,0.4,4.6,0.6,6.9c0,2.1,0,4.1,0,6.4c-7.2,0-13.9,0-20.6,0c-0.1-1-0.2-1.5-0.2-2c-0.1-5.2-1-5.9-6.1-4.7
		C58.5,240.6,58.2,240.7,57.9,240.8z"/>
	<path class="st5" d="M287.3,72.2c0-0.1,0-0.2,0-0.3c-0.3-5.1-0.3-5.1-5.4-5.4c-0.4,0-0.8-0.1-1.5-0.2c0-4.4,0-8.8,0-13.6
		c-2.5,0-4.5,0-6.8,0c0-7.4,0-14.6,0-21.9c2.1,0,4.2,0,6.7,0c0-2.4,0-4.5,0-6.9c2.4,0,4.5,0,6.9,0c0-2.4,0-4.4,0-6.9
		c4.8,0,9.4,0,14,0c0,2.2,0,4.3,0,6.7c-2.5,0.1-4.6,0.2-6.9,0.3c0,4.8,0,9.3,0,13.8c0,2.3,0,4.5,0,6.8c0.7,0.4,1.4,1,2.2,1.1
		c1.1,0.2,2.2,0,3.7,0c-0.6,3.4-0.4,6.2,2,7.3c4.3,0,7.8,0,11.9,0c0.1-0.1,0.6-0.8,1.2-1.5c0.7-0.8,1.7-1.5,2.1-2.4
		c0.7-1.8,2.6-3.1,4.6-2.8c4.2-6.6,2.3-6.5,0.2-11c0-1,0-2,0-3c0.7-0.5,1.5-1.1,2.2-1.6c0.4,0,0.8,0,1.2,0c0.4,0,0.7,0,1.1,0
		c0.7-0.1,1.5-0.2,2.5-0.3c0-2.2,0-4.3,0-6.7c1.7,0,3.1,0,4.5,0c1.9,2.9,2.7-1.1,3.9-0.5c-0.1-1.7-0.3-3.3-0.4-5.1
		c4.4,0,8.4,0,12.7,0c-1.1,5.5,1.3,7.7,6.7,6.7c0,2.1,0,3.7,0,5.2c-2.1,0.5-4.5,0.4-5.7,1.6c-1.2,1.2-1.1,3.6-1.6,5.7
		c-0.3,0-0.7,0.2-1.2,0.2c-3,0-6-0.3-8.9,0.1c-1.5,0.2-3.2,1.6-4.1,2.9c-0.4,0.7,0.6,2.5,1.2,3.7c0.7,1.2,1.7,2.2,2.7,3.5
		c0.4-2.1,1.7-2.6,3.7-1.6c0,3.9,0,7.9,0,12.2c-2,0-3.8,0-5.6,0l0-0.1c0.2-1.9,1.4-4-0.7-5.7c-0.1,0-0.3,0-0.4-0.1
		c0.3-0.6,0.5-1.3,0.9-2.2c-1.7,0-3.1,0.1-4.5,0c-1.8-0.1-2.5,0.6-2.2,2.3c0,1.3-0.1,2.7-0.1,4c0.1,2-0.9,3-2.9,2.9
		c-1.3-0.1-2.6,0-3.9,0c0,2.2,0,4,0,5.8c0.1,1.4-0.8,1.3-1.9,1.3c-3-0.1-6.1,0-9.1,0c-1.6,0-2.8,0.4-2.9,2.3
		c-0.4,1.1-0.9,2.2-1.3,3.4C300.8,72.2,294,72.2,287.3,72.2z"/>
	<path class="st6" d="M92.5,163.4c-2.3,0-4.6,0.1-6.9,0.1c-0.7-16.2-0.3-32.5-0.2-48.8c2.6-0.1,4.6-0.2,7-0.3c0-13.8,0-27.4,0-41.4
		c2.5,0,4.7,0,7,0c0,4.6,0.1,9.2,0.1,13.8c0,0.2,0,0.4-0.1,0.6c0,0.1-0.1,0.2-0.1,0.2c0-0.1,0.1-0.2,0.1-0.2
		c0.4,0.3,0.8,0.7,1.4,1.2c0.2-0.7,0.3-1.2,0.4-1.6c0.4,0,0.8,0,1.1,0c1.3,2.8,2.7,5.5,3.8,7.9c4.1-0.2,8-0.4,12-0.6
		c0.1,0.3,0.1,0.5,0.2,0.8c-0.6,0.3-1.1,0.6-1.3,0.7c0.6,1.2,1.1,2.2,1.5,3.2l0,0c-2.3,0.8-4.5,1.7-6,2.2c0.1,7.7,0.3,14.8,0.4,21.9
		c0.2,0.1,0.5,0.2,0.7,0.3c1.5-1.1,3.8,1.2,4.9-1.5c0.4,0,0.7,0,1.1,0c0,5.6-0.1,11.3,0.1,16.9c0.1,2.6-1.1,3.3-3.4,3.3
		c-2.4,0-4.7,0.3-7.1,0.4c-0.4,0-0.8,0-1.2,0c-1.5,0.5-2.9,1-4.2,1.5c0.8,1,1.3,1.6,1.8,2.3c-0.8,0.3-1.6,0.7-2.4,0.9
		c-0.4,0.1-1,0.1-1.4,0c-1.6-0.2-2,0.7-1.9,2.1l0,0.2c-0.3,2.2-0.7,4.4-1,6.9c-2.1,0-4.2,0-6.6,0C92.5,159,92.5,161.2,92.5,163.4z"
		/>
	<path class="st3" d="M206.3,121.8c1.5-0.2,3.1-0.4,4.6-0.6c0.1-2.4,0.4-4.9,0.4-7.3c0.1-4.4,0-8.7,0-13.5c-2.5,0-4.6,0-6.7,0
		c0-2.5,0-4.5,0-6.9c2.2,0,4.2,0,6.2,0c2.4,0,4.9,0,7.5,0c0-1.9,0-3.6,0-5.2c0.1-1.1,0.5-1.7,1.8-1.6c1.7,0.1,3.4,0,5.4,0
		c0-4.9,0-9.4,0-13.9c2.5-0.1,4.7-0.3,6.9-0.4c0.2,0.9,0.5,1.9,0.5,2.8c0.1,9.4,0.2,18.8,0.3,28.2c0,4.1,0,4.1,4.2,4.1
		c0.6,0,1.2,0,1.7,0c-0.2,2.4-0.4,4.7-0.6,7.1c-4.4,0-8.7,0-13.4,0c0,2.4,0,4.5,0,6.7c-1.9,0.2-3.5,0.4-5.1,0.6c0,0,0,0,0,0
		c-0.6,0-1.2,0-1.7,0.1c-0.3,2.2-0.6,4.4-0.9,6.9c-1,0-2,0-2.9,0c-3.4,0-3.6,0.2-3.6,3.6c0,3.3-0.1,6.5-0.1,9.8
		c-0.2,0.2-0.4,0.3-0.5,0.5c-0.6,0-1.2,0-1.7,0c-1.1-0.5-2.2-1.1-3.5-1.7c0-4.5-0.1-9.1,0.1-13.7
		C205.3,125.4,205.9,123.6,206.3,121.8z"/>
	<path class="st7" d="M316.1,206.3c-0.4-1.6-1.1-3.2-1.1-4.8c0-2.4-0.8-3.4-3.2-3.3c-1.1,0-2.3,0-3.6,0c0-7,0-13.6,0-20.6
		c2.1-0.1,4.1-0.2,6.5-0.3c0.3-2.1,0.5-4.3,0.8-6.6c4.1,0,8.5,0,13.1,0c0,6.7,0,13.2,0,19.6c1,0.8,1.7,1.4,2.5,2
		c-0.4,1-1.1,1.9-1.2,2.9c-0.1,6-0.1,12-0.1,18c-2.5,0-5.1,0-7.9,0c0-2.4,0-4.4,0-6.8C319.8,206.3,317.9,206.3,316.1,206.3z"/>
	<path class="st8" d="M334.5,192.2c3-2.7,1.9-6.5,2.1-9.7c0.4-7.4,0.2-14.9,0.2-22.4c0.3,0.9,0.8,1.8,0.8,2.8c0.1,5.9,0,11.7,0,17.6
		c0,1.1,0.1,2.3,0.2,3.3c4,0.9,4.8,0.3,4.8-3.6c0-6.7,0-13.5,0-20.2c0-1,0.1-2.1,0.2-3.2c2.5-0.3,4.8-0.7,7.2-0.6
		c0.5,0,1.3,1.5,1.4,2.4c0.2,1.5,0.1,3,0.1,4.7c2.2,0.1,4,0.2,5.9,0.4c0,9.6,0,18.9,0,28.5c-1.9,0.1-3.6,0.2-5.2,0.3
		c-0.5,2.3-1,4.5-1.5,6.7c-1.6,0-3.3-0.1-4.9,0c-2.3,0.1-3.1-1-3.1-3.1c0-1.2-0.1-2.4-0.2-3.9C339.6,192.2,337,192.2,334.5,192.2z"
		/>
	<path class="st9" d="M309,298.6c1,0,2.1,0,2.9,0c-0.3,1.8-0.5,3.4-0.8,5.2c3.6,0,6.9,0,10.5,0c-2.2,9.9-0.4,20.2-0.9,30.3
		c-1.5,0.2-2.3,0.3-2.9,0.4c0,3.7,0,7.3,0,11c-1.4,0.4-3,0.8-4.3,1.1c-1.4-0.3-2.7-0.7-4-0.7c-97,0-193.9,0-290.9,0
		c-1.1,0-2.2,0.5-3.2,0.7c-0.6,0.1-1.3,0.4-1.9,0.3c-1.8-0.1-3.7-0.2-5.7-0.4c-2.8-11.5-0.7-23.3-1.4-34.9c-0.1-1.5-1-3-0.8-4.3
		c0.2-1.4,1.4-2.6,2.6-3.5c-0.2-1.2-0.5-2.5-0.7-3.6c5.4,0.3,10.5,0.6,15.5,0.8c-0.1-0.4-0.1-0.7-0.2-1.1c1.3-0.5,2.6-1.4,3.9-1.4
		c6.1-0.2,12.3-0.1,19-0.1c-0.4-10.7,0.8-21.2-1.1-31.7c2-0.2,3.9-0.6,5.9-0.6c16,0,31.9,0,47.9-0.1c2.4,0,4.7-0.6,7.6-1
		c-0.6-2.3-1.4-3.8-1.4-5.4c-0.1-11.1-0.9-22.2,0.2-33.2c0.8-8,0.4-15.9,0.8-23.9c0.1-1.1-0.3-2.2-0.5-3.4c0.3,0,0.7-0.1,1-0.1
		c0.1,0,0.2,0.1,0.3,0.1c0.1,2.3,0.1,4.7,0.2,7c0,1.7,0,3.4,0,5.1c0,4.5,0,8.9,0,13.4c0,6.1,0,12.2,0,18.4c0,7,0,13.9,0,20.9
		c0,0.7,0,1.5,0,2.2c-0.3,2.1-2,1.1-3,1.1c-17,0.1-34,0.1-51,0.1c-1.7,0-3.4,0-5.2,0c0,10.6,0,20.8,0,31.1l0,0
		c-0.2,0.2-0.4,0.4-0.6,0.6c0,0,0-0.1,0-0.1c-6.1,0-12.3,0-18.4-0.1c-1.3,0-2.6-0.1-2.3,1.9c-0.9,0.4-1.8,1.1-2.8,1.1
		c-4.2,0.1-8.4,0.1-13,0.1c0.9,2.8-1,3.2-2.6,3.7c0,12.2,0,24.2,0,36.1c1,0.4,2.5,0.7,2.5,1.2c0.4,2.8,2.5,2.3,4.2,2.3
		c98.2,0,196.4,0,294.7,0c1.6,0,3.3,0,4.9,0c1.8,0.1,2.6-0.6,2.6-2.6c-0.1-3.2,0-6.3,0-9.5c0.9-0.1,1.8-0.2,2.8-0.3c0-2,0-3.8,0-5.5
		c0-0.4,0-0.8,0-1.1c0-7,0-13.9,0-21.4c-3.2,0-6.1,0-9.1,0c0-1.6,0.1-2.8,0-3.9c-0.1-0.7-0.7-1.3-1.1-1.9l0,0
		C309.1,298.9,309.1,298.7,309,298.6z"/>
	<path class="st10" d="M219.1,163.5c1.9,0,3.8,0,6.1,0c0.1-2.3,0.3-4.4,0.4-6.9c2.2,0,4.3,0,6.7,0c0-2.4,0-4.5,0-6.9
		c4.7,0,9.1,0,13.7,0c0.1-2.4,0.2-4.5,0.3-6.8c2.1-0.1,4.2-0.2,6.6-0.3c0.1-2.2,0.2-4.3,0.4-6.5c2.2-0.3,4.3-0.7,6.7-1
		c0-1.9,0-3.8,0-6.1c2.4-0.4,4.5-0.7,6.9-1c0.1-1.8,0.2-3.7,0.4-6.3c2.8,0.3,5.4,0.6,8,0.9c0,2.1,0,4.1,0,6.2
		c-2.2,0.3-4.4,0.7-7,1.1c0,2,0,4,0,6.3c-2.4,0.1-4.5,0.2-6.8,0.3c-0.1,2.2-0.2,4.3-0.3,6.6c-2.2,0.1-4.2,0.2-6.6,0.3
		c-0.1,2.1-0.2,4.2-0.3,6.6c-2.3,0.1-4.5,0.2-7,0.3c0,2.3,0,4.5,0,7.1c-1.6,0.1-3,0.2-4.4,0.2c-1.9,0-3,0.6-2.4,2.7
		c0.2,0.6,0.1,1.3,0.2,2c0.1,1.6-0.7,2.3-2.2,2.2c-1.6,0-3.2,0-5.2,0c0,2.4,0,4.5,0,7c-4.7,0-9.1,0-13.5,0c-0.3-0.8-0.7-1.5-1-2.3
		c0.1-1.9,0.1-3.8,0.2-5.7C218.7,163.5,218.9,163.5,219.1,163.5z"/>
	<path class="st7" d="M294.1,37.7c0-4.5,0-9,0-13.8c2.2-0.1,4.4-0.2,6.9-0.3c0-2.3,0-4.5,0-6.7c4.9,0,9.7,0,14.8,0
		c0.1,2.3,0.2,4.3,0.3,6.7c2.1,0.1,4.2,0.2,6.6,0.3c0.1,2.3,0.2,4.5,0.3,6.7c-0.4,0.6-0.8,1.2-1.2,1.7c0,1,0,2,0,3
		c0,0.8-0.1,1.5-0.1,2.3c-4.5,0-8.9,0-13.7,0c0,2.5,0,4.6,0,6.9c-2.4,0-4.5,0-6.5,0l-0.1,0c-0.1-0.4-0.1-0.9-0.2-1.3
		c0-1.5,0-2.9,0-4.4c-0.6-0.4-1.2-1.1-1.9-1.1C297.6,37.6,295.8,37.7,294.1,37.7z"/>
	<path class="st10" d="M57.9,240.8c0.3-0.1,0.5-0.3,0.8-0.4c5.1-1.1,6-0.4,6.1,4.7c0,0.5,0.1,0.9,0.2,2c6.7,0,13.4,0,20.6,0
		c0-2.3,0-4.3,0-6.4c1.8,0,3.6-0.1,5.3,0c1.8,0.1,2.4-0.7,2.1-2.3c-0.2-2.2,1.1-4.8-1.5-6.5c-3.7,1.7-5.4,0.6-5.4-3.4
		c0-0.8,0-1.5,0-2.3c2,0,4,0,6,0c0.5-4.2,0.9-8.2,1.4-12.1c0.1,1.6,0.2,3.2,0.3,5.1c1.2,0.1,2.2,0.1,3.2,0.1c3.4,0,3.5,0.1,3.5,3.6
		c0,5.9,0,11.9,0,18.1c-2.3,0.1-4.3,0.2-6.7,0.3c0,4.4,0,8.8,0,13.4c-5.2,0-10,0-14.9,0c-0.1-0.8-0.2-1.5-0.2-2.3
		c-0.1-4.5-0.1-4.5-4.5-4.3c-0.5,0-0.9,0.1-1.7,0.2c-0.1,2.1-0.2,4.2-0.3,6.5c-2.6,0-5.1,0-7.7,0c0.1-2.1,0.2-4.1,0.3-6.5
		c-2.3-0.1-4.5-0.3-6.9-0.4C57.9,245.6,57.9,243.2,57.9,240.8z"/>
	<path class="st10" d="M106.3,199.2c-0.3,0-0.7,0.1-1,0.1c-1.6,0-3.2,0-5.1,0c0,4.6,0,8.9,0,13.8c-2.4,0-4.4,0-6.5,0
		c-1.3-0.2-2.6-0.5-3.8-0.6c-3.5-0.1-7.1,0-10.9,0c0-2.3,0-4.4,0-6.9c4.4,0,8.8,0,13.5,0c0-4.9,0-9.4,0-14.3
		c2.4-0.1,4.4-0.2,6.8-0.3c0.1-2.2,0.2-4.3,0.4-6.8c2.2,0,4.1,0,6.1,0c0.2,0.2,0.3,0.4,0.5,0.6C106.3,189.6,106.3,194.4,106.3,199.2
		z"/>
	<path class="st11" d="M189,65.7c1.8-1.1,3.5-2.2,5.3-3.2c0.7-0.4,1.5-0.5,1.9-0.6c1,1.7,1.8,3,2.7,4.3c-0.2,2.7-0.4,5.7-0.6,8.6
		c-0.1,1.7,0.7,3,2.3,3c1.6,0,2.3-1.4,2.3-3c0-4.5,0-8.9,0-13.4c0-2.1,0.7-3.2,3-3.1c3.7,0.1,7.5,0,11.1,0c0.7-0.8,1.4-1.6,2-2.3
		c0.1,0.7,0.2,1.3,0.3,2.3c2.1,0,4.2,0,7,0c-0.1,2.7-0.3,5.1-0.4,7.5c-2.4,0-4.9,0-7.4,0c0,4.7,0,9,0,13.3c-0.2,0.2-0.4,0.4-0.6,0.6
		c-2.2-0.1-4.5-0.2-6.7-0.4c0-4.4,0-8.8,0-13.6c2.5,0,4.8,0,7.1,0c0-2.5,0-4.5,0-6.8c-4.6,0-9,0-13.9,0c0,6.9,0,13.7,0,20.6
		c-2.5,0-4.7,0-7.3,0c0-4,0-8,0-11.9c0.4-1.4-0.2-1.9-1.6-1.8c-1.8,0.1-3.6,0.1-5.4,0.1C189.7,65.9,189.4,65.8,189,65.7z"/>
	<path class="st12" d="M218.4,169.2c0.3,0.8,0.7,1.5,1,2.3c-0.1,29.2-0.2,58.4-0.3,87.7c0,1.3,0,2.7,0,4c0.1,3.5,0.6,4,4,4
		c0.6,0,1.1,0.1,1.7,0.1c0.7,0.4,1.5,1.1,2.2,1.1c15.4,0.1,30.8,0.1,46.2,0c0.8,0,1.5-0.7,2.3-1c0.5,1,1.1,1.9,1.6,2.9
		c-0.1,0.1-0.3,0.2-0.4,0.3c0.8,0.4,1.7,0.8,2.9,1.4c0,8.7,0,17.6,0,26.5l-0.1,0.1c-1.7,0-1.7-1.2-1.7-2.4c0-4.6,0-9.2,0-13.8
		c0-0.7-0.1-1.5,0.3-1.9c2.2-2.6-0.5-4.6-0.8-6.9c-0.2-1.2-1.8-2.2-2.7-3.3c0.1-0.2,0.3-0.4,0.4-0.6c-9.3,0-18.6,0.1-27.9,0
		c-9.3-0.1-18.7,0.6-28.1-0.4c-0.1,1.1-0.2,2.4-0.4,3.6c-0.3,0-0.6,0-0.9,0c0-3,0-6,0-9.1c0-28.8,0-57.7,0-86.5
		c0-1.5-0.5-3.2-1.1-4.5c-1.1-2.4-1.3-2.3,1.2-3.4l0.2,0C218.1,169.3,218.4,169.2,218.4,169.2z"/>
	<path class="st13" d="M273.4,137c0.1,5.8,0.3,11.7,0.2,17.5c0,0.9-1.4,2-2.4,2.5c-1.1,0.5-2.4,0.4-3.9,0.6c0,6.9,0,13.6,0,20.4
		c-2.3,0.2-4.4,0.3-7,0.5c0,3.9,0,7.7,0,11.6c-1.3,0.4-2.5,0.8-3.8,1.2c-1,0.3-2,0.7-3,1.1c0,0,0,0,0,0c-0.2,1.1-0.5,2.1-0.5,3.2
		c-0.1,3.1,0,6.2,0,9.4c-1.3,0-2.2,0-3,0c0.7-0.5,1.5-1,2.6-1.8c-0.4-3.9-0.9-8-1.3-11.7c2-2.9,4.6-0.7,6.8-1.5c0-3.9,0-7.8,0-12
		c2.7-1.1,5.3-2.2,8-3.2c0-0.2,0-0.5,0-0.7c-2.8,0-5.6,0-8.4,0c0-0.3,0-0.6,0-0.9c2.7,0,5.4,0,8.5,0c0-6.6,0-12.9,0-19.2
		c1.9,3.5,3.7,0.8,5.5,0.3c0.1-2.8,0.4-5.7,0.4-8.5c-0.1-2.7-0.6-5.5-0.9-8.2c-0.2-1.8,1.1-1.4,2.1-1.5
		C273.3,136.2,273.4,136.6,273.4,137z"/>
	<path class="st14" d="M336.8,58.4c1.8,0,3.6,0,5.6,0c0-4.4,0-8.3,0-12.2c-2-1-3.2-0.5-3.7,1.6c-1-1.3-2-2.3-2.7-3.5
		c-0.6-1.2-1.7-3-1.2-3.7c0.9-1.3,2.6-2.7,4.1-2.9c2.9-0.5,5.9-0.1,8.9-0.1c0.5,0,0.9-0.1,1.2-0.2c0.5-2.1,0.4-4.5,1.6-5.7
		c1.2-1.2,3.6-1.1,5.7-1.6c0-1.5,0-3.2,0-5.2c-5.4,1-7.8-1.2-6.7-6.7c-4.4,0-8.3,0-12.7,0c0.2,1.8,0.3,3.4,0.4,5.1
		c-1.2-0.6-2,3.4-3.9,0.5c1.8-0.2,2.5-1.2,2.4-2.9c0-1.2,0-2.4,0-4.1c5,0,9.7-0.1,14.3,0.1c0.5,0,1.2,1.1,1.3,1.8
		c0.2,1.5,0.1,3,0.1,4.8c2.1,0.1,3.9,0.2,5.9,0.3c0,2.6,0,5.1,0,7.8c-1.9,0.1-3.6,0.2-5.9,0.3c0,1.5-0.1,2.9,0,4.3
		c0.1,1.8-0.6,2.5-2.3,2.4c-2.7,0-5.4,0-8.1,0c-4.1,0-4.3,0.3-3.6,4.1c0.1,0.5,0.3,0.9,0.4,1.5c1.9,0.1,3.8,0.2,5.7,0.3
		c0,4.8,0,9.6,0,14.8c-1.6,0-2.8,0.1-4,0C338.6,59.3,337.7,58.8,336.8,58.4z"/>
	<path class="st15" d="M125.5,30.8c-1.4,0.5-2.9,0.9-4.9,1.6c0.4,2.7,0.8,5.4,1.3,8.1c0.5,2.6-1.1,4.2-2.3,5.9
		c-1.5-0.3-2.7-0.5-3.9-0.8c-0.6,2.9-1.2,5.5-1.7,7.8c-2.5,0-4.5-0.5-6.1,0.2c-0.8,0.4-0.7,2.8-1.1,4.9c4.8,0,9,0,13.2,0
		c-0.1,0.1-0.1,0.3-0.1,0.4c-4.3,0-8.6,0-13.3,0c0,2.5,0,4.8,0,7c-2.3,0-4.7-0.1-7-0.1c-0.1-2.3-0.2-4.7-0.3-7.4c2.5,0,4.6,0,6.7,0
		c0.2-2.4,0.4-4.5,0.6-6.8c2.1-0.1,4.1-0.2,6.3-0.3c0.3-2.2,0.5-4.3,0.8-6.7c2,0,3.9,0,6,0c0.2-2.5,0.5-4.7,0.6-7
		c0.1-2.2,0-4.5,0-6.9C122.2,30.8,123.9,30.8,125.5,30.8z"/>
	<path class="st13" d="M336.8,58.4c0.9,0.4,1.8,0.9,2.8,1.1c1.2,0.2,2.4,0,4,0c0-5.2,0-10,0-14.8c0.7,0.1,1.4,0.2,1.7,0.2
		c0,5,0,9.6,0,14.5c-1.4,1.3-7.9,2-9.4,0.7c-0.6-0.5-1.1-1.5-1.2-2.4c-0.2-1.1-0.1-2.3-0.1-3.6c-1.3,0-2.3,0-4,0
		c0.7,1.4,1.4,2.5,1.9,3.6c-0.7,0.8-1.5,1.7-2.5,2.9c-1.5,0-3.5,0-5.3,0c-2.4,2.6,2.2,2.2,1.5,3.7c-1.3,0.4-2.3,0.6-3.3,0.9
		c0-1.8,0-3.6,0-5.8c1.4,0,2.7-0.1,3.9,0c2,0.1,3-0.8,2.9-2.9c0-1.3,0.1-2.7,0.1-4c1.9,0,3.9,0,5.8-0.1c0.1,0.1,0.2,0.1,0.4,0.1
		C336.3,54.6,336.5,56.5,336.8,58.4L336.8,58.4z"/>
	<path class="st9" d="M334.5,192.2c2.6,0,5.1,0,8,0c0.1,1.5,0.2,2.7,0.2,3.9c0,2.1,0.8,3.2,3.1,3.1c1.6-0.1,3.3,0,4.9,0
		c-1.5,2.7-2.3,2.9-4.7,1.8c-1.8,1.4-3.4,2.7-5,3.9c-0.3-0.3-0.5-0.6-0.8-0.9c0.7-0.7,1.4-1.4,2.4-2.3c-0.4-2-0.7-4.4-1.4-6.7
		c-0.2-0.7-1.4-1.5-2.2-1.5c-2.5-0.2-5-0.1-7.9-0.1c0,3.2,0,6.2,0,9.1c0,2.8,0.1,5.6,0,8.4c0,0.7-0.8,1.4-1.2,2.1c0-6,0-12,0.1-18
		c0-1,0.8-1.9,1.2-2.9C332.2,192.2,333.3,192.2,334.5,192.2z"/>
	<path class="st16" d="M275.6,267.5c-0.8,0.4-1.5,1-2.3,1c-15.4,0.1-30.8,0.1-46.2,0c-0.8,0-1.5-0.7-2.2-1.1
		C241.7,267.4,258.6,267.5,275.6,267.5z"/>
	<path class="st14" d="M274.6,185.6c0.4-3.5,3.4-2.1,4.8-2.6c0.8-1.8,1.4-3.2,2-4.6c0,1.8,0,3.7,0,5.7c2.1,0,3.9,0,5.7,0l0.2,0.2
		c-0.6,0.4-1.1,0.9-1.8,1c-2.5,0.5-4.1,2.4-4.1,4.9c0,5.3,0,10.5,0,15.8c-1.7,0.2-1.2-1.1-1.2-1.9c0-4.9,0-9.8,0-14.7
		c0-4-0.5-4.4-4.7-3.6c-0.2,0-0.4,0-0.5,0.1C274.9,185.9,274.8,185.7,274.6,185.6z"/>
	<path class="st17" d="M250,205c0.8,0,1.7,0,3,0c0-3.2,0-6.3,0-9.4c0-1.1,0.4-2.2,0.5-3.2c0,4.4,0,8.8,0,13.5
		c-2.4,0.1-4.4,0.3-6.9,0.4c0,1.6-0.2,3.2,0.1,4.6c0.2,0.8,1.2,2.1,1.9,2c3.9,0,7.9,1,11.8-1.3c0-1.1-0.1-2.5,0.1-3.8
		c0.1-0.5,0.7-1,1.1-1.5c0,1.7,0.3,3.5-0.1,5.1c-0.2,1-1.5,2.5-2.3,2.6c-3.7,0.3-7.5,0.2-11.2,0.1c-0.7,0-1.3-0.7-1.9-1
		c0-2.6,0-5.3,0-7.9C247.5,205.1,248.7,205,250,205z"/>
	<path class="st12" d="M309,298.6c0.1,0.2,0.1,0.3,0.1,0.5c-4.4,0.4-8.9,0.9-13.3,1.2c-3.6,0.2-7.3-0.1-10.9,0.4
		c-2.4,0.3-4-0.1-5.4-2l0.1-0.1C289.4,298.6,299.2,298.6,309,298.6z"/>
	<path class="st2" d="M317.2,101.5c1.3-0.7,2.6-1.5,4.3-2.5c0-5.7,0-12,0-18.3c-1.9-0.4-3.7-0.7-5.5-1.1c2.2,0,4.3,0,6.7,0
		c0,7.4,0,14.4,0,21.8C320.9,101.5,319,101.5,317.2,101.5z"/>
	<path class="st17" d="M287.3,72.2c6.8,0,13.5,0,20.4,0c0.5-1.2,0.9-2.3,1.3-3.4c0,1.3,0.1,2.6,0.1,3.8c-0.4,0.3-0.8,0.6-1.3,0.8
		c-2.3,0-4.6,0-6.8,0c-3.8,0-7.6,0-11.3-0.2c-1,0-1.9-0.4-2.9-0.7C287,72.5,287.1,72.4,287.3,72.2z"/>
	<path class="st18" d="M99.6,86.7c0-4.6-0.1-9.2-0.1-13.8c0.1-0.2,0.1-0.4,0.2-0.6c0.2,2.4,0.4,4.9,0.5,7.3c0.1,2,0,4,0,6.3
		c2.3,0.1,4.4,0.2,6.7,0.3c0.1,1.1,0.2,2.1,0.2,3c0.1,3,0.7,3.7,3.7,3.8c1.1,0,2.1,0,3.2,0c0.1,0.2,0.1,0.3,0.1,0.5
		c-2.4,0-4.8,0-7.4,0c0-1.4,0-2.4,0-3.4c0-1.1,0-2.2,0-3.3c-1.7,0-2.9,0-4.1,0c-0.4,0-0.8,0-1.1,0C100.7,86.8,100.1,86.7,99.6,86.7z
		"/>
	<path class="st17" d="M232.4,72.5c-2.2,0.1-4.4,0.3-6.9,0.4c0,4.6,0,9,0,13.9c-2,0-3.7,0.1-5.4,0c-1.3-0.1-1.7,0.5-1.8,1.6
		c-0.1,0.1-0.3,0.1-0.4,0.1c-0.1-1.5,0.4-2.3,2.1-2.2c1.5,0.1,3,0,4.8,0c0-3.8-0.1-7.2,0.1-10.7c0.1-1.4,0.8-2.8,1.2-4.2
		C228.2,71.7,230.3,72.1,232.4,72.5z"/>
	<path class="st17" d="M274.6,185.6c0.2,0.1,0.3,0.2,0.4,0.4c0,9,0.1,18,0.1,27c-0.5,0-1.1,0.1-1.6,0.1c0.4-1.5,1-3,1.1-4.6
		C274.6,201,274.6,193.3,274.6,185.6z"/>
	<path class="st17" d="M307.9,119.5c0-1.7,0-3.4,0-5.7c2.4,0,4.7,0,6.9,0c0.4,0,0.8,0.1,1.2,0.1c0,0.7,0,1.5,0,2.2
		c-2.2-0.5-4.4-1-6.4-1.4C308.9,116.7,308.4,118.1,307.9,119.5z"/>
	<path class="st8" d="M275,213.1c0-9-0.1-18-0.1-27c0.2-0.1,0.3-0.1,0.5-0.1c0,8.2,0,16.5,0,24.7C275.5,211.5,275.2,212.3,275,213.1
		z"/>
	<path class="st2" d="M316,113.9c-0.4,0-0.8-0.1-1.2-0.1c0-3.6,0-7.2,0-10.8c0-0.6-0.4-1.9,1.1-1.3C316,105.8,316,109.8,316,113.9z"
		/>
	<path class="st15" d="M137,23.8c-0.8,0.4-1.5,1-2.3,1c-2.2,0.1-4.3,0-6.5,0c-0.3,2.1-0.6,4-0.9,5.8c0-2.2,0-4.4,0-6.9
		C130.8,23.8,133.9,23.8,137,23.8z"/>
	<path class="st19" d="M273.4,137c0-0.4-0.1-0.7-0.1-1.1c1.5,0,3-0.1,4.5-0.1c0.8,0.4,1.5,0.8,2.3,1.3c-0.7,0.4-1.5,1.1-2.2,1
		C276.4,137.9,274.9,137.3,273.4,137z"/>
	<path class="st18" d="M218.4,79.1c0-4.3,0-8.6,0-13.3c2.6,0,5,0,7.4,0c0,0.2,0,0.4,0,0.6c-2.2,0-4.3,0-6.9,0c0,3.5,0,6.6,0,9.7
		C219,77.2,218.6,78.2,218.4,79.1z"/>
	<path class="st18" d="M99.5,65.9c2.3,0,4.7,0.1,7,0.1c0,0,0-0.1,0-0.1c0,4.4,0,8.8,0,13.2c-0.2-1.5-0.5-3.1-0.6-4.6
		c-0.1-2.5,0-5.1,0-7.9c-2.3,0-4.3,0-6.3,0C99.5,66.3,99.5,66.1,99.5,65.9z"/>
	<path class="st9" d="M275.1,128.8c0-2.1,0-4.1,0-6.2c1.7,0,3.3,0,5-0.1c0,0.2,0,0.4,0,0.6c-1.4,0-2.8,0-4.2,0
		C275.6,125.2,275.4,127,275.1,128.8z"/>
	<path class="st13" d="M246.2,205.2c0,2.6,0,5.3,0,7.9C246.1,210.5,246.2,207.8,246.2,205.2z"/>
	<path class="st19" d="M321.9,32.4c0.4-0.6,0.8-1.2,1.2-1.7c0.3,0,0.7,0.1,1,0.1C323.3,31.3,322.6,31.9,321.9,32.4z"/>
	<path class="st19" d="M326.3,30.8c-0.4,0-0.7,0-1.1,0C325.6,30.8,326,30.8,326.3,30.8z"/>
	<path class="st15" d="M127.2,30.8c-0.2,0-0.4,0-0.6,0.1C126.8,30.8,127,30.8,127.2,30.8z"/>
	<path class="st14" d="M294,177.2c-0.6,0.4-1.2,1.1-1.8,1.2c-1.1,0.2-2.3,0.1-2.7,0.1c-0.9,2.2-1.6,4.1-2.3,5.9l-0.2-0.2
		c0-1.8,0-3.7,0-5.6c-1.5-0.1-2.8-0.2-4-0.2c0.8-1.2,1.6-2.3,2.5-3.5c-0.2-0.2-0.3-0.4-0.5-0.6c0.6,0.1,1.1,0.3,1.9,0.5
		c0-1.3,0-2.5,0-3.9c-0.6,0.1-1.2,0.2-1.7,0.4c-0.1-0.1-0.3-0.3-0.4-0.4c0.6-0.7,1.2-1.4,1.8-2.1c0-0.6,0-1.5,0-2.6
		c-0.3-0.1-0.9-0.4-1.4-0.7c1.4-0.9,2.7-1.8,4-2.6c-0.1-0.2-0.1-0.4-0.2-0.6c1.6,0.2,3.1,0.4,4.8,0.7c1.2-2.1-1.6-6.3,2.5-7.3
		c2.4-0.6,5.2-0.3,6.2,1.9c0,2.3,0,4,0,5.9c-0.3,0-1,0-1.6,0.1c0-1.9,0-3.7,0-5.5c-2.1,0-3.8,0-5.6,0c0,1.9,0,3.6,0,5.5
		c2,0,3.8,0,5.6,0c-1.1,0.6-2.2,1.5-3.4,1.7c-1.1,0.2-2.3-0.3-3.5-0.4c-1.9,0-3.7,0-5.6,0c0,4.5,0,8.4,0,12.6
		C290.4,177.2,292.2,177.2,294,177.2z"/>
	<path class="st20" d="M294,177.2c-1.8,0-3.6,0-5.6,0c0-4.2,0-8.1,0-12.6c1.9,0,3.7,0,5.6,0C294,168.9,294,173.1,294,177.2z"/>
	<path class="st9" d="M283.1,178.4c1.2,0.1,2.4,0.1,4,0.2c0,1.9,0,3.7,0,5.6c-1.8,0-3.5,0-5.7,0c0-2,0-3.8,0-5.7
		C281.9,178.5,282.5,178.4,283.1,178.4z"/>
	<path class="st17" d="M253.6,192.3c1-0.4,2-0.8,3-1.1c1.2-0.4,2.5-0.8,3.8-1.2c0.3,1.6-0.4,2.2-2,2.2
		C256.8,192.2,255.2,192.3,253.6,192.3z"/>
	<path class="st17" d="M287.2,115.1c0-0.3,0-0.7,0.2-0.8c1.6-1,5.7-0.5,6.6,0.7C291.8,115.1,289.5,115.1,287.2,115.1z"/>
	<path class="st14" d="M299.5,151.1c0.1,0.5,0.1,1.1,0.2,1.6c-0.1,0.1-0.3,0.1-0.4,0.2c-0.2-0.3-0.5-0.6-0.5-0.9
		c0-0.3,0.2-0.6,0.3-0.9C299.2,151.1,299.4,151.1,299.5,151.1z"/>
	<path class="st14" d="M289.2,160.5c-0.1,0.2-0.1,0.4-0.2,0.4c-0.1,0-0.4-0.1-0.4-0.2c0-0.1,0.1-0.4,0.2-0.4
		C288.9,160.2,289.1,160.4,289.2,160.5z"/>
	<path class="st10" d="M300.9,101.1c-2.2,0-4.3,0-6.7,0c-0.1,2.2-0.2,4.1-0.3,6.2c-2.2,0-4.3,0-6.8,0c0-4.6,0-9.1,0-13.7l0,0
		c2.3,0,4.6-0.1,6.9-0.1l0.1,0.2c0,2.2,0,4.5,0,6.9c2.5,0,4.7,0,6.9,0l0,0C300.9,100.7,300.9,100.9,300.9,101.1z"/>
	<path class="st10" d="M301,73.5c2.3,0,4.6,0,6.8,0c0,4.2,0,8.5,0,12.7c-2.2,0-4.5,0-6.7,0c0,0-0.2-0.1-0.2-0.1
		C301,81.9,301,77.7,301,73.5z"/>
	<path class="st11" d="M300.9,101.1c0-0.2,0-0.4,0.1-0.6c2.3,0,4.6,0,6.8,0.1c0.1,2.2,0.2,4.4,0.3,6.8c-2.4,0-4.5,0-6.9,0
		C301.1,105.3,301,103.2,300.9,101.1z"/>
	<path class="st10" d="M287.1,93.6c-2.2,0-4.3,0-6.7,0c0-2.4,0-4.4,0-6.7c2.1,0,4.1,0,6.7,0C287.1,89.2,287.1,91.4,287.1,93.6
		L287.1,93.6z"/>
	<path class="st2" d="M294,93c0.6-2.2,1.1-4.3,1.9-7c0.3,1.3,0.5,2.3,0.8,3.4c0.9,0,1.8,0,2.4,0c1.7-0.7-1.2-3.5,1.9-3.3l0.2,0.1
		c0,0.2,0,0.4,0,0.6c-0.1,2.1-0.2,4.1-0.3,6.2C298.6,93,296.3,93,294,93z"/>
	<path class="st18" d="M219.1,163.5c-0.2,0-0.3,0.1-0.5,0.1c0-1.4-0.1-2.9-0.1-4.3c0-12.4,0-24.9,0-37.3c0.6,0,1.2,0,1.7-0.1
		c-0.4,1.8-1,3.6-1.1,5.4c-0.1,8.7-0.3,17.5,0,26.2C219.2,156.9,218.7,160.1,219.1,163.5z"/>
	<path class="st15" d="M300.9,93c0.1-2.1,0.2-4.1,0.3-6.2c2.2,0,4.4-0.1,6.6-0.1c0,2.3,0.1,4.6,0.1,7c-2.3,0-4.6,0-6.9,0
		C300.9,93.4,300.9,93.2,300.9,93z M302.3,92.8c1.4,0,2.8,0,4.2,0c0-1.9,0-3.6,0-5.3c-1.5,0-2.8,0-4.2,0
		C302.3,89.3,302.3,90.9,302.3,92.8z"/>
	<path class="st18" d="M220.1,121.9c1.6-0.2,3.2-0.3,5.1-0.6c0-2.2,0-4.3,0-6.7c4.7,0,9,0,13.4,0c-2.9,0.1-5.9,0.3-8.8,0.4
		c-1.1,0-2.3,0-3.7,0c-0.1,2.3-0.2,4.3-0.3,6.9C223.8,121.9,222,121.9,220.1,121.9z"/>
	<path class="st18" d="M301,93.7c2.3,0,4.6,0,6.9,0c-1.2,0.2-2.5,0.6-3.7,0.6c-2.1,0-2.6,1.2-2.6,2.9c0,1.7,0.4,3,2.6,2.9
		c1.2,0,2.5,0.4,3.7,0.6c-2.3,0-4.6,0-6.8-0.1l0,0C301,98.3,301,95.9,301,93.7L301,93.7z"/>
	<path class="st18" d="M300.9,93c0,0.2,0,0.5,0,0.7c0,0,0,0,0,0c-2.3,0-4.6,0.1-6.9,0.1l-0.1-0.2c0-0.2,0-0.3,0.1-0.5
		C296.3,93,298.6,93,300.9,93z"/>
	<path class="st17" d="M307.8,86.7c-2.2,0-4.4,0.1-6.6,0.1c0-0.2,0-0.4,0-0.6c2.2,0,4.5,0,6.7,0C307.9,86.4,307.9,86.5,307.8,86.7z"
		/>
	<path class="st3" d="M134.3,135.7c-0.2,0-0.4,0-0.6,0c-2-0.1-3.9-0.2-5.9-0.3l-0.1-0.2c0.1-6.9,0.1-13.8,0.2-20.8
		c1.9-0.1,3.9-0.1,5.8-0.2c0.3-0.6,0.8-1.1,0.8-1.8c0.2-1.7,0.2-3.4,0.3-5.1c2.1-0.1,4.2-0.1,6.3-0.2c0.3-2,0.5-4,0.8-6.2
		c4.5,0,9,0,13.4,0c0.1,1.9,0.1,3.8,0.2,5.7c0.1,0.2,0.3,0.6,0.4,0.6c4.4,0,8.9,0,13.3,0c0-1.1,0-2,0-2.8c0.1-1.3,0.2-2.7,0.2-4
		c4.6,0,9.1,0,13.7-0.1l0-0.1c0,2.3,0,4.5,0,7.1c2.6,0,4.6,0,7.1,0c0,2.3,0,4.3,0,6.3c2.2,0.2,4.3,0.3,6.5,0.5c0,6.9,0,13.9,0,20.8
		c-2.2-0.2-4.3-0.4-6.5-0.5c0-4.3,0-8.6,0-13.2c-2.6,0.2-4.8,0.4-7,0.6c0,0,0.1,0.1,0.1,0.1c0-1.2,0-2.5,0-3.7
		c0.1,0,0.2-0.1,0.2-0.1c0-0.1-0.1-0.2-0.2-0.3c0-0.4,0-0.8,0-1.3c0.1,0,0.2-0.1,0.2-0.1c0-0.1-0.1-0.2-0.2-0.4
		c0.1-1.7-0.9-1.7-2.2-1.7c-12.7,0-25.5,0-38.2,0c-0.5,0-0.9,0.1-1.5,0.2c-0.1,2.1-0.2,4.1-0.3,6.1c-0.2,0.2-0.5,0.5-0.7,0.7
		c-2,0.1-3.9,0.2-6.2,0.3C134.3,126.6,134.3,131.1,134.3,135.7z"/>
	<path class="st21" d="M183.4,118.4c0,1.2,0,2.5,0,3.7c-2.2-0.1-4.4-0.2-6.6-0.3c-0.2,0.2-0.3,0.4-0.5,0.7c0,2,0,4,0,5.9
		c2.4,0,4.5,0,7,0c0-2.2,0-4.3,0-6.4c2.2-0.2,4.4-0.4,7-0.6c0,4.7,0,9,0,13.2c0,0.3,0,0.6-0.1,0.9c-6.8,0-13.6,0-20.7,0
		c-0.1-2.2-0.2-4.3-0.3-6.6c-4.5,0-8.9,0-13.6,0c-0.1,2.1-0.2,4.2-0.3,6.7c-7.1,0-14.1,0-21,0c0-4.6,0-9.1,0-13.9
		c2.3-0.1,4.2-0.2,6.2-0.3c0.4,2.3,0.9,4.6,1.3,7c2.1,0,4.3,0,6.6,0c0-2.3,0-4.4,0-6.9c-1.4,0-2.6,0.1-3.8,0
		c-1.1-0.1-2.3-0.5-3.4-0.8c0.1-2,0.2-4,0.3-6.1c0.6-0.1,1-0.2,1.5-0.2c12.7,0,25.5,0,38.2,0c1.3,0,2.3,0,2.2,1.7
		c-0.1,0.2-0.1,0.3,0,0.5c0,0.4,0,0.8,0,1.3C183.3,118.1,183.3,118.3,183.4,118.4z"/>
	<path class="st11" d="M109.3,142.6c2.4-0.2,4.7-0.4,7.1-0.4c2.3,0,3.5-0.7,3.4-3.3c-0.2-5.6-0.1-11.3-0.1-16.9
		c0.3,0.9,0.7,1.7,0.7,2.6c0.1,5.3,0,10.5,0,15.8c0,1.2-0.1,2.4,1.6,2.5c0.3,0.6,0.5,1.3,0.9,2.1c-0.6,0-1.2,0-1.9,0
		c0,1.2,0,2.2,0,3.4c2.6-0.2,5.1-0.5,7.6-0.7c3.4-0.2,4.6-1.3,5-4.8c0.3,0.7,0.8,1.3,0.9,2c0.1,1.4,0,2.8,0,4.7c2.4,0,4.5,0,6.9,0
		c0,2-0.1,3.6,0.1,5.2c0.1,0.7,0.8,1.3,1.3,2c-0.3,1-0.8,2-0.8,3c0,1.2,0.5,2.5,0.8,3.7c-1.5,0.3-1.5-0.6-1.5-1.7c0-1.7,0-3.3,0-5.2
		c-2.5,0-4.6,0-7,0c0-2.4,0-4.5,0-6.8c-4.9,0-9.5,0-14,0c-0.2-1.2-0.5-2.4-0.5-3.7c0-2.3-1.1-3.3-3.3-3.3
		C114.1,142.7,111.7,142.6,109.3,142.6z M133.4,147.8c-0.2-0.1-0.4-0.2-0.5-0.2c-0.1,0-0.1,0.3-0.2,0.5c0.2,0.1,0.4,0.2,0.5,0.2
		C133.3,148.2,133.3,147.9,133.4,147.8z"/>
	<path class="st21" d="M189,65.7c0.4,0.1,0.7,0.1,1.1,0.2c0.1,0.7,0.1,1.5,0.2,2.2c0,2.7,0,5.5,0,8.2c-0.1,0.9-0.3,1.8-0.4,2.8
		c-2.3,0-4.4,0-6.5,0c0-2.1,0-4.1,0-6.3c-2.6,0-4.8,0-7.1,0c0-2.3,0-4.7,0-7c0.4-0.1,0.8-0.1,1.2-0.2c1,0,1.9,0,2.9,0l0.3,0.1
		l0.3-0.1c1.5,0,3.1,0,4.6,0c0.8,0,1.5,0,2.3,0C188.2,65.7,188.6,65.7,189,65.7z"/>
	<path class="st10" d="M140.9,86.5c-1.9,0-3.8,0-5.9,0c0-2.3,0-4.5,0-6.7c0.2,0,0.4,0,0.7-0.1c1.9,0,3.9-0.1,5.8-0.1
		c2.4,0,4.8,0,7.1,0c2.3,0,4.6,0,6.9,0c0,2.3,0,4.5,0,7.1c-2.6,0-4.7,0-6.9,0l-0.2,0.1c-1.9-0.2-3.8-0.4-5.7-0.6
		C142.1,86.4,141.5,86.4,140.9,86.5z"/>
	<path class="st11" d="M206.3,121.8c-0.4,1.8-1,3.6-1.1,5.4c-0.2,4.6-0.1,9.2-0.1,13.7c1.3,0.6,2.4,1.2,3.5,1.7
		c-4,0.2-3.9,0.2-3.7,4.3c0.1,0.9-0.3,1.9-0.4,2.8c-4.7,0-9.4,0-14.2,0c-0.1,0.9-0.2,1.6-0.3,2.3c-0.4-0.8-0.8-1.5-1.1-2.3
		c0.4-0.7,1.1-1.4,1.2-2.2c0.2-1.5,0.1-3,0.1-4.8c4.7,0,9.1,0,14,0c0-2.5,0-4.6,0-6.8c0-4,0-8,0-12.1
		C204.2,122.3,204.5,121.3,206.3,121.8z"/>
	<path class="st10" d="M190.2,80.3c0,2,0,4,0,6.2c-2.2,0.1-4.1,0.3-6.3,0.4c0,2.1,0,4.1,0,6.1c-0.1,0.1-0.3,0.1-0.5,0.1
		c-0.1-2.1-0.2-4.2-0.4-6.4c-2.2,0-4.4,0.1-6.6,0.1l-0.1,0c-2.2,0-4.5,0-6.9,0c0-2.2,0-3.8,0-5.4c2.1-0.5,4.2-1.1,6.3-1.6
		c0.2,0,0.4-0.1,0.6-0.1c0.2,0.1,0.4,0.2,0.6,0.3C181.3,80,185.7,80.1,190.2,80.3z"/>
	<path class="st12" d="M120.1,58.5c3,1.2,2.6,3.2,2.1,6.1c-0.7,4.6-0.2,9.4-0.2,14.3c1.1,0.1,2,0.2,2.8,0.3c3.3-4.8,1.1-10.3,1.6-15
		C133,64,139,63.8,145,63.6c2.2-0.1,2.7-1.5,2.4-2.9c-3.1,0-6,0.1-8.8-0.1c-0.5,0-1-1.2-1.5-1.8c3.8,0.1,7.6,0.2,11.5,0.2
		c0,2.3,0,4.6,0.1,6.9l0,0c-4.8,0-9.6,0-14.5,0.1c-2.2,0-4.3,0-6.9,0c0,4.6,0,9,0,13.8c-2.3,0-4.2,0-6.1,0c-0.3-0.2-0.6-0.4-0.9-0.6
		C120.2,72.3,120.2,65.4,120.1,58.5z M145.6,64.6c0-0.1,0-0.2,0-0.3c-2.6,0-5.3,0-7.9,0c0,0.1,0,0.2,0,0.3
		C140.3,64.6,142.9,64.6,145.6,64.6z"/>
	<path class="st10" d="M155.5,149.6c0-2.2,0-4.3,0-6.7c4.6,0,9,0,13.8,0c0,2.2,0,4.5,0,6.7l0,0C164.7,149.6,160.1,149.6,155.5,149.6
		L155.5,149.6z"/>
	<path class="st11" d="M106.4,79.1c0-4.4,0-8.8,0-13.2c2.2,0,4.4,0,6.8,0c0,4.7,0,9.3,0,13.9c-2,0-4.1,0-6.1,0
		C106.9,79.6,106.7,79.3,106.4,79.1z"/>
	<path class="st10" d="M190.3,113.9c0-2,0-4,0-6.3c-2.5,0-4.6,0-7.1,0c0-2.6,0-4.8,0-7.1c2.3,0,4.6,0,6.9,0.1
		c0.2,2.4,0.4,4.8,0.6,7.2c2.2-0.1,4.1-0.2,6.3-0.3c0,2.4,0,4.4,0,6.5C194.8,114,192.6,113.9,190.3,113.9z"/>
	<path class="st11" d="M102.4,86.8c1.2,0,2.5,0,4.1,0c0,1.1,0,2.2,0,3.3c0,1,0,2.1,0,3.4c2.6,0,5,0,7.4,0c2.1,0,4.2,0.1,6.3,0.1
		c0,2.3,0,4.5,0,7.1c-2.1,0-4.2,0-6.5,0c0,7,0,13.7,0,20.6c1.7,0.2,3.2,0.3,4.8,0.5c-1.1,2.7-3.4,0.3-4.9,1.5
		c-0.2-0.1-0.5-0.2-0.7-0.3c-0.1-7.1-0.3-14.2-0.4-21.9c1.5-0.6,3.8-1.4,6-2.2c0.2,0.3,0.4,0.6,0.6,0.9c0.1-0.1,0.3-0.2,0.4-0.3
		c-0.3-0.2-0.6-0.4-0.9-0.6c-0.5-1-1-2-1.5-3.2c0.1-0.1,0.7-0.4,1.3-0.7c-0.1-0.3-0.1-0.5-0.2-0.8c-3.9,0.2-7.9,0.4-12,0.6
		C105,92.3,103.7,89.6,102.4,86.8z"/>
	<path class="st10" d="M127.8,114.5c-0.1,6.9-0.1,13.8-0.2,20.8c-0.2-0.6-0.5-1.3-0.5-1.9c0-7.7,0.1-15.4,0-23.2
		c0-1.7,0.4-2.7,2.4-2.7c4.3-0.2,4.3-0.2,4.6-4.8c0-0.5,0.3-1,0.5-1.6c0.1,0.6,0.3,1.2,0.4,1.6c1.4-0.3,2.6-0.5,3.5-0.7
		c0.8,1.1,1.3,1.8,1.9,2.5c0.3,1.7-0.3,2.5-2.2,2.4c-1.2,0-2.4,0.3-3.5,0.5c-0.1,1.7-0.1,3.4-0.3,5.1c-0.1,0.6-0.5,1.2-0.8,1.8
		C131.7,114.4,129.8,114.4,127.8,114.5z M134,109.2c-0.1,0-0.1,0-0.2,0c0,0.6,0,1.1,0,1.7c0.1,0,0.1,0,0.2,0
		C134,110.3,134,109.8,134,109.2z"/>
	<path class="st3" d="M133.6,142.7c-0.4,3.4-1.5,4.5-5,4.8c-2.5,0.2-5,0.4-7.6,0.7c0-1.2,0-2.2,0-3.4c0.7,0,1.3,0,1.9,0
		c-0.3-0.8-0.6-1.4-0.9-2.1C125.9,142.7,129.7,142.7,133.6,142.7z"/>
	<path class="st12" d="M141.3,88.4c0-0.3-0.1-0.5-0.1-0.8l0-0.1l0.2-0.2c0.5-0.2,1-0.4,1.5-0.6c1.8,0,3.7,0.1,5.5,0.1
		c0,0,0.2-0.1,0.2-0.1c0,2.3,0,4.5,0,6.8c-2.3,0-4.6,0.1-6.9,0.1C141.5,91.9,141.4,90.2,141.3,88.4z"/>
	<path class="st12" d="M176.3,156.6c2.3,0,4.6,0,6.9,0l0-0.1c0,2.2,0,4.5,0,7c-2.4,0-4.7,0-6.9,0c0-0.8-0.1-1.6-0.1-2.3
		C176.2,159.6,176.3,158.1,176.3,156.6L176.3,156.6z"/>
	<path class="st10" d="M169.4,149.6c2.2,0,4.3,0,7,0c0,2.5,0,4.7,0,7l0,0c-0.8,0-1.6,0-2.4,0c-1.5-0.1-2.9-0.1-4.6-0.2
		C169.4,153.9,169.4,151.8,169.4,149.6L169.4,149.6z"/>
	<path class="st10" d="M148.5,156.7c0-2.2,0-4.4,0-7c2.6,0,4.8,0,7,0l0,0c0,2.2,0,4.5,0,7C152.8,156.6,150.6,156.6,148.5,156.7
		L148.5,156.7z"/>
	<path class="st12" d="M190.1,100.6c-2.3,0-4.6,0-6.9-0.1l0,0.1c0-0.2,0-0.4-0.1-0.6c0-1.9,0-3.8,0-5.7c0-0.2,0-0.4,0.1-0.7
		l-0.1,0.1c2.3,0,4.6,0,6.9,0C190.1,96,190.1,98.3,190.1,100.6z"/>
	<path class="st10" d="M120.3,93.6c-2.1,0-4.2-0.1-6.3-0.1c0-0.2,0-0.3-0.1-0.5c-1.4-6.1-0.7-6.9,6.4-6
		C120.3,89.2,120.3,91.4,120.3,93.6z"/>
	<path class="st12" d="M189,149.7c0.4,0.8,0.8,1.5,1.1,2.3c0,1.5,0,3,0,4.6c-2.6,0-4.7,0-6.9,0l0,0.1c0-2.2,0-4.4,0-6.9
		C185.3,149.7,187.1,149.7,189,149.7z"/>
	<path class="st12" d="M142.8,163.4c-0.3-1.2-0.8-2.5-0.8-3.7c0-1,0.5-2,0.8-3c1.9,0,3.8,0,5.7,0l0,0c0,2.3,0.1,4.6,0.1,6.9
		C146.7,163.5,144.7,163.4,142.8,163.4z"/>
	<path class="st10" d="M204.6,93.1c0-2,0-4,0-6.2c2.1,0,4,0,6.3,0c0,2,0,4.1,0,6.1C208.8,93.1,206.7,93.1,204.6,93.1z"/>
	<path class="st9" d="M141.3,88.4c0.1,1.7,0.2,3.4,0.3,5.2c0.3,0.3,0.6,0.6,0.9,0.9c-0.3,1.4-0.5,2.9-0.8,4.3
		c-0.4,1.8,0.8,1.8,2,1.8c3.9,0,7.8,0,11.7,0.1c0,0.2,0,0.4-0.1,0.6c-4.5,0-8.9,0-13.4,0c-0.3,2.2-0.6,4.2-0.8,6.2
		c-0.2-0.9-0.4-1.8-0.6-2.8c-0.5-0.7-1.1-1.4-1.9-2.5c-1,0.2-2.2,0.4-3.5,0.7c-0.1-0.4-0.2-1-0.4-1.6c0-0.2-0.1-0.3-0.1-0.5
		c0.1-0.1,0.1-0.1,0.2-0.2c2,0,4.1,0,6.5,0c-0.3-2.6-0.5-4.7-0.7-6.8c0.1-0.6,0.3-1.1,0.4-1.7C141.1,90.8,141.2,89.6,141.3,88.4z"/>
	<path class="st17" d="M121.2,79.7c1.9,0,3.8,0,6.1,0c0-4.7,0-9.2,0-13.8c2.5,0,4.7,0,6.9,0c0.1,3.6,0.1,7.2,0.4,10.8
		c0.1,1,0.7,2,1.1,3c-0.2,0-0.4,0-0.7,0.1c-0.4-1-1.1-2-1.2-3c-0.1-3.3-0.1-6.6-0.1-10.2c-2.1,0-3.8,0-5.9,0c0,4.5,0,8.8,0,13.8
		C125.4,80.1,123.3,79.9,121.2,79.7z"/>
	<path class="st17" d="M204.6,93.1c2.1,0,4.2-0.1,6.3-0.1l0,0.1c0,0.1,0,0.3-0.1,0.4c-2,0-4,0-6.2,0c0,2.4,0,4.4,0,6.9
		c2.1,0,4.2,0,6.7,0c0,4.8,0,9.1,0,13.5c0,2.4-0.3,4.9-0.4,7.3c0-6.6,0-13.2,0-20.1c-2.3,0-4.4,0-7.1,0
		C204.1,98.2,204.3,95.7,204.6,93.1z"/>
	<path class="st18" d="M190.2,80.3c-4.4-0.1-8.9-0.3-13.3-0.4c2.2-0.2,4.3-0.5,6.5-0.7c2.1,0,4.3,0,6.5,0c0.1-1,0.3-1.9,0.4-2.8
		C191.9,77.7,191.6,79,190.2,80.3z"/>
	<path class="st18" d="M120.1,58.5c0.1,6.9,0.1,13.7,0.2,20.6c-0.2-0.8-0.5-1.6-0.6-2.4c0-6,0-11.9,0-17.9c0-0.1,0.1-0.3,0.1-0.4
		L120.1,58.5z"/>
	<path class="st18" d="M190.3,68.2c-0.1-0.7-0.1-1.5-0.2-2.2c1.8,0,3.6,0,5.4-0.1c1.4-0.1,1.9,0.5,1.6,1.8
		C194,66,192.2,65.8,190.3,68.2z"/>
	<path class="st18" d="M210.8,93.6c0-0.1,0-0.3,0.1-0.4c2.2,0,4.4,0,6.7,0c0.1-1.8,0.2-3.2,0.2-4.7c0.2,0,0.3,0,0.4-0.1
		c0,1.6,0,3.2,0,5.2C215.7,93.6,213.3,93.6,210.8,93.6z"/>
	<path class="st9" d="M134.6,100.7c0-2.4,0.1-4.8,0.1-7.2l0,0.3c0,2.2,0,4.5,0,6.7C134.8,100.5,134.7,100.6,134.6,100.7z"/>
	<path class="st18" d="M141,92c-0.1,0.6-0.3,1.1-0.4,1.7c-1.9,0-3.9,0.1-5.8,0.1l0-0.3c1.2-0.2,2.4-0.2,3.5-0.5
		C139.2,92.8,140.1,92.3,141,92z"/>
	<path class="st22" d="M190.3,135.6c0-0.3,0-0.6,0.1-0.9c2.2,0.2,4.3,0.4,6.5,0.5C194.6,135.3,192.5,135.5,190.3,135.6z"/>
	<path class="st17" d="M190.3,113.9c2.2,0,4.4,0.1,6.7,0.1c0,0.2,0,0.3-0.2,0.4C194.7,114.2,192.5,114.1,190.3,113.9z"/>
	<path class="st18" d="M190.1,93.6c-2.3,0-4.6,0-6.9,0c0.1-0.2,0.1-0.4,0.2-0.6c0.2,0,0.3,0,0.5-0.1C185.9,93.2,188,93.4,190.1,93.6
		z"/>
	<path class="st18" d="M211,79.4c2.2,0.1,4.5,0.2,6.7,0.4C215.5,80.5,213.2,81.1,211,79.4z"/>
	<path class="st18" d="M107.1,79.8c2,0,4.1,0,6.1,0C111.2,79.8,109.1,79.8,107.1,79.8z"/>
	<path class="st10" d="M127.8,135.4c2,0.1,3.9,0.2,5.9,0.3C131.7,135.6,129.7,135.5,127.8,135.4z"/>
	<path class="st9" d="M142.9,86.7c-0.5,0.2-1,0.4-1.5,0.6c-0.2-0.3-0.3-0.6-0.5-0.8c0.6-0.1,1.2-0.1,1.8-0.2
		C142.7,86.4,142.8,86.6,142.9,86.7z"/>
	<path class="st9" d="M141.2,87.5l0,0.1c-0.1,0-0.3-0.1-0.4-0.1C140.9,87.5,141.1,87.5,141.2,87.5z"/>
	<path class="st11" d="M177.4,65.7c-0.4,0.1-0.8,0.1-1.2,0.2l0,0.1c0-2.3,0-4.7,0-7.2c2.5-0.1,4.7-0.2,7-0.3c2.3,0,4.5,0,6.8,0
		c0-2.4,0-4.4,0-6.4c0-4.6,0-9.2,0-13.9c0.1-0.2,0.1-0.4,0-0.5c0.6,0,1.3,0.1,2.3,0.1c0,2.9,0.1,5.6,0,8.3
		c-0.3,3.8-0.6,7.7-1.2,11.5c-0.4,2.5-2.6,2.1-4.4,1.9c-1.8-0.2-3.5-0.4-5.4-0.6c-0.6,1.6-0.5,3.6-2.8,3c-0.1-0.9-0.2-1.7-0.3-2.6
		c-0.4,0.1-0.7,0.3-1.1,0.4c0.5,0.7,0.9,1.5,1.4,2.2C178.2,63.2,177.8,64.4,177.4,65.7z"/>
	<path class="st10" d="M148.5,59.1c-3.8-0.1-7.6-0.2-11.5-0.2c-0.6,0-1.1,0-1.7,0c-0.3-0.4-0.9-0.9-0.9-1.3c0-5.9,0.1-11.8,0.1-17.7
		c0,4,0,7.9,0,12.3c2.7,0,4.7,0,6.8,0c-0.1,2.2-0.2,4-0.3,6.3c1.5,0,2.6-0.1,3.7,0C146.1,58.5,147.3,58.8,148.5,59.1z"/>
	<path class="st10" d="M190.1,37.7c0.1,0.2,0,0.4,0,0.5c-17.4,0-34.8,0-52.2,0.1c-1.1,0-2.2,0.4-3.3,0.6c0-0.4-0.1-0.8-0.1-1.1
		C153,37.7,171.6,37.7,190.1,37.7z"/>
	<path class="st12" d="M134.5,37.7c0,0.4,0.1,0.8,0.1,1.1c0,0.3,0,0.7,0,1c-0.1,5.9-0.1,11.8-0.1,17.7c0,0.4,0.6,0.9,0.9,1.3
		c-1.1,1.1-1.7,0.7-1.8-0.6c-0.4-5.7-0.8-11.5-1.2-17.2C132.3,39.4,133,38.3,134.5,37.7z"/>
	<path class="st11" d="M187.8,65.7c-0.8,0-1.5,0-2.3,0c0.3-0.9,0.6-2.5,1-2.5C188.5,63.1,187.6,64.7,187.8,65.7z"/>
	<path class="st11" d="M180.9,65.7l-0.3,0.1c0,0-0.3-0.1-0.3-0.1C180.5,65.7,180.7,65.7,180.9,65.7z"/>
	<path class="st23" d="M204.6,149.7c0.1-0.9,0.5-1.9,0.4-2.8c-0.3-4.1-0.3-4.1,3.7-4.3c0.6,0,1.2,0,1.7,0c0.2-0.2,0.4-0.3,0.5-0.5
		c0-3.3,0.1-6.5,0.1-9.8c0-3.3,0.2-3.5,3.6-3.6c0.9,0,1.9,0,2.9,0c0.3-2.5,0.6-4.7,0.9-6.9c0,12.4,0,24.9,0,37.3
		c0,1.4,0.1,2.9,0.1,4.3c-0.1,1.9-0.1,3.8-0.2,5.7l-0.2,0l-0.2,0c0-0.4,0-0.8,0-1.1c0-3.3,0-6.5,0-9.8c0-0.2,0-0.4,0-0.6
		c-0.5-2.2-2.3-0.7-3.4-1.1c-0.8,0-1.5,0-2.3,0c-0.4,0.6-1.1,1.2-1.1,1.9c-0.1,3.8,0,7.6,0,11.3c-2.3,0.3-4.6,0.7-6.9,1
		c-0.1,2.2-0.2,4.3-0.3,6.4c-2.4,0.1-4.5,0.2-6.6,0.3c-0.1,2.4-0.2,4.4-0.3,6.6c-2.4,0.1-4.4,0.2-6.6,0.3c-0.1,2.3-0.2,4.4-0.3,6.6
		c-2.3,0.1-4.4,0.2-6.8,0.3c0,2.3,0,4.4,0,6.6c-2.5,0.1-4.6,0.2-6.8,0.3c-0.1,2.4-0.2,4.5-0.3,6.6c-2.4,0.1-4.5,0.2-6.7,0.4
		c0,14.2,0,28,0,41.8c-4.6,0-9.3,0-13.9,0c0-13,0-26,0.1-38.9c0-2.3-0.8-3.2-3-3.1c-1.2,0-2.4,0-3.6,0c-0.3-2.4,0.1-5-1-6.1
		c-1.3-1.2-3.9-0.9-6.2-1.3c-0.1-2.1-0.2-4.2-0.3-6.6c-2.3,0-4.3,0-6.5,0c-0.3-2.4-0.6-4.6-0.8-7c-2.3,0-4.2,0-6.1,0
		c-0.1-2.4-0.2-4.4-0.3-6.6c-2.5-0.1-4.8-0.2-7.1-0.3c-0.1-2.4-0.2-4.4-0.3-6.6c-1.1-0.1-2-0.1-2.8-0.1c-3.9-0.1-3.9,0-3.9-4
		c0-3.2,0-6.4,0-9.6c-2.4,0-4.3,0-6.4,0c0,1.5,0,2.7,0,3.9c0,11.8,0,23.6,0,35.5c0,1-0.2,2.1-0.3,3.1c-0.1,0-0.2,0-0.3-0.1
		c0-4.8,0-9.6,0-14.4c0-9.8,0.1-19.6,0.1-29.4c0.1-1.9,0.3-3.8,0.4-5.7c0.4-2.4,0.8-4.8,1.3-7.2c0.4,0,0.8,0,1.2,0
		c2.4,0,4.8,0.1,7.2,0.1c2.2,0,3.3,1,3.3,3.3c0,1.2,0.3,2.4,0.5,3.7c0,2.2,0,4.4,0,6.9c2.5,0,4.7,0,6.9,0c0.1,2.4,0.3,4.5,0.4,6.9
		c2.3,0,4.3,0,6.7,0c0,2.4,0,4.5,0,6.9c2.5,0,4.8,0,7.1,0c0,2.5,0,4.5,0,7c2.5,0,4.7,0,7.2,0c0,2.5,0,4.6,0,6.9c2.4,0,4.4,0,6.6,0
		c0.1,2.4,0.2,4.6,0.3,6.6c4.8,0,9.1,0,13.9,0c0-2.3,0-4.5,0-6.9c2.5,0,4.5,0,6.9,0c0-2.4,0-4.4,0-6.6c2.4-0.1,4.6-0.2,7-0.3
		c0-2.4,0-4.5,0-6.7c2.4-0.1,4.6-0.2,7-0.3c0-2.4,0-4.5,0-6.8c2.4,0,4.4,0,6.7,0c0.1-2.4,0.2-4.6,0.3-7c2.5,0,4.6,0,7.3,0
		C204.6,154.1,204.6,151.9,204.6,149.7z"/>
	<path class="st18" d="M86.2,226.4c0,0.8,0,1.5,0,2.3c0,3.9,1.8,5,5.4,3.4c2.6,1.7,1.2,4.3,1.5,6.5c-0.1,0-0.2,0-0.3,0.1
		c0-1.7,0-3.3,0-5.2c-2.6,0-4.9,0-7.1,0l0,0c0-2.3,0-4.5,0-6.8c-2.6,0-4.7,0-6.8,0c0,2.3,0,4.5,0,6.9c2.2,0,4.2,0,6.2,0
		c0,0.2,0,0.4-0.1,0.6c-2.1,0-4.2,0-6.5,0c-0.3-2.3-0.6-4.4-0.9-7C80,224.9,83.1,225.7,86.2,226.4z"/>
	<path class="st11" d="M108.1,142.6c-0.4,2.4-0.8,4.8-1.3,7.2c-2.3-0.1-4.5-0.2-6.8-0.4c-0.1-1.4,0.2-2.3,1.9-2.1c0.5,0,1,0.1,1.4,0
		c0.8-0.2,1.6-0.6,2.4-0.9c-0.5-0.6-1.1-1.3-1.8-2.3C105.2,143.6,106.7,143.1,108.1,142.6z"/>
	<path class="st18" d="M92.5,163.4c0-2.2,0-4.3,0-6.8c2.3,0,4.5,0,6.6,0c0.4-2.5,0.7-4.7,1-6.9c0,2.6,0,5.1,0,7.9
		c-2.4,0-4.4,0-6.1,0C92.3,159.5,95.4,162.1,92.5,163.4z"/>
	<path class="st18" d="M106.4,155.5c0,9.8-0.1,19.6-0.1,29.4c-0.2-0.2-0.3-0.4-0.5-0.6c0-8.6,0-17.2,0.1-25.8
		C105.9,157.5,106.2,156.5,106.4,155.5z"/>
	<path class="st17" d="M92.7,238.5c0.1,0,0.2,0,0.3-0.1c0.3,1.7-0.4,2.4-2.1,2.3c-1.8-0.1-3.6,0-5.3,0c-0.2-2.3-0.4-4.6-0.6-6.9
		c0-0.2,0.1-0.4,0.1-0.6c0.2,0,0.4,0,0.6,0l0,0c0,2.3,0,4.5,0,7c2.1,0,3.8,0.2,5.4-0.1C91.7,240.2,92.2,239.1,92.7,238.5z"/>
	<path class="st21" d="M294.1,37.7c1.7,0,3.5-0.1,5.2,0c0.7,0.1,1.3,0.7,1.9,1.1c0,1.5,0,2.9,0,4.4c0.1,0.4,0.1,0.9,0.2,1.3
		c-2.4,0-4.8,0-7.2-0.1C294.1,42.3,294.1,40,294.1,37.7z"/>
	<path class="st19" d="M321.7,37.7c0-0.8,0.1-1.5,0.1-2.3c2.1,4.4,4,4.4-0.2,11c-2-0.3-3.9,1-4.6,2.8c-0.4,0.9-1.3,1.6-2.1,2.4
		c0,0-0.1-0.1-0.1-0.1c0.1-2.2,0.2-4.3,0.3-6.8c2.3,0,4.4,0,6.6,0C321.7,42,321.7,39.9,321.7,37.7z"/>
	<path class="st19" d="M294.1,44.6c2.4,0,4.8,0,7.2,0.1l0.1,0c-0.1,2.2-0.2,4.4-0.3,6.8c5,0,9.3,0,13.7,0c0,0,0.1,0.1,0.1,0.1
		c-0.5,0.7-1,1.3-1.2,1.5c-4,0-7.5,0-11.9,0c-2.4-1.1-2.6-3.9-2-7.3c-1.5,0-2.6,0.1-3.7,0C295.5,45.5,294.8,44.9,294.1,44.6z"/>
	<path class="st14" d="M335.6,52.6c-1.9,0-3.9,0-5.8,0.1c-0.2-1.7,0.5-2.5,2.2-2.3c1.4,0.1,2.8,0,4.5,0
		C336.2,51.3,335.9,52,335.6,52.6z"/>
	<path class="st14" d="M336.8,58.4c-0.2-1.9-0.5-3.8-0.7-5.7C338.2,54.3,336.9,56.4,336.8,58.4z"/>
	<path class="st11" d="M99.6,86.7c0.6,0.1,1.1,0.1,1.7,0.2c-0.1,0.5-0.2,0.9-0.4,1.6c-0.6-0.5-1-0.8-1.4-1.2l0,0
		C99.5,87.1,99.5,86.9,99.6,86.7z"/>
	<path class="st11" d="M99.5,87.3c0,0.1-0.1,0.2-0.1,0.2C99.4,87.4,99.5,87.4,99.5,87.3L99.5,87.3z"/>
	<path class="st11" d="M210.9,142.1c-0.2,0.2-0.4,0.3-0.5,0.5C210.5,142.5,210.7,142.3,210.9,142.1z"/>
	<path class="st16" d="M169.4,247.2c0-13.8,0-27.7,0-41.8c2.3-0.1,4.3-0.2,6.7-0.4c0.1-2.1,0.2-4.2,0.3-6.6c2.2-0.1,4.3-0.2,6.8-0.3
		c0-2.3,0-4.3,0-6.6c2.4-0.1,4.5-0.2,6.8-0.3c0.1-2.2,0.2-4.3,0.3-6.6c2.2-0.1,4.2-0.2,6.6-0.3c0.1-2.2,0.2-4.2,0.3-6.6
		c2.1-0.1,4.2-0.2,6.6-0.3c0.1-2.1,0.2-4.2,0.3-6.4c2.3-0.3,4.6-0.7,6.9-1c0.3-1,0.9-2,1-3c0.1-3.4,0-6.8,0.1-10.1
		c0.8,0,1.5,0,2.3,0c1.1,0.4,2.3,0.7,3.4,1.1c0,0.2,0,0.4,0,0.6c-0.6,0.8-1.6,1.5-1.6,2.3c0,2.2,0.3,4.5,0.6,6.7
		c0,0.3,0.7,0.5,1,0.8c0,0.4,0,0.8,0,1.1c-2.5,1.1-2.3,1.1-1.2,3.4c0.7,1.4,1.1,3,1.1,4.5c0.1,28.8,0,57.7,0,86.5c0,3,0,6,0,9.1
		c0.3,0,0.6,0,0.9,0c0.1-1.3,0.3-2.5,0.4-3.6c9.4,1,18.7,0.3,28.1,0.4c9.3,0.1,18.6,0,27.9,0c-0.1,0.2-0.3,0.4-0.4,0.6
		c0.9,1.1,2.5,2.1,2.7,3.3c0.3,2.3,3,4.3,0.8,6.9c-0.4,0.4-0.3,1.3-0.3,1.9c0,4.6,0,9.2,0,13.8c0,1.2,0,2.4,1.7,2.4
		c1.3,1.9,3,2.3,5.4,2c3.6-0.5,7.3-0.2,10.9-0.4c4.5-0.3,8.9-0.8,13.3-1.2l0,0c0.3,2.4,1.2,4.9,0.6,7.1c-0.7,3,0.4,2.8,2,2.6
		c0.3-1.1,0.3-2.2,0.8-2.5c0.8-0.5,2-0.6,3.5-1c-0.6,1.3-0.9,1.9-1,2.5c-0.1,0-0.4-0.1-0.7-0.1c-0.2,0.9-0.6,1.8-0.6,2.7
		c-0.1,3.7-0.2,7.3,0,11c0.1,2.7-0.2,4.8-3.2,5.3c-0.7,5.4-0.7,5.4,1.1,6.7c0-1.7,0-3,0-4.4c1.4-0.2,2.8-0.4,3.7-0.5
		c0-7,0-13.8-0.2-20.6c0.9,0.1,2,0.1,3.3,0.2c0,5.5,0,10.6,0,15.7c0,0.9,0.7,1.7,1,2.6c0,0.4,0,0.8,0,1.1c-1.7-0.2-2.3,0.6-2.3,2.3
		c0,1.2-0.3,2.4-0.5,3.6c0,3.2-0.1,6.3,0,9.5c0.1,1.9-0.8,2.6-2.6,2.6c-1.6-0.1-3.3,0-4.9,0c-98.2,0-196.4,0-294.7,0
		c-1.7,0-3.8,0.5-4.2-2.3c-0.1-0.5-1.6-0.8-2.5-1.2c0-11.9,0-23.9,0-36.1c1.7-0.4,3.5-0.9,2.6-3.7c4.6,0,8.8,0.1,13-0.1
		c0.9,0,1.8-0.7,2.8-1.1c3.1-0.2,6.2-0.5,9.3-0.5c3.1,0,6.2,0.3,9.3,0.5c1.3,0.1,2.3-0.1,2-1.8c0,0,0,0.1,0,0.1
		c0.2-0.2,0.4-0.4,0.6-0.6c0,0,0,0,0,0c0.9-0.1,1.8-0.1,3.1-0.2c-1.1-3.4,1.8-7.3-2.5-9.8c0-5.4-0.1-10.9,0-16.5
		c0-1.8,0.8-3.5,3.1-3.6c0.5,0,0.9-0.7,1.4-1c17,0,34,0,51-0.1c1,0,2.7,1,3-1.1c0-0.7,0-1.5,0-2.2c0-7,0-13.9,0-20.9
		c0-6.1,0-12.2,0-18.4c0-4.5,0-8.9,0-13.4c0-1.7,0-3.4,0-5.1c-0.1-2.3-0.1-4.7-0.2-7c0.1-1,0.3-2.1,0.3-3.1c0-11.8,0-23.6,0-35.5
		c0-1.2,0-2.5,0-3.9c2.2,0,4,0,6.4,0c0,3.2,0,6.4,0,9.6c0,3.9,0,3.9,3.9,4c0.8,0,1.7,0.1,2.8,0.1c0.1,2.2,0.2,4.3,0.3,6.6
		c2.3,0.1,4.6,0.2,7.1,0.3c0.1,2.2,0.2,4.2,0.3,6.6c2,0,3.9,0,6.1,0c0.3,2.4,0.6,4.6,0.8,7c2.2,0,4.2,0,6.5,0
		c0.1,2.4,0.2,4.5,0.3,6.6c2.3,0.4,4.9,0.1,6.2,1.3c1.1,1,0.7,3.7,1,6.1c1.2,0,2.4,0,3.6,0c2.2-0.1,3,0.8,3,3.1
		c-0.1,13-0.1,26-0.1,38.9c-0.2,0.1-0.3,0.1-0.5,0.1c-3.1,0-6.1,0-9.2,0c-9.8,0-19.6,0-29.4,0c-1.3,0-2.9-0.2-2.9,1.8
		c0,4.1,0,8.2,0,12.6c12,0,23.6,0,35.2,0c20.3,0,40.7,0,61,0c0.4,0,0.7-0.2,1.1-0.3c0-4.6,0-9.2,0-13.9c-11.8,0-23.4,0-35,0
		C173.6,247.3,171.5,247.2,169.4,247.2z M225.4,313.4c0,0-0.1,0.2-0.1,0.2c-0.9,1-1.8,1.9-2.7,2.9c0,0-0.1,0.1-0.1,0.1
		c-0.4,0.5-1,1.1-1.1,1.6c-0.1,1.6-0.1,3.3-0.1,4.9c0,2.1,0,4.2,0,6.3c-0.3,0-0.7,0-1,0c-0.1-0.9-0.2-1.7-0.2-2.6
		c0-3.3-0.1-6.5,0-9.8c0.1-2.5-0.4-4.3-2.1-5c-3.2,0-5.6,0-8.2,0c0,0.1-0.1,0.6-0.1,1c0,0,0,0,0,0c-0.1,0.2-0.1,0.3-0.2,0.5
		c0,2.8,0,5.7,0,8.7c-1-0.1-1.8-0.1-2.5-0.2c-0.2-1-0.4-1.8-0.6-2.7c-0.9,0-1.6,0-2.5,0c-0.2,1-0.5,1.8-0.7,2.9
		c-1-0.1-1.7-0.2-2.7-0.3c0-3,0-5.7,0-8.5c-0.1-1.4-0.2-2.8-0.3-4.6c-1.3,1.3,0,4.3-3,3.1c-0.2-1-0.4-1.8-0.6-2.7
		c-0.2,0-0.3,0-0.5,0c-0.2,1-0.4,1.9-0.7,3.3c-1.8-0.4-3.4-0.8-5.2-1.2c-0.1,1.5-0.2,2.7-0.3,4.1c-3.4-0.4-6.7-0.7-10.2-1.1
		c-0.1-1.1,0.2-2.2-0.2-2.9c-0.6-1-1.5-2.3-2.5-2.5c-2.4-0.3-4.9-0.1-7.4-0.1c-0.7,1.9-1.3,3.6-2.1,5.8c-0.9,0.1-2.2,0.1-3.4,0.4
		c-0.3,0.1-0.4,0.9-0.5,1.4c0,1.9,0,3.8,0,5.8c1.9,0.1,3.7,0.2,5.9,0.4c0,3,0,6,0,8.9c0.3-0.1,0.5-0.3,0.8-0.4
		c1.1,1.1,2.1,2.2,3.5,3.6c3.1,0,6.9,0,11,0c0-2.1,0-4,0-6.2c-1.5,0-2.7,0-4,0c-0.2-0.4-0.6-0.8-0.7-1.2c-0.2-1-0.5-2.1-0.1-2.9
		c0.2-0.5,1.6-0.4,2.5-0.5c1.3-0.2,2.5-0.3,3.9-0.4c0.2,0.7,0.4,1.6,0.6,2.5c0.2,0,0.5-0.1,0.7-0.1c0-1.2,0-2.4,0-3.6c0,0,0,0,0,0
		c0.4-0.7,0.8-1.5,1.1-2.2c0.2-0.9,0.2-1.8,0.3-2.7c0.3,0,0.6,0.1,0.9,0.1c0,2.1-0.1,4.2,0,6.4c0.1,0.9,0.7,1.7,1,2.6
		c0,2.8,0,5.6,0,8.4c3.4,0,6.2,0,9.1,0c0.2-1,0.3-1.8,0.4-2.6c1-0.2,1.9-0.4,2.8-0.6c0.2-1,0.3-1.8,0.5-2.8c0.9,0,1.7,0.1,2.5,0.1
		c0.2,1.1,0.3,1.9,0.4,2.8c0.9,0.2,1.7,0.3,2.6,0.5c0.2,0.9,0.3,1.7,0.5,2.9c3.1-0.2,6.1-0.4,9.1-0.7c0.5-1,0.9-2.1,1.5-3.4
		c1.6,1.4,3.3,2.8,5.3,4.6c7,0,14.7,0,22.3-0.1c0.6,0,1.2-0.8,1.8-1.2c0-1.8,0-3.6,0-5.7c-6.3,0-12.3,0-18.4,0c0-1.1,0-1.9,0-3
		c5,0,9.9,0,14.8,0c0.2-1.2,0.4-2.1,0.5-3c1.1-0.2,2-0.4,3.1-0.6c0-1.7,0-3.4,0-5c0.4-0.1,0.9-0.1,1.5-0.2c-1.4-1-2.5-1.8-3.8-2.6
		c-1.1-0.7-2.3-1.7-3.5-1.8c-5.3-0.2-10.7-0.1-16-0.1c-0.8,0-1.6,0.4-2.4,0.6c0,0-0.1,0-0.1,0C225.7,313.2,225.6,313.3,225.4,313.4z
		 M183.2,231.6c0-1.1,0-2.3,0-3.4c0-0.6,0-1.2,0-1.8c0-4.6,0-9.1,0-13.7c-2.4,0-4.5,0-6.8,0c0,4.7,0,9.2,0,13.7c0,2.4,0,4.8,0,7.2
		c0,2.2,0,4.4,0,6.7c2.4,0,4.5,0,6.9,0c0-2.4,0-4.6,0-6.8C183.2,232.8,183.2,232.2,183.2,231.6z M73.5,295.1
		C73.5,295.1,73.5,295.1,73.5,295.1c0.7-0.6,1.4-1.2,2.1-1.9c0.3,2,0.8,4-1.3,4.5c0.5,0.9,1,1.8,1.5,2.6c0.5,0.8,1.1,2.4,1.6,2.3
		c2.9-0.3,5.8-0.9,8.7-1.4c0-0.2,0-0.3,0.1-0.4c0.4-0.8,1-1.7,1.1-2.5c0.1-5.5,0-11.1,0.1-16.6c0-1.2,0.4-2.3,0.6-3.9
		c-0.5-0.3-1.2-0.7-2-1.1c-1.5,0-3-0.1-4.4-0.1c-0.1-0.6-0.1-1.3-0.2-1.6c-2.6,0.3-5.1,0.5-7.9,0.8c0.9,0.7,1.5,1.1,2.2,1.6
		c-2.3,0.6-4.2,1.2-6.4,1.7c-0.6-3.6-3-3.9-5.6-3.7c-0.5-0.3-0.9-0.6-1.6-1.1c-0.1,1-0.1,1.6-0.2,2.2c-0.8,0-1.5,0-2.3,0
		c-0.1-0.7-0.2-1.3-0.3-2c-0.2,0-0.4,0-0.6,0c-0.1,0.7-0.1,1.4-0.2,2.1c0,8.2,0,16.3,0,24.6c2.9,0,5.3,0.1,7.8-0.1
		c0.5,0,0.9-1,1.4-1.6c1.6-1.5,1.6-3.1,0-4.6c0-0.4,0-0.8,0-1.1c0.9,0.4,1.9,0.8,2.8,1.4C71.7,296.1,72.7,297.2,73.5,295.1z
		 M127.9,227c0,0.9-0.1,1.8-0.1,2.6c0,1.5-0.1,3-0.1,4.4c0,2,0,4.1,0,6.1c2.4,0,4.5,0,6.8,0c0-2.2,0-4.1,0-6.1c0-2.7,0-5.4,0-8.2
		c0-9.1,0-18.1,0-27.3c-2.4,0-4.5,0-6.9,0c0,9.1,0,18.1,0,27.1C127.6,226.1,127.7,226.5,127.9,227z M72.5,311.4
		c-5.3,0-10.5,0-15.8-0.1c-1.2,0-2.4-0.8-4.1-1.5c-0.1,0.2-0.6,0.9-1.1,1.6c0,1.1,0,2.2,0,3.3c-1.1,0.6-2.3,1.2-2.9,1.5
		c0,5.8,0,11.2,0,16.9c1.3-0.4,1.9-0.6,2.9-0.9c-0.3,1.2-0.6,2-0.8,3c7.9,0,15.8,0,23.7,0c0.1-1.1,0.2-2,0.3-2.7
		c1-0.2,1.9-0.4,2.8-0.6c-0.2-0.4-0.4-0.7-0.6-1.1c0-4.6,0-9.2-0.1-13.8c0-0.2,0-0.4,0.1-0.6c0.3-0.8,0.6-1.6,0.8-2.4
		c0,0-0.9-0.4-0.9-0.3c-0.4,0.7-0.8,1.5-1.1,2.2c-0.5-0.6-1.1-1.1-1.5-1.7C73.6,313.2,73.1,312.3,72.5,311.4z M212.1,282.4
		c0,0.4,0,0.7,0,1.1c-0.6-1-1.1-1.9-1.8-3c-0.5,0.2-1.4,0.4-2.2,0.7c-1.4-3.3-3.1-4.1-5.7-3.4c-1.7,0.5-3.4,0.9-5.2,1
		c-3.3,0.2-6.5,0-9.8,0c-4.5,0-4.5,0-5.3,4.2c0,5.1,0,10.1,0,15.2c1,0.2,1.8,0.4,2.6,0.5c0.3,0.9,0.6,1.7,0.8,2.5
		c8.2,0,16.2,0,24.2,0c0-2.2,0-4.1,0-6c-1-1.7-2-1.8-3.4-0.2c-1-0.1-2-0.4-3-0.4c-3.4,0.1-6.8,0.3-10.2,0.4
		c-0.2-0.7-0.3-1.3-0.5-2.2c4.6,0,8.7,0,12.8,0c2.5,0,3.1-0.8,2.7-3.5c1.9,0,3.7,0,5.5,0c1.9,0,3.7,0,5.7,0c0,2.8,0.1,5.1,0,7.4
		c-0.1,1.3,0.3,2,1.7,2c-0.6,1.6-0.1,2.7,1.5,3.4c1.4,0.6,2.8,1.3,3.8,1.8c2.8-0.2,5.4-0.4,8-0.6c0.6,0.4,1.1,0.8,1.7,1.2
		c0.1-0.3,0.2-0.6,0.4-0.9c-0.7-0.1-1.4-0.2-2-0.3c0.9-1.6,2.1-2.9,2-5c-0.1-3.1,0.3-3.3,3.7-2.6c0,1,0,2,0.3,3.3
		c-1-0.5-1.6-0.9-2.5-1.3c-0.1,1.2-0.2,2.2-0.4,3.9c1.2-1.2,2-1.8,2.5-2.9c0.4,0,0.8,0,1.2,0c2.3-0.6,2.6,1.3,3.1,2.7
		c8.2,0,16.2,0,24.4,0c0-2.2,0-4.1,0-6c0-2,0-4.1,0-6.1l0,0c0.7,0.7,1.4,1.4,2.1,2.1c0.8-5.2,0.6-6.1-2-7.8
		c-0.1-0.1-0.1-0.2-0.1-0.4c0.8-2.3-1.8-2-2.5-3.1c-1.8-2.6-4.8-2.4-8-1.6c-3.1,0.7-6.6,0.8-9.6,0.1c-1.7-0.4-3-0.5-4.6-0.1
		c-0.2-0.8-0.4-1.7-0.6-2.9c1.9,0,3.3,0,4.7,0c1.4,1.5,6.9,1.7,9.3,0c-3.4,0-6.3,0-9.3,0c-0.2-1.7,0.5-2.4,2.3-2.3
		c2.2,0.1,4.4,0,6.6,0c0-0.4,0-0.8,0-1.2c-2.2,0-4.5,0.2-6.6,0c-3.8-0.5-6.9,0.8-10,2.7c-1.9,1.2-1.9,1.7-0.2,3.2
		c0.5,0.5,0.7,1.4,1,2.2c0,2.5-1.3,3.3-3.5,2.9l0,0c-2.6-0.5-5.1-1.1-7.7-1.7c-0.3-1.9-0.8-4.4-1.2-6.5c-2.1,0.3-3.5,0.3-5,0.6
		c-0.8,0.2-1.5,0.7-2.3,1.1c-0.4,0-0.8,0-1.1,0c-0.4-0.2-0.7-0.4-1.1-0.6c-0.6,1-1.2,2-1.7,2.8c-0.9,0.2-1.9,0.5-2.9,0.7
		c-0.1-1.2-0.3-2.5-0.4-3.7c-0.2,0-0.3,0-0.5,0C213.1,278,212.6,280.2,212.1,282.4z M204.4,233.9c0,1.5,0,3.1,0,4.6
		c0.2,0.6,0.5,1.2,0.7,1.8c1.9,0,3.7,0,6.1,0c0-2.4,0-4.7,0-6.9c0-2.5,0-5.1,0-7.6c0-13.8,0-27.6,0-41.2c-2.5,0-4.6,0-6.9,0
		c0,13.9,0,27.6,0,41.3C204.3,228.6,204.4,231.2,204.4,233.9z M148.5,233.9c0-2.7,0-5.4,0-8.1c0-4.4,0-8.8,0-13.2
		c-2.6,0-4.8,0-7.3,0c0,4.4,0,8.6,0,12.8c0.1,2.6,0.3,5.2,0.4,7.9c-0.1,2.3-0.2,4.5-0.3,6.8c2.7,0,4.8,0,7.2,0
		C148.5,237.9,148.5,235.9,148.5,233.9z M197.1,233.4c0-2.4,0-4.7,0-7.1c0-9.3,0-18.5,0-27.7c-2.4,0-4.6,0-6.8,0
		c0,9.4,0,18.5,0,27.6c0,2.6,0,5.1-0.1,7.7c0,2.1,0,4.1,0,6.2c2.5,0,4.6,0,6.8,0C197.1,237.8,197.1,235.6,197.1,233.4z M113.5,233.5
		c0,2.2,0,4.3,0,6.6c2.4,0,4.5,0,6.7,0c0-2.4,0-4.6,0-6.7c0-2.4,0-4.7,0-7.1c0-13.9,0-27.8,0-41.8c-2.3,0-4.4,0-6.7,0
		c0,14,0,27.8,0,41.7C113.5,228.6,113.5,231.1,113.5,233.5z M113.9,280.1L113.9,280.1c-1.3-0.7-2.9-2.3-3.9-2
		c-4.4,1.3-8.7,1.5-13-0.1c-0.6-0.2-1.3-0.1-2,0.1c-1.3,0.4-2.5,0.8-3.7,1.3c-3.8,3-2.9,7.2-2.9,11.3c0,1.9-0.1,3.9,0.1,5.8
		c0.1,0.8,0.7,1.5,1.1,2.2c0.7,0,1.3,0.1,1.6,0.1c0.8,1.1,1.5,2.6,2.1,2.6c3.8,0.1,7.5-0.2,11.3-0.4c1.6-0.7,1.6-1.5,0-2.3
		c0-0.4,0-0.7,0-1.1c1.4-0.2,2.3,0.1,2.3,1.9c0,0.7,0.7,1.4,1.1,2.1l0.1,0.1c0.3,0.5,0.6,1.3,0.8,1.3c2.3-0.2,4.5-0.5,6.8-0.7
		c2.3-0.3,2.9-1.5,2.1-3.7c-0.2-0.6-0.4-1.3-0.3-1.9c0.1-0.5,0.7-0.9,1.1-1.3c0.3,0.4,0.8,0.7,1,1.1c0.4,0.7,0.6,1.5,0.8,2.2
		c0.8,0.1,1.7,0.1,2.5,0.2c0.2,1,0.3,1.8,0.5,2.8c5.2,0,10.3,0.2,15.4-0.1c2.2-0.1,5.7,2,6.4-2.5c0-0.1,0.2-0.1,0.2-0.1
		c0.9-0.2,1.7-0.4,2.4-0.6c0-2.1,0-3.9,0-5.9c-3.1,0-5.8,0-8.6,0c-0.4,1-0.8,1.8-1.1,2.6c-2.9,0-5.7,0-8.3,0c0-3.1,0-5.9,0-8.8
		c3,0,5.6,0,8.3,0c0.3,1.1,0.5,2,0.8,2.9c3,0,5.9,0,8.9,0c0-2.1,0-4,0-5.8c-1-0.2-1.7-0.4-2.4-0.5c-0.3-0.9-0.5-1.7-0.8-2.6
		c-7.2,0-14.3,0-21.4,0c-1.4,1-2.8,2.1-4.3,3c-0.2,0.2-1-0.5-1.5-0.8C116.2,281.6,115.1,280.9,113.9,280.1z M303.3,322.8
		c1.2-0.1,2.5,0.1,3.7-0.2c0.7-0.2,1.3-1,2-1.5c1.9-0.9,1.8-1.9,0-2.9c0-0.4,0-0.8,0-1.2c0.4-0.3,0.8-0.6,1.2-1
		c-0.5-0.4-1.1-1.2-1.6-1.3c-1.9-0.2-3.8-0.1-5.6-0.1c-0.1-1.5-0.2-2.4-0.2-3.3c1.1-0.1,2.2-0.3,3.3-0.4c0.1-0.3,0.2-0.6,0.3-0.9
		c-0.9-0.4-1.7-1-2.6-1.1c-1.4-0.2-3.2,0.4-4.2-0.3c-2.4-1.6-3.7,0-5.3,1.3c-1.3,0.1-2.6,0.2-4.1,0.3c0,1.2,0,2,0,2.9
		c0,0.9-0.1,1.8-0.1,2.7c-6.7,0.9-6.9,1.1-5.6,6.7c0.8,0.1,1.8,0.2,2.7,0.2c2.1-0.2,3.3,0.4,3,2.9c-0.2,1.8,0.1,3.6,0.2,5.5
		c0,0.3,0.2,0.5,0.4,0.8c0.7,0.2,1.5,0.3,2.2,0.5c0.2,0.9,0.5,1.7,0.7,2.5c4.1,0,8.1,0,12.2,0c0-1.4,0-2.7,0-3.9c0-0.7,0-1.5,0-2.2
		c0.7-1.9-0.9-1.6-1.7-1.6c-0.8-0.1-1.6,0.3-2.2,0.4C299.4,324.5,302.9,324.3,303.3,322.8z M141.6,328.7c-0.6-0.4-1.1-1.1-1.7-1.2
		c-1.4-0.2-2.8,0-4.2,0c-0.1-0.4-0.2-0.8-0.2-1.2c0.8-1,1.6-2,2.4-3.1c0.2,0.9,0.4,1.8,0.7,2.7c0.2,0,0.3,0,0.5,0
		c0.2-1,0.4-1.9,0.6-2.9c2.2-0.6,4.8,1.6,6.2-0.6c0.1-2.4,0.2-4.2,0.4-6.7c-3-0.5-5.9-1-9.2-1.5c-0.2-1.2-0.5-2.6-0.7-4.1
		c-0.2,0-0.6,0-1,0c-2.9,0-5.9,0-8.8,0c-0.2,5.3-0.2,5.3-4.9,6.4c-0.7,0.2-1.5,1.1-1.6,1.8c-0.2,1.2,0.2,2.6,0.3,3.7
		c6.3,0.9,6.6,1.1,6,6.7c-0.2,2.1,0,3.5,2.4,3.3c0.5,1.1,0.8,1.9,1.1,2.6c4,0,7.8,0,11.7,0C141.6,332.5,141.6,330.6,141.6,328.7z
		 M160.1,299.7c0-4.5,0-9,0-13.6c3.3,0,6.2,0,9.5,0c0,5.2,0,10.1,0,15.1c3.2,0,6,0,9,0c0-6.1,0-12,0-18.2c-2.6,0.5-2.9-1.3-3.2-3.1
		c-5,0-9.9,0-14.9,0c-0.1-0.8-0.2-1.5-0.3-2.1c-0.3-0.4-0.6-1.1-0.9-1.1c-2.7-0.1-5.3-0.1-8.1-0.1c0,8.4,0,16.5,0,24.9
		c2.7,0,5.1,0,7.6,0C159.9,301.5,160.4,300.9,160.1,299.7z M262.5,328.5c0-0.8,0.1-1.6,0.1-2.7c4.5,0,8.8-0.1,13.1,0
		c1.8,0,2.5-0.7,2-2.4c0.9-0.5,1.9-1,3-1.6c0-1.5,0-3.3,0-5c-1-0.3-1.9-0.5-2.6-0.7c-0.2-1-0.5-1.9-0.6-2.7c-7.2,0-14.2,0-21.2,0
		c-0.2,1-0.3,1.9-0.5,2.8c-0.9,0.2-1.8,0.5-3,0.8c0.3,5.1,0.5,10,0.8,15c0.3,2.5,1.8,3.7,4.9,3.7c6.4,0,12.9,0,19.3,0
		c0.8,0,1.6-0.4,2.4-0.6c0.3-2,0.6-4.1,1-6.4C274.5,328.5,268.5,328.5,262.5,328.5z M18.2,331.4c1.7,1.4,2.3,4.1,5.1,4.1
		c7.5,0,15,0,22.5,0c0.3,0,0.7-0.2,1.2-0.4c0-7.9,0-15.7,0-23.6c0-0.4-0.7-0.9-1.1-1.3c-2.9,0-5.9,0-8.9,0c-0.2,1.1-0.4,1.9-0.7,3
		c-4.9,0-9.6,0-13.5,0c-1.8,1.8-2.9,3-4.6,4.7C18.2,321.8,18.2,326.6,18.2,331.4z M98.6,334.9c2.9,0,5.1,0.1,7.2-0.1
		c0.8-0.1,2.1-1,2.1-1.6c0.2-5.4,0.1-10.9,0.1-16.3c-1.2-0.4-2.1-0.6-3-0.9c-0.2-0.9-0.5-1.8-0.7-2.7c-8.1,0-16,0-24.2,0
		c0,7.3,0,14.3,0,21.6c1.8,0,3.3,0,4.8,0c4.5,0.1,4.5,0.1,4.5-4.6c0-3.5,0-7.1,0-10.7c3.1,0,5.9,0,9.2,0
		C98.6,324.9,98.6,329.9,98.6,334.9z M110.8,310.3c0,2,0,3.7,0,4.7c1.6,1.6,2.8,2.8,4.3,4.3c0.2,0,1-0.1,1.9-0.2c0-3,0-5.8,0-8.8
		C115,310.3,113,310.3,110.8,310.3z M213,188.1c-0.2,0-0.4,0-0.6,0c0,12,0,24.1,0,36.1c0.2,0,0.4,0,0.6,0
		C213,212.2,213,200.2,213,188.1z M273.2,282.6c-0.4,0.1-0.8,0.2-1.2,0.3c0.5,2.4,1.1,4.9,1.7,7.3c0,0.1,1,0.1,1.5,0.1
		C274.6,287.5,273.9,285.1,273.2,282.6z M81.3,272.6c0-0.2,0-0.4,0-0.6c-1.1,0-2.2-0.1-3.2,0.1c-0.4,0.1-0.6,0.9-0.9,1.4
		c0.5,0.2,1.2,0.7,1.6,0.6C79.7,273.8,80.5,273.1,81.3,272.6z M220.8,271.8c-0.2,0.4-0.4,0.8-0.5,1.2c0.9,0.4,1.8,0.8,2.7,1.1
		c0,0,0.5-1.1,0.5-1.1C222.7,272.5,221.7,272.2,220.8,271.8z M308.2,302.1c-0.6-0.5-1-1.1-1.4-1.1c-0.4,0-0.8,0.5-1.2,0.8
		c0.4,0.4,0.7,1,1.2,1.2C307.1,303.1,307.6,302.5,308.2,302.1z M274.7,304c0.3,0,0.6,0,0.9,0c-0.1-1.3-0.1-2.6-0.2-3.8
		c-0.2,0-0.5,0-0.7,0C274.7,301.4,274.7,302.7,274.7,304z M71.6,273.4c0,0.3,0,0.6,0.1,0.8c0.9-0.1,1.8-0.2,2.7-0.2
		c0-0.2,0-0.4-0.1-0.6C73.4,273.4,72.5,273.4,71.6,273.4z M213,271.2c-0.3,0-0.6,0-0.8,0.1c0.1,0.9,0.2,1.8,0.2,2.7
		c0.2,0,0.4,0,0.6-0.1C213,273,213,272.1,213,271.2z M65.2,271.2c-0.3,0-0.6,0-0.8,0c0.1,0.9,0.2,1.8,0.2,2.7c0.2,0,0.4,0,0.6-0.1
		C65.2,273,65.2,272.1,65.2,271.2z M67,273.4c0,0.2,0,0.4,0,0.6c0.9,0,1.8,0,2.7,0c0-0.2,0-0.4,0-0.6
		C68.8,273.4,67.9,273.4,67,273.4z M304.1,305.8c-0.2,0-0.4,0-0.5,0c0,0.6,0,1.1,0,1.7c0.2,0,0.4,0,0.5,0
		C304.1,306.9,304.1,306.4,304.1,305.8z M272.4,300.6c0.2,0,0.4,0,0.5,0c0-0.6,0-1.1,0-1.7c-0.2,0-0.4,0-0.5,0
		C272.4,299.5,272.4,300,272.4,300.6z M60,271.1c0,0.3,0,0.5,0,0.8c0.6-0.1,1.1-0.2,1.7-0.3c0-0.2-0.1-0.3-0.1-0.5
		C61.1,271.1,60.5,271.1,60,271.1z M88.2,274.1c0-0.3,0-0.5,0-0.8c-0.6,0.1-1.1,0.2-1.7,0.3c0,0.2,0,0.3,0.1,0.5
		C87.1,274.1,87.7,274.1,88.2,274.1z M18.9,334.4c-0.2,0.2-0.5,0.4-0.5,0.6c0,0.2,0.4,0.5,0.5,0.5c0.3-0.1,0.5-0.4,0.7-0.6
		C19.4,334.7,19.2,334.5,18.9,334.4z M215.7,270.2c-0.3-0.4-0.5-0.6-0.6-0.8c-0.2,0.1-0.5,0.3-0.5,0.4c0.1,0.3,0.2,0.6,0.5,0.7
		C215.1,270.6,215.4,270.4,215.7,270.2z M312.3,312.8c-0.2-0.1-0.4-0.2-0.5-0.2c-0.1,0-0.1,0.3-0.2,0.5c0.2,0.1,0.4,0.2,0.5,0.2
		C312.2,313.3,312.2,313,312.3,312.8z M216.5,177.8c-0.2-0.1-0.4-0.2-0.5-0.2c-0.1,0-0.1,0.3-0.2,0.5c0.2,0.1,0.4,0.2,0.5,0.2
		C216.4,178.2,216.4,177.9,216.5,177.8z M89.9,273.9c0.2,0.1,0.4,0.2,0.5,0.2c0.1,0,0.1-0.3,0.2-0.5c-0.2-0.1-0.4-0.2-0.5-0.2
		C90,273.5,90,273.7,89.9,273.9z M312.3,316.3c-0.2-0.1-0.3-0.1-0.5-0.2c-0.1,0.2-0.2,0.4-0.2,0.5c0,0.1,0.3,0.1,0.5,0.2
		C312.1,316.6,312.2,316.5,312.3,316.3z M226.9,271.3c-0.2-0.1-0.4-0.2-0.5-0.2c-0.1,0-0.2,0.3-0.2,0.4c0,0.1,0.3,0.2,0.4,0.2
		C226.8,271.7,226.8,271.4,226.9,271.3z M72.1,275.9c-0.2-0.1-0.4-0.2-0.5-0.2c-0.1,0-0.1,0.3-0.2,0.4c0.2,0.1,0.4,0.2,0.5,0.2
		C72,276.3,72.1,276.1,72.1,275.9z M276.5,279.4c-0.2-0.1-0.4-0.2-0.5-0.2c-0.1,0-0.1,0.3-0.2,0.5c0.2,0.1,0.4,0.2,0.5,0.2
		C276.4,279.8,276.4,279.5,276.5,279.4z M238.4,280.5c-0.2-0.1-0.4-0.2-0.5-0.2c-0.1,0-0.2,0.3-0.2,0.5c0.2,0.1,0.4,0.2,0.5,0.2
		C238.3,280.9,238.3,280.7,238.4,280.5z M310.9,335.3c0.1-0.2,0.2-0.4,0.2-0.5c0-0.1-0.3-0.1-0.5-0.2c-0.1,0.2-0.2,0.4-0.2,0.5
		C310.5,335.2,310.8,335.2,310.9,335.3z"/>
	<path class="st12" d="M319.4,326.3c-0.4-0.9-1-1.7-1-2.6c-0.1-5.1,0-10.3,0-15.7c-1.3-0.1-2.4-0.1-3.5-0.2c0.3-0.6,0.6-1.2,1.2-2.5
		c-1.5,0.4-2.7,0.4-3.5,1c-0.5,0.3-0.5,1.5-0.8,2.5c-1.6,0.2-2.7,0.4-2-2.6c0.5-2.2-0.4-4.7-0.6-7.1c0.4,0.6,1,1.2,1.1,1.9
		c0.2,1.1,0,2.3,0,3.9c3.1,0,6,0,9.1,0C319.4,312.3,319.4,319.3,319.4,326.3z"/>
	<path class="st12" d="M52.7,267.5c-0.5,0.4-0.9,1-1.4,1c-2.4,0.1-3.1,1.8-3.1,3.6c-0.1,5.5,0,11.1,0,16.5c4.3,2.6,1.4,6.4,2.5,9.8
		c-1.3,0.1-2.2,0.1-3.1,0.2c0-10.2,0-20.5,0-31.1C49.4,267.5,51.1,267.5,52.7,267.5z"/>
	<path class="st12" d="M46.9,299c0.3,1.7-0.7,1.9-2,1.8c-3.1-0.2-6.2-0.5-9.3-0.5c-3.1,0-6.2,0.3-9.3,0.5c-0.3-2,1-1.9,2.3-1.9
		C34.6,299,40.7,299,46.9,299z"/>
	<path class="st12" d="M316.6,333.3c0.2-1.2,0.5-2.4,0.5-3.6c-0.1-1.7,0.5-2.5,2.3-2.3c0,1.8,0,3.5,0,5.5
		C318.4,333.1,317.5,333.2,316.6,333.3z"/>
	<path class="st23" d="M106.8,224.7c0,6.1,0,12.2,0,18.4C106.8,237,106.8,230.9,106.8,224.7z"/>
	<path class="st23" d="M106.8,206.3c0,1.7,0,3.4,0,5.1C106.8,209.7,106.8,208,106.8,206.3z"/>
	<path class="st23" d="M106.8,264c0,0.7,0,1.5,0,2.2C106.8,265.5,106.8,264.7,106.8,264z"/>
	<path class="st12" d="M47.5,298.5c-0.2,0.2-0.4,0.4-0.6,0.6C47.1,298.9,47.3,298.7,47.5,298.5z"/>
	<path class="st21" d="M314.8,51.5c-4.4,0-8.7,0-13.7,0c0.1-2.4,0.2-4.6,0.3-6.8c2.1,0,4.1,0,6.5,0c0-2.3,0-4.5,0-6.9
		c4.8,0,9.3,0,13.7,0c0,2.2,0,4.3,0,6.9c-2.2,0-4.3,0-6.6,0C315,47.2,314.9,49.3,314.8,51.5z"/>
	<path class="st19" d="M301.1,43.3c0-1.5,0-2.9,0-4.4C301.2,40.4,301.2,41.8,301.1,43.3z"/>
	<path class="st9" d="M300.9,163.4c-1.8,0-3.6,0-5.6,0c0-2,0-3.6,0-5.5c1.8,0,3.4,0,5.6,0C300.9,159.7,300.9,161.6,300.9,163.4
		L300.9,163.4z M299.6,159.1c-2.5,0.2-2.6,0.3-1.4,3.1C298.7,161.2,299.1,160.3,299.6,159.1z"/>
	<path class="st12" d="M294.1,93.7c2.3,0,4.6-0.1,6.9-0.1c0,2.3,0,4.6,0,7c-2.2,0-4.4,0-6.9,0C294.1,98.2,294.1,95.9,294.1,93.7z"/>
	<path class="st16" d="M302.3,92.8c0-1.9,0-3.5,0-5.3c1.4,0,2.7,0,4.2,0c0,1.7,0,3.4,0,5.3C305.1,92.8,303.7,92.8,302.3,92.8z"/>
	<path class="st1" d="M155.4,101.2c0-0.2,0-0.4,0.1-0.6c-3.1-0.2-6.2-0.3-9.2-0.6c-1.5-0.2-3-0.8-4.5-1.2c0.3-1.4,0.5-2.9,0.8-4.3
		c2-0.3,4-0.6,6-0.9c0-2.3,0-4.5,0-6.8c2.2,0,4.4,0,6.9,0c0-2.6,0-4.8,0-7.1c0-2.1,0.1-4.1,0.1-6.2c4.6,0,9.1,0,13.7,0
		c0.1,2,0.2,4.1,0.3,6.1c0,0.6-0.1,1.2-0.1,1.8c0,1.6,0,3.2,0,5.4c2.4,0,4.7,0,6.9,0c0,2.3,0.1,4.6,0.1,6.8
		c-0.2,1.4,0.3,1.9,1.7,1.6c1.7-0.4,3.4-0.6,5.1-0.9c0,1.9,0,3.8,0,5.7c-3.7,0-7.4,0-11.1,0c-0.8,0-1.7,0.4-2.5,0.6
		c-0.1,1.3-0.2,2.7-0.2,4c-0.6,0.7-1.1,1.3-1.8,2.2c-3.8,0-7.9,0-11.9,0C155.5,104.9,155.4,103.1,155.4,101.2z"/>
	<path class="st22" d="M141.2,120.8c1.1,0.3,2.2,0.7,3.4,0.8c1.2,0.1,2.4,0,3.8,0c0,2.4,0,4.6,0,6.9c-2.3,0-4.5,0-6.6,0
		c-0.4-2.4-0.9-4.7-1.3-7C140.7,121.2,141,121,141.2,120.8z"/>
	<path class="st18" d="M155.5,106.8c4,0,8.1,0,11.9,0c0.7-0.8,1.3-1.5,1.8-2.2c0,0.9,0,1.7,0,2.8c-4.4,0-8.9,0-13.3,0
		C155.8,107.5,155.7,107.1,155.5,106.8z"/>
	<path class="st18" d="M169.5,100.6c0.8-0.2,1.7-0.6,2.5-0.6c3.7-0.1,7.4,0,11.1,0c0,0.2,0,0.4,0.1,0.6
		C178.7,100.6,174.1,100.6,169.5,100.6z"/>
	<path class="st18" d="M140.5,104.6c0.2,0.9,0.4,1.8,0.6,2.8c-2.1,0.1-4.2,0.1-6.3,0.2c1.2-0.2,2.4-0.5,3.5-0.5
		C140.1,107,140.8,106.3,140.5,104.6z"/>
	<path class="st18" d="M127.8,114.5c1.9-0.1,3.9-0.1,5.8-0.2C131.7,114.4,129.8,114.4,127.8,114.5z"/>
	<path class="st22" d="M183.4,118.4c-0.1-0.2-0.1-0.3,0-0.5c0.1,0.1,0.1,0.2,0.2,0.3C183.6,118.3,183.5,118.4,183.4,118.4z"/>
	<path class="st22" d="M183.4,116.7c-0.1-0.2-0.1-0.3,0-0.5c0.1,0.1,0.1,0.2,0.2,0.4C183.6,116.6,183.5,116.6,183.4,116.7z"/>
	<path class="st16" d="M183.3,122.1c0,2.1,0,4.2,0,6.4c-2.4,0-4.6,0-7,0c0-2,0-4,0-5.9c0.2-0.2,0.3-0.4,0.5-0.7
		C179,121.9,181.2,122,183.3,122.1C183.4,122.1,183.3,122.1,183.3,122.1z"/>
	<path class="st22" d="M176.8,121.8c-0.2,0.2-0.3,0.4-0.5,0.7C176.5,122.2,176.7,122,176.8,121.8z"/>
	<path class="st2" d="M204.6,149.7c0,2.2,0,4.4,0,6.8c-2.6,0-4.8,0-7.3,0c-0.1,2.4-0.2,4.5-0.3,7c-2.2,0-4.3,0-6.7,0
		c0,2.4,0,4.4,0,6.8c-2.4,0.1-4.6,0.2-7,0.3c0,2.2,0,4.3,0,6.7c-2.4,0.1-4.5,0.2-7,0.3c0,2.2,0,4.3,0,6.6c-2.4,0-4.4,0-6.9,0
		c0,2.4,0,4.6,0,6.9c-4.8,0-9.2,0-13.9,0c-0.1-2.1-0.2-4.2-0.3-6.6c-2.2,0-4.3,0-6.6,0c0-2.4,0-4.4,0-6.9c-2.5,0-4.8,0-7.2,0
		c0-2.5,0-4.6,0-7c-2.4,0-4.6,0-7.1,0c0-2.5,0-4.5,0-6.9c-2.4,0-4.4,0-6.7,0c-0.1-2.4-0.3-4.5-0.4-6.9c-2.2,0-4.4,0-6.9,0
		c0-2.6,0-4.7,0-6.9c4.6,0,9.1,0,14,0c0,2.3,0,4.5,0,6.8c2.4,0,4.5,0,7,0c0,1.9,0,3.6,0,5.2c0,1.1,0,2,1.5,1.7
		c1.9,0,3.9,0.1,5.8,0.1l0-0.1c0.5,2.3-1.8,4.8,0.4,6.9c1.5,0,2.9,0,4.2,0c7.6,0,15.3,0,23.1,0c0-2.5,0-4.7,0-6.9l0,0.1
		c2.2,0,4.5,0,6.9,0c0-2.5,0-4.7,0-7c2.2,0,4.4,0,6.9,0c0-1.6,0-3.1,0-4.6c0.1-0.7,0.2-1.3,0.3-2.3
		C195.1,149.7,199.8,149.7,204.6,149.7z"/>
	<path class="st3" d="M133.4,147.8c-0.1,0.2-0.1,0.4-0.2,0.5c-0.1,0-0.3-0.1-0.5-0.2c0.1-0.2,0.1-0.4,0.2-0.5
		C133,147.5,133.2,147.7,133.4,147.8z"/>
	<path class="st12" d="M176.3,65.9c0,2.3,0,4.7,0,7c0,0,0.1-0.1,0.1-0.1c-2.3,0-4.6,0-6.9,0.1c-4.7,0-9.3,0-14,0c-2.3,0-4.6,0-6.9,0
		c0-2.3,0-4.7,0.1-7l0,0C157.8,65.9,167.1,65.9,176.3,65.9L176.3,65.9z"/>
	<path class="st3" d="M183.3,79.2c-2.2,0.2-4.3,0.5-6.5,0.7c-0.2-0.1-0.4-0.2-0.6-0.3c0-2.3,0-4.5,0-6.8l-0.1,0.1c2.3,0,4.5,0,7.1,0
		C183.3,75,183.3,77.1,183.3,79.2z"/>
	<path class="st21" d="M148.6,65.9c0,2.3,0,4.7-0.1,7l0.1-0.1c-2.4,0-4.7,0-7.3,0c0,2.4,0,4.6,0,6.8c-1.9,0-3.9,0.1-5.8,0.1
		c-0.4-1-1-2-1.1-3c-0.2-3.6-0.3-7.2-0.4-10.8C139,65.9,143.8,65.9,148.6,65.9z"/>
	<path class="st21" d="M148.5,72.9c2.3,0,4.6,0,6.9,0c0,0.2,0.1,0.4,0.1,0.6c0,2.1-0.1,4.1-0.1,6.2c-2.3,0-4.6,0-6.9,0
		C148.5,77.4,148.6,75.1,148.5,72.9C148.6,72.8,148.5,72.9,148.5,72.9z"/>
	<path class="st12" d="M148.6,72.8c0,2.3-0.1,4.5-0.1,6.8c-2.4,0-4.8,0-7.1,0c0-2.2,0-4.4,0-6.8C143.9,72.8,146.3,72.8,148.6,72.8z"
		/>
	<path class="st17" d="M142.9,86.7c-0.1-0.1-0.2-0.3-0.2-0.4c1.9,0.2,3.8,0.4,5.7,0.6C146.5,86.8,144.7,86.8,142.9,86.7z"/>
	<path class="st21" d="M176.3,72.8c0,2.3,0,4.5,0,6.8c-0.2,0-0.4,0.1-0.6,0.1c-2.1-0.1-4.1-0.1-6.2-0.2c-0.1-2-0.2-4.1-0.3-6.1
		c0.1-0.2,0.1-0.4,0.2-0.6C171.7,72.9,174,72.8,176.3,72.8z"/>
	<path class="st12" d="M176.4,93.6c0-2.3-0.1-4.6-0.1-6.8l0.1,0c2.2,0,4.4-0.1,6.6-0.1c0.1,2.1,0.2,4.2,0.4,6.4
		c-0.1,0.2-0.1,0.4-0.2,0.6c0,0,0.1-0.1,0.1-0.1C181,93.6,178.7,93.6,176.4,93.6z"/>
	<path class="st18" d="M169.5,79.6c2.1,0.1,4.1,0.1,6.2,0.2c-2.1,0.5-4.2,1.1-6.3,1.6C169.4,80.8,169.5,80.2,169.5,79.6z"/>
	<path class="st17" d="M183,86.7c-2.2,0-4.4,0.1-6.6,0.1C178.6,86.8,180.8,86.7,183,86.7z"/>
	<path class="st24" d="M176.3,65.9c-9.2,0-18.5,0-27.7,0c0-2.3,0-4.6-0.1-6.9c-1.2-0.2-2.5-0.6-3.7-0.7c-1.1-0.1-2.2,0-3.7,0
		c0.1-2.2,0.2-4.1,0.3-6.3c-2.1,0-4.1,0-6.8,0c0-4.3,0-8.3,0-12.3c0-0.3,0-0.7,0-1c1.1-0.2,2.2-0.6,3.3-0.6c17.4,0,34.8,0,52.2-0.1
		c0,4.6,0,9.2,0,13.9c-2.2,0-4.3,0-6.8,0c0,2.4,0,4.4,0,6.4c-2.2,0.1-4.5,0.2-7,0.3C176.3,61.3,176.3,63.6,176.3,65.9z"/>
	<path class="st3" d="M145.6,64.6c-2.6,0-5.3,0-7.9,0c0-0.1,0-0.2,0-0.3c2.6,0,5.3,0,7.9,0C145.5,64.4,145.6,64.5,145.6,64.6z"/>
	<path class="st1" d="M148.6,163.5c0-2.3-0.1-4.6-0.1-6.9c2.2,0,4.4,0,7,0c0-2.5,0-4.8,0-7c4.6,0,9.2,0,13.9,0c0,2.1,0,4.3,0,6.8
		c1.7,0.1,3.1,0.1,4.6,0.2c0,0.9,0.1,1.7,0,2.6c-0.2,1.7,0.7,2.2,2.2,2c0,0.8,0.1,1.6,0.1,2.3l0-0.1c-0.8,0-1.5,0.1-2.3,0.1
		c-6.2,0-12.3,0-18.5,0c-0.4,0-0.8,0-1.2,0C152.4,163.5,150.5,163.5,148.6,163.5L148.6,163.5z"/>
	<path class="st6" d="M118.6,98.8c0.3,0.2,0.6,0.4,0.9,0.6c-0.1,0.1-0.3,0.2-0.4,0.3C118.9,99.4,118.7,99.1,118.6,98.8L118.6,98.8z"
		/>
	<path class="st18" d="M134,109.2c0,0.6,0,1.1,0,1.7c-0.1,0-0.1,0-0.2,0c0-0.6,0-1.1,0-1.7C133.8,109.2,133.9,109.2,134,109.2z"/>
	<path class="st18" d="M148.5,93.5c-2,0.3-4,0.6-6,0.9c-0.3-0.3-0.6-0.6-0.9-0.9C143.9,93.6,146.2,93.5,148.5,93.5z"/>
	<path class="st2" d="M176.2,161.2c-1.5,0.2-2.4-0.3-2.2-2c0.1-0.8,0-1.7,0-2.6c0.8,0,1.6,0,2.4,0
		C176.3,158.1,176.2,159.6,176.2,161.2z"/>
	<path class="st18" d="M176.4,93.6c2.3,0,4.6,0,6.9,0c0,0.2,0,0.4-0.1,0.7c-1.7,0.3-3.4,0.5-5.1,0.9C176.7,95.5,176.2,95,176.4,93.6
		z"/>
	<path class="st12" d="M134.8,93.8c1.9,0,3.9-0.1,5.8-0.1c0.2,2.1,0.5,4.2,0.7,6.8c-2.5,0-4.5,0-6.5,0
		C134.8,98.2,134.8,96,134.8,93.8z"/>
	<path class="st18" d="M141.7,98.7c1.5,0.4,3,1,4.5,1.2c3.1,0.3,6.1,0.4,9.2,0.6c-3.9,0-7.8-0.1-11.7-0.1
		C142.5,100.5,141.3,100.6,141.7,98.7z"/>
	<path class="st10" d="M183.3,58.4c0-2,0-4,0-6.4c2.4,0,4.6,0,6.8,0c0,2,0,4,0,6.4C187.8,58.4,185.5,58.4,183.3,58.4z"/>
	<path class="st3" d="M178.6,61.9c-0.5-0.7-0.9-1.5-1.4-2.2c0.4-0.1,0.7-0.3,1.1-0.4C178.4,60.1,178.5,61,178.6,61.9L178.6,61.9z"/>
	<path class="st10" d="M154.9,247.2c0.2,0,0.4,0,0.5-0.1c4.6,0,9.3,0,13.9,0c2.1,0.1,4.3,0.1,6.4,0.2c0.1,4.1,0.4,8.1,0.3,12.2
		c0,0.5-1.6,1.5-2.5,1.5c-7.3,0.1-14.6,0-21.8,0.1c-2.5,0-3.1-1.1-3.1-3.3c0-3.4,0-6.7,0-10.1C150.6,247.6,152.8,247.4,154.9,247.2z
		"/>
	<path class="st12" d="M212.1,156.6c0,3.4,0.1,6.8-0.1,10.1c0,1-0.6,2-1,3c0-3.8-0.1-7.6,0-11.3C211,157.8,211.7,157.2,212.1,156.6z
		"/>
	<path class="st12" d="M217.9,168.1c-0.4-0.3-1-0.5-1-0.8c-0.3-2.2-0.6-4.5-0.6-6.7c0-0.8,1-1.5,1.6-2.3
		C217.8,161.6,217.8,164.8,217.9,168.1z"/>
	<path class="st12" d="M217.8,157.7c-1.1-0.4-2.3-0.7-3.4-1.1C215.5,157,217.3,155.5,217.8,157.7z"/>
	<path class="st11" d="M85.7,233.4c-0.2,0-0.4,0-0.6,0c-2,0-4,0-6.2,0c0-2.4,0-4.5,0-6.9c2.1,0,4.3,0,6.8,0
		C85.7,228.8,85.7,231.1,85.7,233.4z"/>
	<path class="st15" d="M92.7,238.5c-0.5,0.6-1,1.6-1.6,1.7c-1.7,0.2-3.4,0.1-5.4,0.1c0-2.5,0-4.8,0-7c2.2,0,4.5,0,7.1,0
		C92.7,235.2,92.7,236.9,92.7,238.5z M86.4,239.7c2.1-0.1,3.8-0.3,5.5-0.4c0-1.9,0-3.5,0-5.2c-1.9,0-3.6,0-5.5,0
		C86.4,236,86.4,237.6,86.4,239.7z"/>
	<path class="st23" d="M148.5,247.8c0,3.4,0.1,6.7,0,10.1c0,2.2,0.6,3.3,3.1,3.3c7.3-0.1,14.6,0,21.8-0.1c0.9,0,2.5-0.9,2.5-1.5
		c0.1-4.1-0.1-8.1-0.3-12.2c11.6,0,23.2,0,35,0c0,4.7,0,9.3,0,13.9c-0.4,0.1-0.8,0.3-1.1,0.3c-20.3,0-40.7,0-61,0
		c-0.5-0.7-1-1.4-1.2-1.7c-1.7,0.2-2.9,0.6-4.2,0.6c-7.6,0-15.2,0-22.8,0c-1.7,0-3.3,0.3-5.1,0.4c0-4,0-7.8,0-12
		c1.3,0,2.4,0.1,3.6,0C128.7,248.4,138.7,250.2,148.5,247.8z"/>
	<path class="st25" d="M81.6,276.6c1.5,0,3,0.1,4.4,0.1c0.1,8.1,0.2,16.1,0.2,24.2c-0.1,0.1-0.2,0.3-0.1,0.4c-2.9,0-5.9,0-9.1,0
		c0-3.1,0-5.9,0-8.9c-1.2,0-2.1,0-3.2,0c-0.1,1-0.2,1.8-0.2,2.7c0,0,0,0,0,0c-1.3,0-2.4,0.1-2.6-1.7c0-0.4-1.3-1-1.9-1
		c-0.4,0-0.8,1-1.2,1.6c0,0.4,0,0.8,0,1.1c0,1.5,0,3.1,0,4.6c-0.5,0.6-0.9,1.6-1.4,1.6c-2.5,0.2-4.9,0.1-7.8,0.1
		c0-8.3,0-16.5,0-24.6c0.4-0.1,0.7-0.1,1.1-0.2c0.8,0,1.5,0,2.3,0c0.6,0,1.2,0,1.7,0c1.2,0.1,2.4,0.2,3.7,0.3c0.2,1.1,0.4,2,0.5,2.9
		c0.9,0.2,1.6,0.3,2.4,0.4c0.2,0.8,0.4,1.6,0.7,2.5c0.9,0,1.7,0,2.5,0c-0.1-0.2-0.2-0.4-0.4-0.5c1.1-1,2.2-2.1,3.7-3.5
		c0-0.2,0.2-1,0.3-1.9C78.8,276.8,80.2,276.7,81.6,276.6z"/>
	<path class="st25" d="M18.2,331.4c0-4.8,0-9.6,0-13.6c1.6-1.7,2.8-2.9,4.6-4.7c3.9,0,8.6,0,13.5,0c0.2-1.1,0.4-1.9,0.7-3
		c3,0,5.9,0,8.9,0c0,8,0,16.1,0,24.3c-8.2,0-16,0-23.9,0c-0.3-0.9-0.5-1.7-0.8-2.5C20,331.7,19.1,331.6,18.2,331.4z M36.4,328.5
		c0-3.2,0-6.1,0-9c-3.1,0-5.9,0-8.8,0c0,3.1,0,6,0,9C30.6,328.5,33.4,328.5,36.4,328.5z"/>
	<path class="st26" d="M219.1,334.4c-3,0.2-6,0.4-9.1,0.7c-0.2-1.3-0.4-2.1-0.5-2.9c-0.9-0.2-1.7-0.3-2.6-0.5
		c-0.1-0.9-0.3-1.8-0.4-2.8c-0.8,0-1.6-0.1-2.5-0.1c-0.2,1-0.3,1.8-0.5,2.8c-0.9,0.2-1.8,0.4-2.8,0.6c-0.1,0.8-0.3,1.6-0.4,2.6
		c-2.9,0-5.7,0-9.1,0c0-2.8,0-5.6,0-8.4c0-4.3,0-8.5,0-13.3c3.5,0.2,6.4,0.4,9.3,0.5c0,2.8,0,5.5,0,8.5c1,0.1,1.8,0.2,2.7,0.3
		c0.3-1.1,0.5-1.9,0.7-2.9c0.8,0,1.6,0,2.5,0c0.2,0.9,0.4,1.7,0.6,2.7c0.7,0.1,1.5,0.1,2.5,0.2c0-3.1,0-5.9,0-8.7
		c0.1-0.2,0.2-0.3,0.2-0.5l0,0c3,0,6,0,9.3,0C219.1,320.6,219.1,327.5,219.1,334.4z"/>
	<path class="st26" d="M250.2,317c0,1.6,0,3.2,0,5c-1.1,0.2-2,0.4-3.1,0.6c-0.2,0.9-0.3,1.8-0.5,3c-4.9,0-9.7,0-14.8,0
		c0,1.1,0,1.9,0,3c6.1,0,12.1,0,18.4,0c0,2.1,0,3.9,0,5.7c-2.7,0.2-5.3,0.4-8,0.5c-5.5,0.1-10.9,0-16.4,0c-0.3-1.1-0.5-1.9-0.7-2.8
		c-0.8-0.2-1.6-0.4-2.6-0.7c0-5,0-9.9,0-14.8l0.1-0.1c0.8-0.1,1.6-0.1,2.7-0.2c0-1,0-1.9,0-2.7c0,0,0.1-0.2,0.1-0.2
		c0.2-0.1,0.4-0.2,0.5-0.3c0,0,0.1,0,0.1,0c6.8,0,13.7,0,20.4,0c0.3,1.5,0.5,2.4,0.6,3.1C248.2,316.5,249.2,316.7,250.2,317z
		 M240.7,322.2c-0.1-1.1-0.1-1.9-0.2-2.6c-3.2,0-6.1,0-9.2,0c0.2,1.1,0.3,1.8,0.5,2.6C234.8,322.2,237.5,322.2,240.7,322.2z"/>
	<path class="st26" d="M253.6,331.8c-0.3-4.9-0.5-9.9-0.8-15c1.2-0.3,2.1-0.6,3-0.8c0.1-0.9,0.3-1.7,0.5-2.8c7,0,14,0,21.2,0
		c0.2,0.8,0.4,1.7,0.6,2.7c0.8,0.2,1.6,0.4,2.6,0.7c0,1.7,0,3.5,0,5c-1.1,0.6-2,1.1-3,1.6c-1,1.5-2.4,1.8-4.2,1.8
		c-3.8-0.1-7.6,0-12.1,0c0.4,1.4,0.7,2.4,1,3.4c6,0,12,0,18.7,0c-0.4,2.3-0.7,4.4-1,6.4c-7.9,0-15.8,0-23.6,0
		c-0.3-1.4-0.5-2.2-0.8-3.2C255,331.7,254.3,331.8,253.6,331.8z M271.4,319.5c-2.3-0.1-4.2-0.1-6.1-0.4c-2.8-0.5-3.2-0.1-2.5,3
		c2.8,0,5.6,0,8.6,0C271.4,321.2,271.4,320.5,271.4,319.5z"/>
	<path class="st27" d="M98.6,334.9c0-5,0-10,0-15.3c-3.2,0-6,0-9.2,0c0,3.6,0,7.2,0,10.7c0,4.6,0.1,4.6-4.5,4.6c-1.5,0-3,0-4.8,0
		c0-7.3,0-14.4,0-21.6c8.1,0,16,0,24.2,0c0.2,0.9,0.4,1.8,0.7,2.7c0.9,0.3,1.8,0.5,3,0.9c0,5.4,0.1,10.9-0.1,16.3
		c0,0.6-1.3,1.6-2.1,1.6C103.7,335.1,101.5,334.9,98.6,334.9z"/>
	<path class="st27" d="M193,295.1c3.4-0.1,6.8-0.3,10.2-0.4c1,0,2,0.2,3,0.4c1.1,0.1,2.3,0.1,3.4,0.2c0,1.9,0,3.8,0,6
		c-8.1,0-16.1,0-24.2,0c-0.2-0.7-0.5-1.5-0.8-2.5c-0.7-0.1-1.5-0.3-2.6-0.5c0-5.1,0-10.1,0-15.2c0.8-0.1,1.7-0.2,2.6-0.4
		c0.3-0.9,0.5-1.7,0.8-2.6c7.1,0,14,0,21,0c-0.1,0.3-0.2,0.5-0.4,0.8c0.9,0.7,1.9,1.3,2.7,2c0.4,0.3,0.7,0.8,1,1.2
		c-0.1,1.5-0.2,3-0.3,4.4c-1.1,0.3-2,0.5-2.9,0.8c-0.2,0.9-0.4,1.7-0.6,2.9c-4.9,0-9.7,0-14.6,0C191.5,293.8,190.4,295.5,193,295.1z
		 M191.4,289.1c3.2,0,6,0,9.1,0c-0.1-1.2-0.1-2.1-0.2-3c-3.2,0-6,0-9,0C191.4,287.2,191.4,288,191.4,289.1z"/>
	<path class="st27" d="M268.6,283.2c0,0.1,0,0.3,0.1,0.4c0,1.9-0.1,3.8-0.1,5.7l0,0c-1,0-2,0-3.1,0c-0.2,1.1-0.4,1.9-0.6,3
		c-4.9,0-9.7,0-14.6,0c-0.1,1.1-0.2,1.9-0.4,3.1c6.4,0,12.5,0,18.7,0c0,1.9,0,3.8,0,6c-8.3,0-16.3,0-24.4,0
		c-0.5-1.5-0.9-3.3-3.1-2.7c0-5,0-10.1,0-15.1c0.2,0.1,0.4,0.2,0.6,0.3c0.9-1.1,1.8-2.2,3-3.6c6.5,0,13.4,0,20.3,0
		c0.2,1,0.4,1.8,0.6,2.6C266.7,282.9,267.6,283.1,268.6,283.2z M249.7,286c0.1,1.2,0.2,2.1,0.3,3c3.2,0,6.1,0,9.2,0c0-1.1,0-2,0-3
		C256.1,286,253.1,286,249.7,286z"/>
	<path class="st27" d="M104.8,297.4c0,0.4,0,0.7,0,1.1c0,0.8,0,1.5,0,2.3c-3.8,0.2-7.5,0.5-11.3,0.4c-0.7,0-1.3-1.6-2.1-2.6
		c-0.3,0-0.9,0-1.6-0.1c-0.1-4.7-0.3-9.3-0.4-14c0-0.5,0.6-1.1,1.1-1.5c0.8-0.8,1.7-1.6,3.1-3c6.2,0,13.3,0,20.4,0l0,0
		c0.1,0.8,0.1,1.5,0.2,2.3c0.9,0.4,1.8,0.8,2.6,1.2c0,5.9,0,11.7,0,17.9c-3,0-5.8,0-8.5,0l-0.1-0.1c-0.2-5.1-0.5-10.2-0.7-15.3
		c-3.1,0-5.9,0-8.8,0c0,3.1,0,6,0,9c1.5,0,2.6,0,3.7,0c0.7,0,1.5,0.1,2.2,0.1C104.6,295.9,104.7,296.7,104.8,297.4z"/>
	<path class="st27" d="M123.2,280.1c7.1,0,14.2,0,21.4,0c0.3,0.9,0.5,1.7,0.8,2.6c0.7,0.1,1.4,0.3,2.4,0.5c0,1.9,0,3.7,0,5.8
		c-3,0-5.9,0-8.9,0c-0.3-1-0.5-1.9-0.8-2.9c-2.6,0-5.3,0-8.3,0c0,2.9,0,5.7,0,8.8c2.7,0,5.4,0,8.3,0c0.3-0.7,0.7-1.6,1.1-2.6
		c2.8,0,5.5,0,8.6,0c0,1.9,0,3.8,0,5.9c-0.7,0.2-1.5,0.4-2.4,0.6c0,0-0.2,0-0.2,0.1c-0.6,4.5-4.2,2.4-6.4,2.5
		c-5.1,0.3-10.1,0.1-15.4,0.1c-0.2-1-0.4-1.8-0.5-2.8c-0.8-0.1-1.7-0.1-2.5-0.2c0-5,0-10,0-15c0.9-0.3,1.8-0.6,2.8-1
		C123.2,281.7,123.2,280.9,123.2,280.1z"/>
	<path class="st25" d="M77,317.1c0,4.6,0,9.2,0.1,13.8c-1.5,1-2.9,1.9-4.4,2.9c0.1,0.2,0.2,0.4,0.3,0.6c-6.7,0-13.4,0-20.1,0
		c0.1-0.2,0.2-0.4,0.4-0.6c-1.1-1.1-2.3-2.2-3.8-3.6c0-4,0-8.7,0-13.2c1-0.5,1.8-0.9,2.7-1.2c0.4-0.7,0.8-1.4,1.1-2
		c6.7,0,13.3,0,20.1,0C73.4,316.1,74.7,317.1,77,317.1z M58.7,319.5c0,3,0,5.9,0,8.9c3,0,5.9,0,8.8,0c0-3.1,0-5.9,0-8.9
		C64.5,319.5,61.8,319.5,58.7,319.5z"/>
	<path class="st25" d="M160.1,277.8c0.1,0.6,0.2,1.3,0.3,2.1c5,0,9.9,0,14.9,0c0.4,1.8,0.7,3.6,3.2,3.1c0,6.1,0,12,0,18.2
		c-3,0-5.8,0-9,0c0-5,0-9.9,0-15.1c-3.2,0-6.1,0-9.5,0c0,4.6,0,9.1,0,13.6c-2.5,1.7-5.2,1.2-7.8,0.9c0-7.8,0-15.2,0-22.8
		C155.1,277.8,157.6,277.8,160.1,277.8z"/>
	<path class="st27" d="M135.4,326.3c0.1,0.4,0.2,0.8,0.2,1.2c0.6,0.4,1.1,0.9,1.7,1c1.4,0.2,2.8,0.1,4.2,0.1c0,1.9,0,3.8,0,6
		c-3.9,0-7.7,0-11.7,0c-0.3-0.7-0.7-1.6-1.1-2.6c-2.4,0.2-2.6-1.2-2.4-3.3c0.6-5.6,0.3-5.8-6-6.7c-0.1-1.2-0.5-2.5-0.3-3.7
		c0.1-0.7,1-1.6,1.6-1.8c4.7-1.1,4.7-1,4.9-6.4c2.9,0,5.8,0,8.8,0c0.2,2.1,0.4,4.1,0.6,6.5c3.1,0,5.8,0,8.8,0
		c-0.1,2.1-0.2,3.8-0.3,5.7c-3.1,0-5.9,0-9,0C135.4,323.9,135.4,325.1,135.4,326.3z"/>
	<path class="st26" d="M180.9,328.5c1.2,0,2.5,0,4,0c0,2.2,0,4.1,0,6.2c-4.1,0-7.9,0-11,0c-1.4-1.5-2.5-2.5-3.5-3.6
		c-0.3,0.1-0.5,0.3-0.8,0.4c0-2.9,0-5.8,0-8.9c-2.2-0.1-4-0.2-5.9-0.4c0-2,0-3.9,0-5.8c1.9,0,3.8,0,5.9,0c0.2-2.3,0.3-4.2,0.4-6.1
		c3.1,0,5.8,0,8.6,0c0.1,2.1,0.2,4,0.4,6.1c3.1,0,5.9,0,9,0c0,2.1,0,3.9,0,5.7l0,0c-3,0-6,0-9,0c0,2.3,0,4.2,0,6.2
		C179.6,328.5,180.3,328.5,180.9,328.5z"/>
	<path class="st27" d="M220.2,276.6c0.4,0,0.8,0,1.1,0c2.3,0.1,4.5,0.2,6.8,0.3c0.1,2.2,0.2,4.1,0.4,6.2c3.2,0,6.1,0,9,0l0,0
		c0,2,0,4,0,6.3c-3.2,0-6.1,0-8.9,0c0,2.1,0,3.8,0,5.6c2,0.1,3.9,0.3,5.8,0.4c0,2.1,0,3.9,0,5.9c-4.1,0-7.8,0-11.6,0
		c0.1-0.2,0.3-0.5,0.4-0.7c-0.8-0.6-1.6-1.3-2.4-1.9c-1.4,0-1.7-0.7-1.7-2c0.1-2.3,0-4.6,0-7.4c-2,0-3.8,0-5.7,0c0-2,0-3.9,0-6.3
		c1.5,0,2.8,0,4.1,0c1.2,0,1.8-0.5,1.5-1.7C219.4,279.7,219.8,278.2,220.2,276.6z M233.4,298.2c-0.7-0.8-1.1-1.3-1.5-1.8
		c-0.4,0.6-1.1,1.1-1.2,1.7c-0.1,0.5,0.7,1.1,1,1.6C232.2,299.2,232.6,298.8,233.4,298.2z"/>
	<path class="st21" d="M113.5,226.2c0-13.8,0-27.6,0-41.7c2.3,0,4.4,0,6.7,0c0,14,0,27.9,0,41.8C118,226.3,115.8,226.2,113.5,226.2z
		"/>
	<path class="st28" d="M204.3,225.9c0-13.7,0-27.4,0-41.3c2.3,0,4.3,0,6.9,0c0,13.7,0,27.5,0,41.2
		C208.9,225.8,206.6,225.8,204.3,225.9z"/>
	<path class="st19" d="M305.5,328.6c0,0.7,0,1.5,0,2.2c-2.5,5.5-7.3,2.9-10.9,3.4c-0.7-1.2-1.4-2.1-1.8-3c-0.7-2-1.7-4.1-1.7-6.1
		c0-2.4-0.2-3.3-2.6-3.4c-1.2-0.1-2.4,0-3.7,0c0-1.8,0-3,0-4.4c1.9-0.3,3.8-0.2,5.4-0.8c2.8-1.1-0.4-3.3,0.7-5.3
		c1.9,0.1,4.4-0.4,5.9,0.5c1.3,0.8,1.6,3.3,2.5,5.3c2.4,0.1,5.2,0.2,8,0.4c0.6,3.4-0.2,4.3-3.4,4.3c-1.8,0-3.5,0-5.1,0
		c-0.4,2.5-0.8,4.4-1.1,6.6c0.5,0.1,1.2,0.2,1.9,0.3C301.7,328.6,303.6,328.6,305.5,328.6z"/>
	<path class="st21" d="M190.3,226.2c0-9.1,0-18.2,0-27.6c2.2,0,4.3,0,6.8,0c0,9.2,0,18.4,0,27.7
		C194.8,226.3,192.5,226.3,190.3,226.2z"/>
	<path class="st11" d="M220.7,298.6c0.8,0.6,1.6,1.3,2.4,1.9c-0.1,0.2-0.3,0.5-0.4,0.7c3.8,0,7.6,0,11.6,0c0-1.9,0-3.7,0-5.9
		c-2-0.1-3.8-0.3-5.8-0.4c0-1.8,0-3.5,0-5.6c2.9,0,5.8,0,8.9,0c0-2.4,0-4.4,0-6.3c2.3,0.4,3.6-0.4,3.5-2.9c1.4,0.2,2.4-0.3,2.9-1.7
		c1.6-0.4,2.9-0.2,4.6,0.1c3.1,0.7,6.5,0.6,9.6-0.1c3.1-0.7,6.1-0.9,8,1.6c0.8,1.1,3.3,0.9,2.5,3.1c-0.9-0.1-1.9-0.3-3-0.4
		c-0.2-0.8-0.4-1.6-0.6-2.6c-6.9,0-13.9,0-20.3,0c-1.2,1.4-2.1,2.5-3,3.6c-0.2-0.1-0.4-0.2-0.6-0.3c0,5,0,10.1,0,15.1
		c-0.4,0-0.8,0-1.2,0c0-1,0-2,0-3c-3.5-0.7-3.9-0.6-3.7,2.6c0.1,2.1-1.1,3.5-2,5l0,0c-2.6,0.2-5.2,0.4-8,0.6c-1-0.5-2.4-1.2-3.8-1.8
		C220.7,301.3,220.1,300.3,220.7,298.6z"/>
	<path class="st28" d="M127.5,225.6c0-9,0-18,0-27.1c2.5,0,4.5,0,6.9,0c0,9.2,0,18.2,0,27.3C132.1,225.8,129.8,225.7,127.5,225.6z"
		/>
	<path class="st29" d="M148.5,247.8c-9.8,2.4-19.8,0.6-29.7,1.1c-1.1,0.1-2.2,0-3.6,0c0,4.1,0,7.9,0,12c1.8-0.1,3.5-0.4,5.1-0.4
		c7.6,0,15.2,0,22.8,0c1.3,0,2.5-0.3,4.2-0.6c0.2,0.3,0.7,1,1.2,1.7c-11.6,0-23.2,0-35.2,0c0-4.4,0-8.5,0-12.6c0-2,1.6-1.8,2.9-1.8
		c9.8,0,19.6,0,29.4,0c3.1,0,6.1,0,9.2,0C152.8,247.4,150.6,247.6,148.5,247.8z"/>
	<path class="st8" d="M299.8,328.6c-0.7-0.1-1.4-0.2-1.9-0.3c0.4-2.2,0.7-4.1,1.1-6.6c1.6,0,3.3,0,5.1,0c3.2,0,4-1,3.4-4.3
		c-2.8-0.1-5.6-0.2-8-0.4c-0.9-2-1.2-4.5-2.5-5.3c-1.6-0.9-4-0.4-5.9-0.5c-1.2,2,2.1,4.2-0.7,5.3c-1.6,0.6-3.5,0.6-5.4,0.8
		c0,1.3,0,2.6,0,4.4c1.3,0,2.5-0.1,3.7,0c2.4,0.1,2.6,1.1,2.6,3.4c0,2,1,4.1,1.7,6.1c0.3,0.9,1,1.8,1.8,3c3.6-0.5,8.4,2,10.9-3.4
		c0,1.2,0,2.5,0,3.9c-4.1,0-8.1,0-12.2,0c-0.2-0.8-0.5-1.7-0.7-2.5c-0.8-0.2-1.5-0.3-2.2-0.5c-0.2-0.3-0.4-0.6-0.4-0.8
		c-0.1-1.8-0.4-3.7-0.2-5.5c0.3-2.5-0.8-3.1-3-2.9c-0.9,0.1-1.9-0.1-2.7-0.2c-1.3-5.5-1.1-5.8,5.6-6.7c0-0.8,0.1-1.8,0.1-2.7
		c0-0.9,0-1.7,0-2.9c1.5-0.1,2.8-0.2,4.1-0.3c1.7,0,3.4,0,5.3,0c0.2,2.1,0.4,4,0.5,6.1c2.2,0,4.2-0.1,6.2,0c1,0.1,1.9,0.6,2.8,0.9
		c0,0.4,0,0.8,0,1.2c0,1,0,1.9,0,2.9c-0.7,0.5-1.3,1.3-2,1.5c-1.2,0.3-2.5,0.2-3.7,0.2c-1.1,0-2.2,0-3.4,0
		C299.8,324.9,299.8,326.7,299.8,328.6z"/>
	<path class="st28" d="M176.4,226.3c0-4.5,0-9,0-13.7c2.3,0,4.4,0,6.8,0c0,4.6,0,9.1,0,13.7C180.9,226.3,178.6,226.3,176.4,226.3z"
		/>
	<path class="st21" d="M141.2,225.5c0-4.2,0-8.4,0-12.8c2.5,0,4.8,0,7.3,0c0,4.4,0,8.8,0,13.2C146.1,226.4,143.6,227.1,141.2,225.5z
		"/>
	<path class="st22" d="M187.9,322.2c0-1.8,0-3.6,0-5.7c-3.1,0-5.9,0-9,0c-0.1-2.2-0.2-4.1-0.4-6.1c-2.8,0-5.5,0-8.6,0
		c-0.1,1.9-0.3,3.8-0.4,6.1c-2.1,0-4,0-5.9,0c0.2-0.5,0.3-1.3,0.5-1.4c1.3-0.3,2.5-0.3,3.4-0.4c0.8-2.2,1.4-3.8,2.1-5.8
		c2.5,0,5-0.2,7.4,0.1c0.9,0.1,1.9,1.5,2.5,2.5c0.4,0.7,0.2,1.8,0.2,2.9c3.5,0.4,6.8,0.7,10.2,1.1c0.1-1.4,0.2-2.6,0.3-4.1
		c1.8,0.4,3.4,0.8,5.2,1.2c0.3-1.4,0.5-2.3,0.7-3.3c0.2,0,0.3,0,0.5,0c0.2,0.9,0.4,1.7,0.6,2.7c3,1.2,1.6-1.8,3-3.1
		c0.1,1.8,0.2,3.2,0.3,4.6c-2.9-0.2-5.8-0.3-9.3-0.5c0,4.7,0,9,0,13.3c-0.3-0.9-0.9-1.7-1-2.6c-0.1-2.1,0-4.2,0-6.4
		c-0.3,0-0.6-0.1-0.9-0.1c-0.1,0.9-0.1,1.8-0.3,2.7C188.7,320.8,188.2,321.5,187.9,322.2z"/>
	<path class="st22" d="M222.4,316.5c0,4.9,0,9.8,0,14.8c0.9,0.2,1.7,0.5,2.6,0.7c0.2,0.9,0.4,1.7,0.7,2.8c5.5,0,11,0,16.4,0
		c2.7,0,5.3-0.3,8-0.5c-0.6,0.4-1.2,1.2-1.8,1.2c-7.6,0.1-15.3,0.1-22.3,0.1c-2.1-1.8-3.7-3.2-5.3-4.6c-0.6,1.3-1.1,2.4-1.5,3.4
		c0-6.9,0-13.8,0-21.3c-3.3,0-6.3,0-9.3,0c0-0.5,0.1-0.9,0.1-1c2.6,0,5,0,8.2,0c1.6,0.7,2.2,2.5,2.1,5c-0.2,3.3-0.1,6.5,0,9.8
		c0,0.9,0.1,1.7,0.2,2.6c0.3,0,0.7,0,1,0c0-2.1,0-4.2,0-6.3c0-1.6-0.1-3.3,0.1-4.9C221.4,317.6,222.1,317.1,222.4,316.5z"/>
	<path class="st15" d="M123.2,280.1c0,0.8,0,1.5,0,2.4c-1,0.3-1.8,0.6-2.8,1c0,5,0,10,0,15c-0.3-0.7-0.5-1.5-0.8-2.2
		c-0.2-0.4-0.7-0.8-1-1.1c-0.4,0.4-1,0.8-1.1,1.3c-0.1,0.6,0.1,1.3,0.3,1.9c0.9,2.2,0.2,3.4-2.1,3.7c-2.3,0.3-4.5,0.6-6.8,0.7
		c-0.2,0-0.6-0.8-0.8-1.3c2.8,0,5.5,0,8.5,0c0-6.2,0-12,0-17.9c-0.8-0.4-1.7-0.8-2.6-1.2c1.1,0,2.2,0,3.3,0c0.5,0.3,1.2,0.9,1.5,0.8
		C120.4,282.3,121.8,281.2,123.2,280.1z"/>
	<path class="st11" d="M268.6,295.3c-6.1,0-12.3,0-18.7,0c0.2-1.2,0.3-2,0.4-3.1c5,0,9.7,0,14.6,0c0.2-1.1,0.4-1.9,0.6-3
		c1,0,2,0,3.1,0C268.6,291.2,268.6,293.3,268.6,295.3z"/>
	<path class="st15" d="M18.2,331.4c0.9,0.2,1.9,0.4,3,0.6c0.2,0.8,0.5,1.6,0.8,2.5c7.9,0,15.7,0,23.9,0c0-8.2,0-16.2,0-24.3
		c0.4,0.4,1.1,0.9,1.1,1.3c0.1,7.9,0,15.7,0,23.6c-0.6,0.2-0.9,0.4-1.2,0.4c-7.5,0-15,0.1-22.5,0C20.5,335.5,19.9,332.7,18.2,331.4z
		"/>
	<path class="st15" d="M52.1,315.7c-0.8,0.4-1.7,0.8-2.7,1.2c0,4.5,0,9.2,0,13.2c1.5,1.5,2.7,2.6,3.8,3.6c-0.1,0.2-0.2,0.4-0.4,0.6
		c6.7,0,13.4,0,20.1,0c-0.1-0.2-0.2-0.4-0.3-0.6c1.5-1,2.9-1.9,4.4-2.9c0.2,0.4,0.4,0.7,0.6,1.1c-0.9,0.2-1.8,0.4-2.8,0.6
		c-0.1,0.8-0.2,1.6-0.3,2.7c-7.9,0-15.8,0-23.7,0c0.3-0.9,0.5-1.8,0.8-3c-1,0.3-1.7,0.5-2.9,0.9c0-5.8,0-11.1,0-16.9
		c0.6-0.3,1.7-0.9,2.9-1.5C51.7,315,51.9,315.4,52.1,315.7z"/>
	<path class="st12" d="M209.9,284.2c-0.3-0.4-0.6-0.9-1-1.2c-0.9-0.7-1.8-1.3-2.7-2c0.1-0.3,0.2-0.5,0.4-0.8c-7,0-13.9,0-21,0
		c-0.3,0.9-0.5,1.7-0.8,2.6c-0.9,0.1-1.7,0.2-2.6,0.4c0.8-4.2,0.8-4.2,5.3-4.2c3.3,0,6.5,0.1,9.8,0c1.7-0.1,3.5-0.5,5.2-1
		c2.6-0.8,4.3,0.1,5.7,3.4c0.8-0.2,1.7-0.5,2.2-0.7c0.6,1,1.2,2,1.8,3c-0.1,0.9-0.1,1.7-0.2,3.1C211,285.5,210.4,284.8,209.9,284.2z
		"/>
	<path class="st27" d="M110.8,310.3c2.2,0,4.1,0,6.3,0c0,3,0,5.8,0,8.8c-1,0.1-1.8,0.1-1.9,0.2c-1.6-1.5-2.7-2.7-4.3-4.3
		C110.8,314.1,110.8,312.4,110.8,310.3z"/>
	<path class="st11" d="M113.9,280.1c-7.1,0-14.2,0-20.4,0c-1.4,1.3-2.3,2.1-3.1,3c-0.4,0.4-1.1,1-1.1,1.5c0,4.7,0.2,9.3,0.4,14
		c-0.4-0.7-1.1-1.4-1.1-2.2c-0.2-1.9-0.1-3.8-0.1-5.8c0-4-0.9-8.3,2.9-11.3c1.2-0.4,2.5-0.9,3.7-1.3c0.6-0.2,1.4-0.3,2-0.1
		c4.3,1.6,8.6,1.4,13,0.1C111.1,277.8,112.6,279.4,113.9,280.1z"/>
	<path class="st6" d="M243.8,278.4c-0.4,1.4-1.5,1.9-2.9,1.7c-0.3-0.7-0.5-1.7-1-2.2c-1.7-1.5-1.6-2,0.2-3.2c3-2,6.2-3.2,10-2.7
		c2.2,0.3,4.4,0,6.6,0c0,0.4,0,0.8,0,1.2c-2.2,0-4.4,0.1-6.6,0c-1.8-0.1-2.5,0.6-2.3,2.3l0,0c-1.4,0-2.8,0-4.7,0
		C243.5,276.7,243.7,277.5,243.8,278.4z"/>
	<path class="st17" d="M183.2,233.4c0,2.2,0,4.4,0,6.8c-2.3,0-4.5,0-6.9,0c0-2.3,0-4.5,0-6.7C178.6,233.4,180.9,233.4,183.2,233.4z"
		/>
	<path class="st15" d="M135.4,326.3c0-1.2,0-2.4,0-3.9c3.1,0,5.8,0,9,0c0.1-1.9,0.2-3.6,0.3-5.7c-3,0-5.7,0-8.8,0
		c-0.2-2.4-0.4-4.5-0.6-6.5c0.4,0,0.8,0,1,0c0.3,1.5,0.5,2.9,0.7,4.1c3.3,0.6,6.2,1,9.2,1.5c-0.1,2.5-0.2,4.3-0.4,6.7
		c-1.4,2.1-4,0-6.2,0.6c-0.2,1-0.4,2-0.6,2.9c-0.2,0-0.3,0-0.5,0c-0.2-0.9-0.5-1.9-0.7-2.7C137,324.3,136.2,325.3,135.4,326.3z"/>
	<path class="st17" d="M120.3,233.4c0,2.2,0,4.4,0,6.7c-2.2,0-4.4,0-6.7,0c0-2.3,0-4.5,0-6.6C115.8,233.5,118,233.4,120.3,233.4z"/>
	<path class="st17" d="M197.1,233.4c0,2.2,0,4.4,0,6.8c-2.3,0-4.3,0-6.8,0c0-2.1,0-4.2,0-6.2C192.5,233.8,194.8,233.6,197.1,233.4z"
		/>
	<path class="st17" d="M148.5,233.9c0,2,0,4,0,6.2c-2.4,0-4.6,0-7.2,0c0.1-2.3,0.2-4.6,0.3-6.8C143.9,233.5,146.2,233.7,148.5,233.9
		z"/>
	<path class="st12" d="M309,317c-0.9-0.3-1.9-0.8-2.8-0.9c-2-0.1-4,0-6.2,0c-0.2-2.2-0.4-4-0.5-6.1c-1.9,0-3.6,0-5.3,0
		c1.5-1.3,2.8-2.8,5.3-1.3c1,0.7,2.8,0.1,4.2,0.3c0.9,0.1,1.8,0.7,2.6,1.1c-0.1,0.3-0.2,0.6-0.3,0.9c-1.1,0.1-2.2,0.3-3.3,0.4
		c0.1,0.9,0.1,1.8,0.2,3.3c1.8,0,3.7-0.1,5.6,0.1c0.6,0.1,1.1,0.8,1.6,1.3C309.7,316.4,309.3,316.7,309,317z"/>
	<path class="st17" d="M134.4,234c0,2,0,4,0,6.1c-2.3,0-4.3,0-6.8,0c0-2.1,0-4.1,0-6.1C129.9,234,132.1,234,134.4,234z"/>
	<path class="st17" d="M211.2,233.4c0,2.2,0,4.4,0,6.9c-2.3,0-4.2,0-6.1,0c-0.2-0.6-0.5-1.2-0.7-1.8c0-1.5,0-3.1,0-4.6
		c0.2-0.2,0.5-0.4,0.7-0.6C207.2,233.4,209.2,233.4,211.2,233.4L211.2,233.4z"/>
	<path class="st11" d="M81.6,276.6c-1.4,0.1-2.8,0.2-4.4,0.2c-0.2,0.9-0.3,1.7-0.3,1.9c-1.5,1.4-2.6,2.4-3.7,3.5
		c0.1,0.2,0.2,0.4,0.4,0.5c-0.8,0-1.6,0-2.5,0c-0.2-0.9-0.5-1.7-0.7-2.5c-0.8-0.1-1.6-0.3-2.4-0.4c-0.2-0.9-0.3-1.8-0.5-2.9
		c-1.3-0.1-2.5-0.2-3.7-0.3c0-0.4,0-0.7,0-1.1c2.7-0.3,5,0.1,5.6,3.7c2.1-0.6,4.1-1.1,6.4-1.7c-0.7-0.5-1.3-1-2.2-1.6
		c2.8-0.3,5.3-0.5,7.9-0.8C81.5,275.3,81.5,276,81.6,276.6z"/>
	<path class="st20" d="M160.1,277.8c-2.5,0-5,0-7.8,0c0,7.6,0,15,0,22.8c2.6,0.3,5.3,0.8,7.8-0.9c0.3,1.2-0.2,1.8-1.4,1.8
		c-2.5,0-4.9,0-7.6,0c0-8.4,0-16.4,0-24.9c2.8,0,5.5,0,8.1,0.1C159.5,276.7,159.8,277.4,160.1,277.8z"/>
	<path class="st6" d="M213,188.1c0,12,0,24.1,0,36.1c-0.2,0-0.4,0-0.6,0c0-12,0-24.1,0-36.1C212.6,188.1,212.8,188.1,213,188.1z"/>
	<path class="st12" d="M315.2,307.8c0,6.8,0,13.5,0,20.6c-0.9,0.1-2.3,0.3-3.7,0.5c0,1.4,0,2.7,0,4.4c-1.8-1.3-1.8-1.3-1.1-6.7
		c3-0.5,3.4-2.6,3.2-5.3c-0.2-3.6-0.1-7.3,0-11c0-0.9,0.4-1.8,0.6-2.7C314.6,307.7,314.9,307.8,315.2,307.8z"/>
	<path class="st15" d="M104.8,297.4c-0.1-0.8-0.1-1.5-0.2-2.3c0.7-0.1,1.3-0.1,2-0.2c0.2-2.6,0.3-5.1,0.5-7.5c-5-1-5.8-0.8-7.4,1.8
		c0,1.9,0,3.2,0,4.3c0.8,0.5,1.8,1,2.8,1.6c-1.1,0-2.3,0-3.7,0c0-3,0-5.8,0-9c2.8,0,5.7,0,8.8,0c0.2,5.1,0.5,10.2,0.7,15.3
		c-0.4-0.7-1.1-1.4-1.1-2.1C107.1,297.6,106.2,297.3,104.8,297.4z"/>
	<path class="st15" d="M209.9,284.2c0.6,0.7,1.1,1.4,2,2.5c0.1-1.3,0.1-2.2,0.2-3.1c0-0.4,0-0.7,0-1.1c2.3-0.4,4.6-0.8,6.9-1.2
		c0.3,1.3-0.3,1.8-1.5,1.7c-1.3,0-2.6,0-4.1,0c0,2.4,0,4.3,0,6.3c-1.8,0-3.6,0-5.5,0c0.4,2.7-0.2,3.5-2.7,3.5c-4.1,0.1-8.2,0-12.8,0
		c0.2,0.9,0.4,1.6,0.5,2.2c-2.6,0.4-1.5-1.3-1.6-2.8c5,0,9.8,0,14.6,0c0.2-1.1,0.4-2,0.6-2.9c0.9-0.2,1.8-0.5,2.9-0.8
		C209.7,287.2,209.8,285.7,209.9,284.2z M211.8,288.4c0.1,0,0.1-0.1,0.2-0.1c0-0.1,0-0.1,0-0.2c-0.1,0-0.2,0.1-0.3,0.1
		C211.7,288.3,211.7,288.3,211.8,288.4z"/>
	<path class="st29" d="M52.1,315.7c-0.2-0.3-0.3-0.7-0.5-1c0-1.1,0-2.2,0-3.3c1.1,0.4,2.3,1,3.4,1.1c5.1,0.1,10.2,0.1,15.2,0
		c0.8,0,1.5-0.7,2.3-1.1c0.6,0.9,1.1,1.9,1.7,2.8c0.4,0.6,1,1.2,1.5,1.7c0.4,0.2,0.8,0.4,1.2,0.5c0,0.2,0,0.4-0.1,0.6
		c-2.2,0.1-3.6-1-3.7-3.4c-6.8,0-13.3,0-20.1,0C52.8,314.3,52.5,315,52.1,315.7z"/>
	<path class="st29" d="M148.5,233.9c-2.3-0.2-4.6-0.4-6.9-0.6c-0.1-2.6-0.3-5.2-0.4-7.9c2.4,1.7,4.9,1,7.3,0.4
		C148.5,228.5,148.5,231.2,148.5,233.9z M143,227.3c0,1.5,0,2.7,0,4.1c1.5,0,2.8,0,4,0C147.7,227.7,146.7,226.7,143,227.3z"/>
	<path class="st29" d="M197.1,233.4c-2.3,0.2-4.6,0.4-6.8,0.5c0-2.6,0-5.1,0.1-7.7c2.3,0,4.5,0.1,6.8,0.1
		C197,228.7,197.1,231,197.1,233.4z M195.7,231.4c0-1.6,0-2.9,0-4.5c-1.6,1.6-4.9,0.9-4.1,4.5C193,231.4,194.2,231.4,195.7,231.4z"
		/>
	<path class="st23" d="M127.7,229.6c0-0.9,0.1-1.8,0.1-2.6c1.9,0,3.7,0,5.5,0c0.5,3.9-0.2,5.9-2.2,5.8
		C129.5,232.6,127.5,232.1,127.7,229.6z"/>
	<path class="st11" d="M86.3,300.9c-0.1-8.1-0.2-16.1-0.2-24.2c0.8,0.4,1.5,0.9,2,1.1c-0.3,1.6-0.6,2.8-0.6,3.9
		c-0.1,5.5,0,11.1-0.1,16.6C87.3,299.2,86.6,300,86.3,300.9z"/>
	<path class="st13" d="M127.7,229.6c-0.2,2.6,1.7,3,3.5,3.1c1.9,0.1,2.7-1.8,2.2-5.8c-1.8,0-3.6,0-5.5,0c-0.1-0.4-0.3-0.9-0.4-1.3
		c2.3,0.1,4.6,0.2,6.9,0.2c0,2.7,0,5.4,0,8.2c-2.3,0-4.5,0-6.8,0C127.6,232.5,127.7,231.1,127.7,229.6z"/>
	<path class="st12" d="M219,281.3c-2.3,0.4-4.6,0.8-6.9,1.2c0.5-2.2,1-4.4,1.5-6.6c0.2,0,0.3,0,0.5,0c0.1,1.3,0.3,2.6,0.4,3.7
		c1-0.3,1.9-0.5,2.9-0.7c0.5-0.8,1.1-1.8,1.7-2.8c0.4,0.2,0.7,0.4,1.1,0.6C219.8,278.2,219.4,279.7,219,281.3z"/>
	<path class="st12" d="M72.5,311.4c-0.8,0.4-1.5,1.1-2.3,1.1c-5.1,0.1-10.2,0.1-15.2,0c-1.1,0-2.3-0.7-3.4-1.1
		c0.5-0.7,1-1.5,1.1-1.6c1.7,0.6,2.9,1.4,4.1,1.5C62,311.4,67.3,311.3,72.5,311.4z"/>
	<path class="st15" d="M73.5,295.1c0.1-0.8,0.2-1.7,0.2-2.7c1.1,0,2,0,3.2,0c0,3,0,5.8,0,8.9c3.3,0,6.2,0,9.1,0
		c-2.9,0.5-5.8,1.1-8.7,1.4c-0.5,0-1.1-1.5-1.6-2.3c-0.5-0.8-1-1.7-1.5-2.6c2.2-0.5,1.7-2.5,1.3-4.5
		C74.9,293.9,74.2,294.5,73.5,295.1z"/>
	<path class="st29" d="M183.2,233.4c-2.3,0-4.6,0-6.9,0.1c0-2.4,0-4.8,0-7.2c2.3,0,4.5,0,6.8,0.1c0,0.6,0,1.2,0,1.8
		c-1.8-0.2-3.7-0.4-5.5-0.7c0,1.3,0,2.6,0,4.1c2,0,3.8,0,5.5,0C183.2,232.2,183.2,232.8,183.2,233.4z"/>
	<path class="st11" d="M237.4,283.1c-2.9,0-5.8,0-9,0c-0.1-2.1-0.2-4-0.4-6.2c-2.3-0.1-4.5-0.2-6.8-0.3c0.8-0.4,1.5-0.9,2.3-1.1
		c1.4-0.3,2.9-0.4,5-0.6c0.4,2.1,0.8,4.6,1.2,6.5C232.3,282,234.9,282.5,237.4,283.1z"/>
	<path class="st29" d="M120.3,233.4c-2.2,0-4.5,0.1-6.7,0.1c0-2.4,0-4.9,0-7.3c2.2,0,4.5,0.1,6.7,0.1
		C120.3,228.7,120.3,231,120.3,233.4z M115.3,232.4c1.6,0.7,3.1,0.7,3.7-1c0.4-0.9,0.6-2.5,0.1-3c-0.8-0.9-2.2-1.1-3.8-1.8
		C115.3,229,115.3,230.7,115.3,232.4z"/>
	<path class="st22" d="M180.9,328.5c-0.6,0-1.3,0-2.1,0c0-2,0-3.9,0-6.2c3,0,6,0,9,0c0,1.2,0,2.4,0,3.6c-0.2,0-0.5,0.1-0.7,0.1
		c-0.2-0.9-0.5-1.8-0.6-2.5c-1.4,0.1-2.6,0.3-3.9,0.4c-0.9,0.1-2.3,0.1-2.5,0.5c-0.4,0.8,0,1.9,0.1,2.9
		C180.3,327.7,180.7,328.1,180.9,328.5z"/>
	<path class="st23" d="M183.2,231.6c-1.8,0-3.6,0-5.5,0c0-1.6,0-2.8,0-4.1c1.9,0.2,3.7,0.5,5.5,0.7
		C183.2,229.3,183.2,230.4,183.2,231.6z"/>
	<path class="st22" d="M253.6,331.8c0.7,0,1.5-0.1,2.2-0.1c0.2,1,0.4,1.9,0.8,3.2c7.9,0,15.8,0,23.6,0c-0.8,0.2-1.6,0.6-2.4,0.6
		c-6.4,0-12.9,0-19.3,0C255.4,335.5,253.9,334.4,253.6,331.8z"/>
	<path class="st22" d="M250.2,317c-1-0.3-1.9-0.6-3.1-0.9c-0.1-0.7-0.3-1.6-0.6-3.1c-6.8,0-13.6,0-20.4,0c0.8-0.2,1.6-0.6,2.4-0.6
		c5.3-0.1,10.7-0.1,16,0.1c1.2,0,2.4,1.1,3.5,1.8c1.2,0.7,2.4,1.6,3.8,2.6C251.1,316.9,250.6,317,250.2,317z"/>
	<path class="st13" d="M211.2,233.4L211.2,233.4c-0.1-2.1-0.2-4.1-0.4-6.2c-2,0-3.8,0-5.7,0c0,2.2,0,4.2,0,6.2
		c-0.2,0.2-0.5,0.4-0.7,0.6c0-2.7-0.1-5.4-0.1-8.1c2.3,0,4.6-0.1,6.9-0.1C211.2,228.3,211.2,230.9,211.2,233.4z"/>
	<path class="st12" d="M299.8,328.6c0-1.8,0-3.7,0-5.8c1.3,0,2.4,0,3.4,0c-0.4,1.6-3.8,1.8-1.7,4.6c0.6-0.1,1.4-0.4,2.2-0.4
		c0.9,0.1,2.5-0.3,1.7,1.6C303.6,328.6,301.7,328.6,299.8,328.6z"/>
	<path class="st12" d="M268.5,289.2c0-1.9,0.1-3.8,0.1-5.7c2.6,1.7,2.8,2.6,2,7.8C269.9,290.6,269.2,289.9,268.5,289.2z"/>
	<path class="st8" d="M262.5,328.5c-0.3-1-0.6-1.9-1-3.4c4.5,0,8.3-0.1,12.1,0c1.7,0.1,3.2-0.3,4.2-1.8c0.4,1.7-0.2,2.4-2,2.4
		c-4.3-0.1-8.6,0-13.1,0C262.6,326.8,262.5,327.7,262.5,328.5z"/>
	<path class="st12" d="M273.2,282.6c0.7,2.5,1.3,5,2,7.7c-0.6,0-1.5,0.1-1.5-0.1c-0.6-2.4-1.2-4.9-1.7-7.3
		C272.4,282.8,272.8,282.7,273.2,282.6z"/>
	<path class="st6" d="M247.9,275.5c2.9,0,5.9,0,9.3,0C254.8,277.2,249.3,277,247.9,275.5L247.9,275.5z"/>
	<path class="st15" d="M67.8,294c0.4-0.6,0.8-1.6,1.2-1.6c0.7,0,1.9,0.6,1.9,1c0.2,1.8,1.3,1.8,2.6,1.7c-0.8,2.1-1.8,1-2.9,0.2
		C69.7,294.7,68.7,294.4,67.8,294z"/>
	<path class="st11" d="M81.3,272.6c-0.8,0.5-1.6,1.1-2.6,1.5c-0.4,0.1-1.1-0.3-1.6-0.6c0.3-0.5,0.5-1.3,0.9-1.4
		c1-0.2,2.1-0.1,3.2-0.1C81.3,272.3,81.3,272.4,81.3,272.6z"/>
	<path class="st11" d="M141.6,328.7c-1.4,0-2.8,0-4.2-0.1c-0.6-0.1-1.1-0.7-1.7-1c1.4,0,2.8-0.2,4.2,0
		C140.5,327.6,141,328.3,141.6,328.7z"/>
	<path class="st11" d="M220.8,271.8c0.9,0.4,1.8,0.8,2.7,1.2c0,0-0.4,1.1-0.5,1.1c-0.9-0.3-1.8-0.7-2.7-1.1
		C220.5,272.6,220.7,272.2,220.8,271.8z"/>
	<path class="st15" d="M77,316.4c-0.4-0.2-0.8-0.4-1.2-0.5c0.4-0.7,0.7-1.5,1.1-2.2c0-0.1,0.9,0.3,0.9,0.3
		C77.6,314.8,77.3,315.6,77,316.4z"/>
	<path class="st11" d="M240.1,298.9c-0.9,0.8-1.6,1.5-2.9,2.7c0.2-1.8,0.3-2.7,0.4-3.9C238.5,298,239.1,298.3,240.1,298.9z"/>
	<path class="st15" d="M67.8,299.7c0-1.5,0-3.1,0-4.6C69.4,296.6,69.4,298.2,67.8,299.7z"/>
	<path class="st12" d="M308.2,302.1c-0.6,0.5-1.2,1.1-1.4,1c-0.5-0.2-0.8-0.8-1.2-1.2c0.4-0.3,0.8-0.8,1.2-0.8
		C307.2,301,307.6,301.6,308.2,302.1z"/>
	<path class="st11" d="M117.4,282.4c-1.1,0-2.2,0-3.3,0c-0.1-0.8-0.1-1.5-0.2-2.3C115.1,280.9,116.2,281.6,117.4,282.4z"/>
	<path class="st12" d="M274.7,304c0-1.3,0-2.6,0-3.8c0.2,0,0.5,0,0.7,0c0.1,1.3,0.1,2.6,0.2,3.8C275.3,303.9,275,304,274.7,304z"/>
	<path class="st22" d="M225.2,313.6c0,0.8,0,1.7,0,2.7c-1.1,0.1-1.9,0.1-2.7,0.2C223.4,315.5,224.3,314.5,225.2,313.6z"/>
	<path class="st12" d="M71.6,273.4c0.9,0,1.8,0,2.7,0c0,0.2,0,0.4,0.1,0.6c-0.9,0.1-1.8,0.2-2.7,0.2C71.6,274,71.6,273.7,71.6,273.4
		z"/>
	<path class="st12" d="M213,271.2c0,0.9,0,1.8,0,2.7c-0.2,0-0.4,0-0.6,0.1c-0.1-0.9-0.2-1.8-0.2-2.7
		C212.4,271.3,212.7,271.2,213,271.2z"/>
	<path class="st12" d="M65.2,271.2c0,0.9,0,1.8,0,2.7c-0.2,0-0.4,0-0.6,0.1c-0.1-0.9-0.2-1.8-0.2-2.7
		C64.6,271.3,64.9,271.2,65.2,271.2z"/>
	<path class="st11" d="M209.7,295.2c-1.1-0.1-2.3-0.1-3.4-0.2C207.7,293.5,208.7,293.5,209.7,295.2z"/>
	<path class="st12" d="M67,273.4c0.9,0,1.8,0,2.7,0c0,0.2,0,0.4,0,0.6c-0.9,0-1.8,0-2.7,0C67,273.8,67,273.6,67,273.4z"/>
	<path class="st12" d="M309,321.1c0-1,0-1.9,0-2.9C310.8,319.2,310.8,320.1,309,321.1z"/>
	<path class="st12" d="M63.7,275.5c0,0.4,0,0.7,0,1.1c-0.6,0-1.2,0-1.7,0c0-0.6,0.1-1.2,0.2-2.2C62.8,274.9,63.3,275.2,63.7,275.5z"
		/>
	<path class="st15" d="M104.8,300.9c0-0.8,0-1.5,0-2.3C106.3,299.4,106.3,300.1,104.8,300.9z"/>
	<path class="st11" d="M234,303.2c0.7,0.1,1.4,0.2,2,0.3c-0.1,0.3-0.2,0.6-0.4,0.9C235.1,304,234.6,303.6,234,303.2L234,303.2z"/>
	<ellipse class="st12" cx="303.9" cy="306.6" rx="0.4" ry="1.2"/>
	<ellipse class="st12" cx="272.7" cy="299.7" rx="0.4" ry="1.2"/>
	<path class="st12" d="M60,271.1c0.6,0,1.1,0,1.7,0c0,0.2,0.1,0.3,0.1,0.5c-0.6,0.1-1.1,0.2-1.7,0.3C60,271.6,60,271.4,60,271.1z"/>
	<path class="st11" d="M88.2,274.1c-0.6,0-1.1,0-1.7,0c0-0.2,0-0.3-0.1-0.5c0.6-0.1,1.1-0.2,1.7-0.3
		C88.2,273.5,88.2,273.8,88.2,274.1z"/>
	<path class="st12" d="M59.7,276.6c-0.4,0.1-0.7,0.1-1.1,0.2c0.1-0.7,0.1-1.4,0.2-2.1c0.2,0,0.4,0,0.6,0
		C59.5,275.3,59.6,275.9,59.7,276.6z"/>
	<path class="st15" d="M18.9,334.4c0.3,0.2,0.5,0.3,0.7,0.5c-0.2,0.2-0.4,0.4-0.7,0.6c-0.1,0-0.5-0.3-0.5-0.5
		C18.4,334.8,18.7,334.6,18.9,334.4z"/>
	<path class="st13" d="M204.4,238.5c0.2,0.6,0.5,1.2,0.7,1.8C204.9,239.7,204.6,239.1,204.4,238.5z"/>
	<path class="st12" d="M215.7,270.2c-0.2,0.1-0.6,0.4-0.7,0.3c-0.2-0.2-0.4-0.5-0.5-0.7c0-0.1,0.3-0.3,0.5-0.4
		C215.2,269.6,215.4,269.8,215.7,270.2z"/>
	<path class="st12" d="M312.3,312.8c-0.1,0.2-0.1,0.4-0.2,0.5c-0.1,0-0.3-0.1-0.5-0.2c0.1-0.2,0.1-0.4,0.2-0.5
		C312,312.6,312.1,312.8,312.3,312.8z"/>
	<path class="st12" d="M216.5,177.8c-0.1,0.2-0.1,0.4-0.2,0.5c-0.1,0-0.3-0.1-0.5-0.2c0.1-0.2,0.1-0.4,0.2-0.5
		C216.1,177.5,216.3,177.7,216.5,177.8z"/>
	<path class="st11" d="M89.9,273.9c0.1-0.2,0.1-0.4,0.2-0.5c0.1,0,0.3,0.1,0.5,0.2c-0.1,0.2-0.1,0.4-0.2,0.5
		C90.3,274.1,90.1,274,89.9,273.9z"/>
	<path class="st12" d="M312.3,316.3c-0.1,0.2-0.1,0.3-0.2,0.5c-0.2-0.1-0.4-0.1-0.5-0.2c0-0.1,0.1-0.3,0.2-0.5
		C312,316.2,312.1,316.2,312.3,316.3z"/>
	<path class="st11" d="M226.9,271.3c-0.1,0.2-0.1,0.4-0.2,0.5c-0.1,0-0.4-0.1-0.4-0.2c0-0.1,0.1-0.4,0.2-0.4
		C226.5,271.1,226.7,271.2,226.9,271.3z"/>
	<path class="st11" d="M72.1,275.9c-0.1,0.2-0.1,0.4-0.2,0.4c-0.1,0-0.3-0.1-0.5-0.2c0.1-0.2,0.1-0.4,0.2-0.4
		C71.8,275.7,72,275.8,72.1,275.9z"/>
	<path class="st12" d="M276.5,279.4c-0.1,0.2-0.1,0.4-0.2,0.5c-0.1,0-0.3-0.1-0.5-0.2c0.1-0.2,0.1-0.4,0.2-0.5
		C276.2,279.1,276.4,279.3,276.5,279.4z"/>
	<path class="st11" d="M238.4,280.5c-0.1,0.2-0.1,0.4-0.2,0.5c-0.1,0-0.3-0.1-0.5-0.2c0.1-0.2,0.1-0.4,0.2-0.5
		C238.1,280.3,238.3,280.5,238.4,280.5z"/>
	<path class="st12" d="M310.9,335.3c-0.2-0.1-0.4-0.1-0.5-0.2c0-0.1,0.1-0.3,0.2-0.5c0.2,0.1,0.4,0.1,0.5,0.2
		C311.2,335,311,335.1,310.9,335.3z"/>
	<path class="st22" d="M209.8,313c-0.1,0.2-0.1,0.4-0.2,0.5C209.7,313.4,209.7,313.2,209.8,313z"/>
	<path class="st22" d="M225.9,313.1c-0.2,0.1-0.4,0.2-0.5,0.3C225.6,313.3,225.7,313.2,225.9,313.1z"/>
	<path class="st20" d="M299.6,159.1c-0.5,1.2-1,2.1-1.4,3.1C297.1,159.4,297.1,159.3,299.6,159.1z"/>
	<path class="st18" d="M169.4,72.9c-0.1,0.2-0.1,0.4-0.2,0.6c-4.6,0-9.1,0-13.7,0c0-0.2-0.1-0.4-0.1-0.6
		C160.1,72.9,164.7,72.9,169.4,72.9z"/>
	<path class="st16" d="M148.6,163.5c1.9,0,3.9,0.1,5.8,0.1c0.1,0.6,0.2,1.3,0.3,1.9c0.2,0,0.4,0,0.6,0c0.1-0.6,0.2-1.3,0.3-1.9
		c6.2,0,12.3,0,18.5,0c2.7,1.5-0.5,3.7,0.9,5.5c-6.8,0-13.4,0-19.9,0c-1.3-2.4-1.3-2.4-3.3-1.8c0.5,1,1,2,1.5,3c-1.3,0-2.7,0-4.2,0
		C146.8,168.2,149.1,165.7,148.6,163.5z"/>
	<path class="st12" d="M153.2,170.3c-0.5-1-1-2-1.5-3c2-0.6,2-0.6,3.3,1.8c6.5,0,13.1,0,19.9,0c-1.3-1.8,1.8-4-0.9-5.5
		c0.8,0,1.5-0.1,2.3-0.1c0,2.2,0,4.4,0,6.9C168.5,170.3,160.8,170.3,153.2,170.3z"/>
	<path class="st12" d="M155.5,163.6c-0.1,0.6-0.2,1.3-0.3,1.9c-0.2,0-0.4,0-0.6,0c-0.1-0.6-0.2-1.3-0.3-1.9
		C154.7,163.6,155.1,163.6,155.5,163.6z"/>
	<path class="st16" d="M86.4,239.7c0-2.1,0-3.7,0-5.6c1.8,0,3.5,0,5.5,0c0,1.7,0,3.3,0,5.2C90.2,239.5,88.4,239.6,86.4,239.7z"/>
	<path class="st12" d="M36.4,328.5c-3,0-5.8,0-8.8,0c0-3,0-5.9,0-9c2.9,0,5.7,0,8.8,0C36.4,322.4,36.4,325.3,36.4,328.5z"/>
	<path class="st12" d="M240.7,322.2c-3.2,0-6,0-8.9,0c-0.1-0.8-0.3-1.6-0.5-2.6c3.1,0,6,0,9.2,0
		C240.6,320.3,240.6,321.1,240.7,322.2z"/>
	<path class="st16" d="M271.4,319.5c0,0.9,0,1.7,0,2.6c-2.9,0-5.8,0-8.6,0c-0.7-3.1-0.3-3.5,2.5-3
		C267.2,319.5,269.1,319.4,271.4,319.5z"/>
	<path class="st15" d="M191.4,289.1c0-1.1,0-1.9,0-3c2.9,0,5.8,0,9,0c0.1,0.9,0.1,1.8,0.2,3C197.4,289.1,194.6,289.1,191.4,289.1z"
		/>
	<path class="st15" d="M249.7,286c3.4,0,6.3,0,9.4,0c0,1.1,0,2,0,3c-3.1,0-6,0-9.2,0C249.9,288.1,249.8,287.2,249.7,286z"/>
	<path class="st16" d="M102.4,295.1c-1-0.6-1.9-1.1-2.8-1.6c0-1.1,0-2.4,0-4.3c1.6-2.5,2.4-2.8,7.4-1.8c-0.2,2.4-0.3,4.9-0.5,7.5
		c-0.6,0.1-1.3,0.1-2,0.2C103.8,295.2,103.1,295.1,102.4,295.1z"/>
	<path class="st12" d="M58.7,319.5c3,0,5.8,0,8.8,0c0,2.9,0,5.8,0,8.9c-2.8,0-5.7,0-8.8,0C58.7,325.4,58.7,322.4,58.7,319.5z"/>
	<path class="st25" d="M233.4,298.2c-0.7,0.6-1.2,1.1-1.7,1.5c-0.4-0.5-1.1-1.1-1-1.6c0.1-0.6,0.8-1.1,1.2-1.7
		C232.3,296.9,232.7,297.4,233.4,298.2z"/>
	<path class="st23" d="M205.1,233.4c0-2,0-4,0-6.2c1.9,0,3.7,0,5.7,0c0.1,2.1,0.2,4.1,0.4,6.2C209.2,233.4,207.2,233.4,205.1,233.4z
		"/>
	<path class="st16" d="M211.8,288.4c0-0.1-0.1-0.1-0.1-0.2c0.1,0,0.2-0.1,0.3-0.1c0,0.1,0,0.2,0,0.2
		C211.9,288.3,211.8,288.3,211.8,288.4z"/>
	<path class="st23" d="M143,227.3c3.6-0.6,4.6,0.4,4,4.1c-1.2,0-2.5,0-4,0C143,230.1,143,228.8,143,227.3z"/>
	<path class="st23" d="M195.7,231.4c-1.4,0-2.7,0-4.1,0c-0.9-3.6,2.4-2.9,4.1-4.5C195.7,228.6,195.7,229.8,195.7,231.4z"/>
	<path class="st23" d="M115.3,232.4c0-1.7,0-3.3,0-5.9c1.6,0.7,3.1,1,3.8,1.8c0.5,0.6,0.3,2.1-0.1,3
		C118.3,233,116.9,233,115.3,232.4z"/>
</g>
</svg>
